<svg width="138" height="138" viewBox="0 0 138 138" fill="none" xmlns="http://www.w3.org/2000/svg">
<circle cx="69" cy="69" r="69" fill="#003F91"/>
<path d="M21 76.6263L21.0625 77.0267L21.1251 77.4262L21.1876 77.8248L21.2502 78.2224L21.3127 78.619L21.3752 79.0146L21.4378 79.4091L21.5003 79.8025L21.5629 80.1948L21.6254 80.5859L21.688 80.9757L21.7505 81.3643L21.813 81.7515L21.8756 82.1374L21.9381 82.5219L22.0007 82.905L22.0632 83.2866L22.1257 83.6667L22.1883 84.0452L22.2508 84.4222L22.3134 84.7975L22.3759 85.1712L22.4384 85.5432L22.501 85.9134L22.5635 86.2818L22.6261 86.6485L22.6886 87.0133L22.7512 87.3762L22.8137 87.7372L22.8762 88.0962L22.9388 88.4532L23.0013 88.8082L23.0639 89.1611L23.1264 89.5119L23.1889 89.8605L23.2515 90.207L23.314 90.5512L23.3766 90.8933L23.4391 91.233L23.5016 91.5704L23.5642 91.9054L23.6267 92.2381L23.6893 92.5683L23.7518 92.8961L23.8144 93.2214L23.8769 93.5442L23.9394 93.8644L24.002 94.182L24.0645 94.4971L24.1271 94.8094L24.1896 95.1191L24.2521 95.4261L24.3147 95.7303L24.3772 96.0317L24.4398 96.3303L24.5023 96.6261L24.5648 96.919L24.6274 97.209L24.6899 97.4961L24.7525 97.7802L24.815 98.0614L24.8776 98.3395L24.9401 98.6146L25.0026 98.8866L25.0652 99.1555L25.1277 99.4213L25.1903 99.6839L25.2528 99.9433L25.3153 100.2L25.3779 100.453L25.4404 100.702L25.503 100.949L25.5655 101.192L25.628 101.432L25.6906 101.668L25.7531 101.901L25.8157 102.131L25.8782 102.357L25.9408 102.58L26.0033 102.799L26.0658 103.015L26.1284 103.227L26.1909 103.436L26.2535 103.641L26.316 103.843L26.3785 104.041L26.4411 104.235L26.5036 104.426L26.5662 104.613L26.6287 104.796L26.6912 104.976L26.7538 105.152L26.8163 105.324L26.8789 105.492L26.9414 105.657L27.0039 105.818L27.0665 105.975L27.129 106.128L27.1916 106.277L27.2541 106.423L27.3167 106.565L27.3792 106.702L27.4417 106.836L27.5043 106.966L27.5668 107.092L27.6294 107.215L27.6919 107.333L27.7544 107.447L27.817 107.557L27.8795 107.663L27.9421 107.766L28.0046 107.864L28.0671 107.958L28.1297 108.048L28.1922 108.134L28.2548 108.217L28.3173 108.295L28.3799 108.369L28.4424 108.439L28.5049 108.504L28.5675 108.566L28.63 108.624L28.6926 108.678L28.7551 108.727L28.8176 108.772L28.8802 108.814L28.9427 108.851L29.0053 108.884L29.0678 108.913L29.1303 108.938L29.1929 108.958L29.2554 108.975L29.318 108.987L29.3805 108.996L29.4431 109L29.5056 109L29.5681 108.996L29.6307 108.988L29.6932 108.975L29.7558 108.959L29.8183 108.938L29.8808 108.913L29.9434 108.884L30.0059 108.851L30.0685 108.814L30.131 108.773L30.1935 108.728L30.2561 108.678L30.3186 108.625L30.3812 108.567L30.4437 108.506L30.5063 108.44L30.5688 108.37L30.6313 108.296L30.6939 108.218L30.7564 108.136L30.819 108.05L30.8815 107.96L30.944 107.866L31.0066 107.767L31.0691 107.665L31.1317 107.559L31.1942 107.449L31.2567 107.335L31.3193 107.217L31.3818 107.095L31.4444 106.969L31.5069 106.839L31.5695 106.705L31.632 106.567L31.6945 106.426L31.7571 106.28L31.8196 106.131L31.8822 105.978L31.9447 105.821L32.0072 105.66L32.0698 105.495L32.1323 105.327L32.1949 105.155L32.2574 104.979L32.3199 104.799L32.3825 104.616L32.445 104.429L32.5076 104.238L32.5701 104.044L32.6327 103.846L32.6952 103.645L32.7577 103.44L32.8203 103.231L32.8828 103.019L32.9454 102.803L33.0079 102.584L33.0704 102.361L33.133 102.135L33.1955 101.905L33.2581 101.672L33.3206 101.436L33.3831 101.196L33.4457 100.953L33.5082 100.707L33.5708 100.457L33.6333 100.204L33.6959 99.9479L33.7584 99.6885L33.8209 99.426L33.8835 99.1602L33.946 98.8914L34.0086 98.6194L34.0711 98.3444L34.1336 98.0663L34.1962 97.7852L34.2587 97.5012L34.3213 97.2141L34.3838 96.9242L34.4463 96.6313L34.5089 96.3356L34.5714 96.037L34.634 95.7356L34.6965 95.4315L34.7591 95.1245L34.8216 94.8149L34.8841 94.5026L34.9467 94.1876L35.0092 93.8701L35.0718 93.5499L35.1343 93.2271L35.1968 92.9019L35.2594 92.5742L35.3219 92.244L35.3845 91.9113L35.447 91.5763L35.5095 91.239L35.5721 90.8993L35.6346 90.5573L35.6972 90.2131L35.7597 89.8667L35.8223 89.518L35.8848 89.1673L35.9473 88.8144L36.0099 88.4595L36.0724 88.1025L36.135 87.7435L36.1975 87.3826L36.26 87.0197L36.3226 86.6549L36.3851 86.2883L36.4477 85.9199L36.5102 85.5497L36.5727 85.1778L36.6353 84.8041L36.6978 84.4288L36.7604 84.0519L36.8229 83.6734L36.8855 83.2933L36.948 82.9117L37.0105 82.5287L37.0731 82.1442L37.1356 81.7583L37.1982 81.3711L37.2607 80.9826L37.3232 80.5928L37.3858 80.2017L37.4483 79.8095L37.5109 79.4161L37.5734 79.0216L37.6359 78.626L37.6985 78.2294L37.761 77.8318L37.8236 77.4332L37.8861 77.0338L37.9486 76.6334L38.0112 76.2323L38.0737 75.8303L38.1363 75.4276L38.1988 75.0242L38.2614 74.6201L38.3239 74.2154L38.3864 73.8101L38.449 73.4043L38.5115 72.998L38.5741 72.5912L38.6366 72.184L38.6991 71.7764L38.7617 71.3685L38.8242 70.9603L38.8868 70.5518L38.9493 70.1431L39.0118 69.7343L39.0744 69.3253L39.1369 68.9163L39.1995 68.5072L39.262 68.0981L39.3246 67.6891L39.3871 67.2801L39.4496 66.8713L39.5122 66.4626L39.5747 66.0541L39.6373 65.6459L39.6998 65.238L39.7623 64.8304L39.8249 64.4232L39.8874 64.0164L39.95 63.61L40.0125 63.2042L40.075 62.7989L40.1376 62.3942L40.2001 61.9901L40.2627 61.5866L40.3252 61.1839L40.3878 60.7819L40.4503 60.3807L40.5128 59.9803L40.5754 59.5808L40.6379 59.1823L40.7005 58.7846L40.763 58.388L40.8255 57.9924L40.8881 57.5978L40.9506 57.2044L41.0132 56.8121L41.0757 56.421L41.1382 56.0312L41.2008 55.6426L41.2633 55.2553L41.3259 54.8694L41.3884 54.4849L41.451 54.1018L41.5135 53.7201L41.576 53.34L41.6386 52.9614L41.7011 52.5844L41.7637 52.2091L41.8262 51.8354L41.8887 51.4634L41.9513 51.0931L42.0138 50.7246L42.0764 50.358L42.1389 49.9931L42.2014 49.6302L42.264 49.2692L42.3265 48.9101L42.3891 48.5531L42.4516 48.1981L42.5142 47.8451L42.5767 47.4943L42.6392 47.1456L42.7018 46.7991L42.7643 46.4548L42.8269 46.1127L42.8894 45.773L42.9519 45.4355L43.0145 45.1004L43.077 44.7677L43.1396 44.4374L43.2021 44.1096L43.2646 43.7843L43.3272 43.4615L43.3897 43.1412L43.4523 42.8235L43.5148 42.5085L43.5774 42.196L43.6399 41.8863L43.7024 41.5793L43.765 41.2751L43.8275 40.9736L43.8901 40.6749L43.9526 40.3791L44.0151 40.0861L44.0777 39.796L44.1402 39.5089L44.2028 39.2247L44.2653 38.9435L44.3278 38.6654L44.3904 38.3902L44.4529 38.1182L44.5155 37.8492L44.578 37.5834L44.6406 37.3207L44.7031 37.0612L44.7656 36.8049L44.8282 36.5518L44.8907 36.302L44.9533 36.0555L45.0158 35.8123L45.0783 35.5725L45.1409 35.336L45.2034 35.1028L45.266 34.8731L45.3285 34.6468L45.391 34.424L45.4536 34.2046L45.5161 33.9888L45.5787 33.7765L45.6412 33.5677L45.7038 33.3624L45.7663 33.1608L45.8288 32.9628L45.8914 32.7683L45.9539 32.5776L46.0165 32.3905L46.079 32.2071L46.1415 32.0274L46.2041 31.8514L46.2666 31.6791L46.3292 31.5106L46.3917 31.3459L46.4542 31.185L46.5168 31.0278L46.5793 30.8745L46.6419 30.7251L46.7044 30.5795L46.767 30.4377L46.8295 30.2999L46.892 30.1659L46.9546 30.0359L47.0171 29.9098L47.0797 29.7876L47.1422 29.6693L47.2047 29.5551L47.2673 29.4448L47.3298 29.3385L47.3924 29.2361L47.4549 29.1378L47.5174 29.0435L47.58 28.9533L47.6425 28.867L47.7051 28.7848L47.7676 28.7067L47.8302 28.6326L47.8927 28.5626L47.9552 28.4967L48.0178 28.4348L48.0803 28.377L48.1429 28.3234L48.2054 28.2738L48.2679 28.2283L48.3305 28.187L48.393 28.1497L48.4556 28.1166L48.5181 28.0876L48.5806 28.0627L48.6432 28.0419L48.7057 28.0253L48.7683 28.0128L48.8308 28.0044L48.8934 28.0002L48.9559 28.0001L49.0184 28.0041L49.081 28.0122L49.1435 28.0245L49.2061 28.0409L49.2686 28.0615L49.3311 28.0862L49.3937 28.1149L49.4562 28.1479L49.5188 28.1849L49.5813 28.226L49.6438 28.2713L49.7064 28.3206L49.7689 28.3741L49.8315 28.4317L49.894 28.4933L49.9566 28.559L50.0191 28.6288L50.0816 28.7027L50.1442 28.7806L50.2067 28.8626L50.2693 28.9486L50.3318 29.0386L50.3943 29.1327L50.4569 29.2308L50.5194 29.3329L50.582 29.439L50.6445 29.5491L50.707 29.6632L50.7696 29.7812L50.8321 29.9032L50.8947 30.0291L50.9572 30.1589L51.0198 30.2927L51.0823 30.4303L51.1448 30.5719L51.2074 30.7173L51.2699 30.8665L51.3325 31.0196L51.395 31.1765L51.4575 31.3373L51.5201 31.5018L51.5826 31.6701L51.6452 31.8421L51.7077 32.0179L51.7702 32.1974L51.8328 32.3807L51.8953 32.5676L51.9579 32.7581L52.0204 32.9524L52.0829 33.1502L52.1455 33.3517L52.208 33.5567L52.2706 33.7653L52.3331 33.9774L52.3957 34.1931L52.4582 34.4123L52.5207 34.6349L52.5833 34.861L52.6458 35.0906L52.7084 35.3235L52.7709 35.5598L52.8334 35.7995L52.896 36.0425L52.9585 36.2889L53.0211 36.5385L53.0836 36.7914L53.1461 37.0475L53.2087 37.3068L53.2712 37.5694L53.3338 37.835L53.3963 38.1038L53.4589 38.3757L53.5214 38.6507L53.5839 38.9287L53.6465 39.2097L53.709 39.4938L53.7716 39.7807L53.8341 40.0707L53.8966 40.3635L53.9592 40.6591L54.0217 40.9577L54.0843 41.259L54.1468 41.5631L54.2093 41.87L54.2719 42.1796L54.3344 42.4918L54.397 42.8067L54.4595 43.1243L54.5221 43.4444L54.5846 43.7671L54.6471 44.0923L54.7097 44.42L54.7722 44.7502L54.8348 45.0827L54.8973 45.4177L54.9598 45.755L55.0224 46.0947L55.0849 46.4366L55.1475 46.7808L55.21 47.1272L55.2725 47.4758L55.3351 47.8265L55.3976 48.1793L55.4602 48.5342L55.5227 48.8912L55.5853 49.2501L55.6478 49.611L55.7103 49.9738L55.7729 50.3386L55.8354 50.7051L55.898 51.0735L55.9605 51.4437L56.023 51.8156L56.0856 52.1892L56.1481 52.5645L56.2107 52.9414L56.2732 53.3199L56.3357 53.6999L56.3983 54.0815L56.4608 54.4645L56.5234 54.849L56.5859 55.2348L56.6485 55.622L56.711 56.0105L56.7735 56.4003L56.8361 56.7913L56.8986 57.1836L56.9612 57.5769L57.0237 57.9714L57.0862 58.367L57.1488 58.7636L57.2113 59.1612L57.2739 59.5597L57.3364 59.9591L57.3989 60.3595L57.4615 60.7606L57.524 61.1626L57.5866 61.5653L57.6491 61.9687L57.7117 62.3727L57.7742 62.7774L57.8367 63.1827L57.8993 63.5885L57.9618 63.9948L58.0244 64.4016L58.0869 64.8088L58.1494 65.2164L58.212 65.6243L58.2745 66.0325L58.3371 66.4409L58.3996 66.8496L58.4621 67.2584L58.5247 67.6674L58.5872 68.0764L58.6498 68.4855L58.7123 68.8946L58.7749 69.3037L58.8374 69.7126L58.8999 70.1215L58.9625 70.5302L59.025 70.9386L59.0876 71.3468L59.1501 71.7548L59.2126 72.1624L59.2752 72.5696L59.3377 72.9764L59.4003 73.3828L59.4628 73.7886L59.5253 74.1939L59.5879 74.5987L59.6504 75.0028L59.713 75.4062L59.7755 75.809L59.8381 76.211L59.9006 76.6122L59.9631 77.0126L60.0257 77.4121L60.0882 77.8107L60.1508 78.2083L60.2133 78.605L60.2758 79.0006L60.3384 79.3952L60.4009 79.7887L60.4635 80.181L60.526 80.5721L60.5885 80.9619L60.6511 81.3505L60.7136 81.7378L60.7762 82.1238L60.8387 82.5083L60.9013 82.8915L60.9638 83.2731L61.0263 83.6533L61.0889 84.0319L61.1514 84.4089L61.214 84.7843L61.2765 85.158L61.339 85.53L61.4016 85.9003L61.4641 86.2688L61.5267 86.6356L61.5892 87.0004L61.6517 87.3634L61.7143 87.7244L61.7768 88.0835L61.8394 88.4406L61.9019 88.7956L61.9644 89.1486L62.027 89.4995L62.0895 89.8482L62.1521 90.1948L62.2146 90.5391L62.2772 90.8812L62.3397 91.221L62.4022 91.5585L62.4648 91.8936L62.5273 92.2264L62.5899 92.5567L62.6524 92.8846L62.7149 93.21L62.7775 93.5328L62.84 93.8531L62.9026 94.1709L62.9651 94.486L63.0276 94.7984L63.0902 95.1082L63.1527 95.4152L63.2153 95.7196L63.2778 96.0211L63.3404 96.3198L63.4029 96.6157L63.4654 96.9087L63.528 97.1988L63.5905 97.486L63.6531 97.7703L63.7156 98.0515L63.7781 98.3297L63.8407 98.6049L63.9032 98.877L63.9658 99.1461L64.0283 99.4119L64.0908 99.6747L64.1534 99.9342L64.2159 100.191L64.2785 100.444L64.341 100.694L64.4036 100.94L64.4661 101.183L64.5286 101.423L64.5912 101.66L64.6537 101.893L64.7163 102.123L64.7788 102.349L64.8413 102.572L64.9039 102.791L64.9664 103.007L65.029 103.22L65.0915 103.429L65.154 103.634L65.2166 103.836L65.2791 104.034L65.3417 104.228L65.4042 104.419L65.4668 104.606L65.5293 104.79L65.5918 104.969L65.6544 105.146L65.7169 105.318L65.7795 105.486L65.842 105.651L65.9045 105.812L65.9671 105.969L66.0296 106.123L66.0922 106.272L66.1547 106.418L66.2172 106.56L66.2798 106.698L66.3423 106.832L66.4049 106.962L66.4674 107.088L66.53 107.21L66.5925 107.329L66.655 107.443L66.7176 107.553L66.7801 107.66L66.8427 107.762L66.9052 107.86L66.9677 107.955L67.0303 108.045L67.0928 108.131L67.1554 108.214L67.2179 108.292L67.2804 108.366L67.343 108.436L67.4055 108.502L67.4681 108.564L67.5306 108.622L67.5932 108.676L67.6557 108.725L67.7182 108.771L67.7808 108.812L67.8433 108.85L67.9059 108.883L67.9684 108.912L68.0309 108.937L68.0935 108.958L68.156 108.974L68.2186 108.987L68.2811 108.995L68.3436 109L68.4062 109L68.4687 108.996L68.5313 108.988L68.5938 108.976L68.6564 108.959L68.7189 108.939L68.7814 108.914L68.844 108.886L68.9065 108.853L68.9691 108.816L69.0316 108.775L69.0941 108.73L69.1567 108.68L69.2192 108.627L69.2818 108.569L69.3443 108.508L69.4068 108.442L69.4694 108.372L69.5319 108.299L69.5945 108.221L69.657 108.139L69.7196 108.053L69.7821 107.963L69.8446 107.869L69.9072 107.771L69.9697 107.669L70.0323 107.563L70.0948 107.453L70.1573 107.339L70.2199 107.221L70.2824 107.099L70.345 106.973L70.4075 106.843L70.47 106.71L70.5326 106.572L70.5951 106.431L70.6577 106.285L70.7202 106.136L70.7828 105.983L70.8453 105.826L70.9078 105.666L70.9704 105.501L71.0329 105.333L71.0955 105.161L71.158 104.985L71.2205 104.806L71.2831 104.623L71.3456 104.436L71.4082 104.245L71.4707 104.051L71.5332 103.853L71.5958 103.652L71.6583 103.447L71.7209 103.238L71.7834 103.026L71.8459 102.811L71.9085 102.592L71.971 102.369L72.0336 102.143L72.0961 101.913L72.1587 101.681L72.2212 101.444L72.2837 101.205L72.3463 100.962L72.4088 100.715L72.4714 100.466L72.5339 100.213L72.5964 99.957L72.659 99.6977L72.7215 99.4353L72.7841 99.1697L72.8466 98.9009L72.9091 98.6291L72.9717 98.3542L73.0342 98.0762L73.0968 97.7952L73.1593 97.5113L73.2219 97.2243L73.2844 96.9345L73.3469 96.6417L73.4095 96.3461L73.472 96.0476L73.5346 95.7463L73.5971 95.4422L73.6596 95.1354L73.7222 94.8259L73.7847 94.5137L73.8473 94.1988L73.9098 93.8813L73.9723 93.5612L74.0349 93.2386L74.0974 92.9134L74.16 92.5858L74.2225 92.2557L74.2851 91.9231L74.3476 91.5882L74.4101 91.2509L74.4727 90.9113L74.5352 90.5694L74.5978 90.2253L74.6603 89.8789L74.7228 89.5304L74.7854 89.1797L74.8479 88.8269L74.9105 88.472L74.973 88.1151L75.0355 87.7562L75.0981 87.3954L75.1606 87.0326L75.2232 86.6679L75.2857 86.3013L75.3483 85.933L75.4108 85.5628L75.4733 85.1909L75.5359 84.8174L75.5984 84.4421L75.661 84.0652L75.7235 83.6868L75.786 83.3068L75.8486 82.9252L75.9111 82.5422L75.9737 82.1578L76.0362 81.772L76.0987 81.3848L76.1613 80.9963L76.2238 80.6066L76.2864 80.2156L76.3489 79.8234L76.4115 79.43L76.474 79.0355L76.5365 78.64L76.5991 78.2434L76.6616 77.8459L76.7242 77.4473L76.7867 77.0479L76.8492 76.6476L76.9118 76.2464L76.9743 75.8445L77.0369 75.4418L77.0994 75.0385L77.1619 74.6344L77.2245 74.2297L77.287 73.8245L77.3496 73.4186L77.4121 73.0123L77.4747 72.6056L77.5372 72.1984L77.5997 71.7908L77.6623 71.3829L77.7248 70.9747L77.7874 70.5663L77.8499 70.1576L77.9124 69.7488L77.975 69.3398L78.0375 68.9308L78.1001 68.5217L78.1626 68.1126L78.2251 67.7035L78.2877 67.2946L78.3502 66.8857L78.4128 66.477L78.4753 66.0686L78.5379 65.6603L78.6004 65.2524L78.6629 64.8448L78.7255 64.4376L78.788 64.0308L78.8506 63.6244L78.9131 63.2185L78.9756 62.8132L79.0382 62.4085L79.1007 62.0043L79.1633 61.6009L79.2258 61.1981L79.2883 60.7961L79.3509 60.3949L79.4134 59.9945L79.476 59.595L79.5385 59.1963L79.6011 58.7987L79.6636 58.402L79.7261 58.0063L79.7887 57.6117L79.8512 57.2183L79.9138 56.8259L79.9763 56.4348L80.0388 56.0449L80.1014 55.6563L80.1639 55.269L80.2265 54.883L80.289 54.4984L80.3515 54.1153L80.4141 53.7336L80.4766 53.3534L80.5392 52.9748L80.6017 52.5977L80.6643 52.2223L80.7268 51.8486L80.7893 51.4765L80.8519 51.1062L80.9144 50.7376L80.977 50.3709L81.0395 50.006L81.102 49.643L81.1646 49.2819L81.2271 48.9228L81.2897 48.5657L81.3522 48.2106L81.4147 47.8576L81.4773 47.5067L81.5398 47.1579L81.6024 46.8113L81.6649 46.4669L81.7275 46.1248L81.79 45.7849L81.8525 45.4474L81.9151 45.1122L81.9776 44.7794L82.0402 44.4491L82.1027 44.1212L82.1652 43.7957L82.2278 43.4728L82.2903 43.1525L82.3529 42.8347L82.4154 42.5195L82.4779 42.207L82.5405 41.8972L82.603 41.5901L82.6656 41.2858L82.7281 40.9842L82.7907 40.6854L82.8532 40.3895L82.9157 40.0964L82.9783 39.8062L83.0408 39.519L83.1034 39.2347L83.1659 38.9534L83.2284 38.6751L83.291 38.3999L83.3535 38.1277L83.4161 37.8586L83.4786 37.5927L83.5411 37.3299L83.6037 37.0703L83.6662 36.8139L83.7288 36.5607L83.7913 36.3108L83.8539 36.0642L83.9164 35.8209L83.9789 35.5809L84.0415 35.3443L84.104 35.111L84.1666 34.8812L84.2291 34.6548L84.2916 34.4318L84.3542 34.2123L84.4167 33.9964L84.4793 33.7839L84.5418 33.575L84.6043 33.3696L84.6669 33.1679L84.7294 32.9697L84.792 32.7752L84.8545 32.5843L84.917 32.397L84.9796 32.2135L85.0421 32.0336L85.1047 31.8575L85.1672 31.6851L85.2298 31.5165L85.2923 31.3517L85.3548 31.1906L85.4174 31.0333L85.4799 30.8799L85.5425 30.7303L85.605 30.5846L85.6675 30.4427L85.7301 30.3047L85.7926 30.1706L85.8552 30.0404L85.9177 29.9142L85.9802 29.7918L86.0428 29.6735L86.1053 29.559L86.1679 29.4486L86.2304 29.3421L86.293 29.2397L86.3555 29.1412L86.418 29.0468L86.4806 28.9564L86.5431 28.87L86.6057 28.7877L86.6682 28.7094L86.7307 28.6352L86.7933 28.565L86.8558 28.4989L86.9184 28.4369L86.9809 28.379L87.0434 28.3252L87.106 28.2755L87.1685 28.2299L87.2311 28.1884L87.2936 28.151L87.3562 28.1177L87.4187 28.0885L87.4812 28.0635L87.5438 28.0426L87.6063 28.0258L87.6689 28.0132L87.7314 28.0046L87.7939 28.0003L87.8565 28L87.919 28.0039L87.9816 28.0119L88.0441 28.024L88.1066 28.0403L88.1692 28.0607L88.2317 28.0852L88.2943 28.1139L88.3568 28.1466L88.4194 28.1835L88.4819 28.2245L88.5444 28.2696L88.607 28.3188L88.6695 28.3721L88.7321 28.4295L88.7946 28.491L88.8571 28.5566L88.9197 28.6263L88.9822 28.7L89.0448 28.7778L89.1073 28.8596L89.1698 28.9455L89.2324 29.0354L89.2949 29.1293L89.3575 29.2273L89.42 29.3293L89.4825 29.4352L89.5451 29.5452L89.6076 29.6591L89.6702 29.777L89.7327 29.8988L89.7953 30.0246L89.8578 30.1543L89.9203 30.2879L89.9829 30.4254L90.0454 30.5668L90.108 30.7121L90.1705 30.8612L90.233 31.0141L90.2956 31.1709L90.3581 31.3315L90.4207 31.4959L90.4832 31.6641L90.5457 31.836L90.6083 32.0117L90.6708 32.191L90.7334 32.3741L90.7959 32.5609L90.8585 32.7513L90.921 32.9454L90.9835 33.1431L91.0461 33.3445L91.1086 33.5494L91.1712 33.7579L91.2337 33.9699L91.2962 34.1854L91.3588 34.4045L91.4213 34.627L91.4839 34.853L91.5464 35.0824L91.6089 35.3152L91.6715 35.5514L91.734 35.791L91.7966 36.0339L91.8591 36.2801L91.9217 36.5296L91.9842 36.7824L92.0467 37.0384L92.1093 37.2976L92.1718 37.56L92.2344 37.8256L92.2969 38.0943L92.3594 38.3661L92.422 38.6409L92.4845 38.9188L92.5471 39.1998L92.6096 39.4837L92.6721 39.7705L92.7347 40.0604L92.7972 40.3531L92.8598 40.6486L92.9223 40.9471L92.9849 41.2483L93.0474 41.5523L93.1099 41.8591L93.1725 42.1686L93.235 42.4807L93.2976 42.7956L93.3601 43.113L93.4226 43.4331L93.4852 43.7556L93.5477 44.0808L93.6103 44.4084L93.6728 44.7384L93.7353 45.0709L93.7979 45.4058L93.8604 45.7431L93.923 46.0826L93.9855 46.4245L94.0481 46.7686L94.1106 47.1149L94.1731 47.4634L94.2357 47.814L94.2982 48.1668L94.3608 48.5216L94.4233 48.8785L94.4858 49.2374L94.5484 49.5982L94.6109 49.961L94.6735 50.3256L94.736 50.6922L94.7985 51.0605L94.8611 51.4306L94.9236 51.8024L94.9862 52.176L95.0487 52.5512L95.1113 52.9281L95.1738 53.3065L95.2363 53.6865L95.2989 54.068L95.3614 54.4509L95.424 54.8354L95.4865 55.2212L95.549 55.6083L95.6116 55.9968L95.6741 56.3865L95.7367 56.7775L95.7992 57.1697L95.8618 57.563L95.9243 57.9574L95.9868 58.353L96.0494 58.7495L96.1119 59.1471L96.1745 59.5456L96.237 59.945L96.2995 60.3453L96.3621 60.7464L96.4246 61.1483L96.4872 61.551L96.5497 61.9544L96.6122 62.3584L96.6748 62.7631L96.7373 63.1684L96.7999 63.5742L96.8624 63.9805L96.925 64.3872L96.9875 64.7944L97.05 65.202L97.1126 65.6099L97.1751 66.0181L97.2377 66.4265L97.3002 66.8352L97.3627 67.244L97.4253 67.6529L97.4878 68.062L97.5504 68.4711L97.6129 68.8802L97.6754 69.2892L97.738 69.6982L97.8005 70.107L97.8631 70.5157L97.9256 70.9242L97.9882 71.3324L98.0507 71.7404L98.1132 72.148L98.1758 72.5552L98.2383 72.962L98.3009 73.3684L98.3634 73.7743L98.4259 74.1796L98.4885 74.5844L98.551 74.9885L98.6136 75.392L98.6761 75.7947L98.7386 76.1968L98.8012 76.598L98.8637 76.9984L98.9263 77.398L98.9888 77.7966L99.0514 78.1943L99.1139 78.591L99.1764 78.9867L99.239 79.3813L99.3015 79.7748L99.3641 80.1671L99.4266 80.5583L99.4891 80.9482L99.5517 81.3368L99.6142 81.7242L99.6768 82.1102L99.7393 82.4948L99.8018 82.8779L99.8644 83.2596L99.9269 83.6398L99.9895 84.0185L100.052 84.3956L100.115 84.771L100.177 85.1448L100.24 85.5169L100.302 85.8873L100.365 86.2559L100.427 86.6226L100.49 86.9875L100.552 87.3506L100.615 87.7117L100.677 88.0709L100.74 88.428L100.803 88.7831L100.865 89.1362L100.928 89.4871L100.99 89.8359L101.053 90.1826L101.115 90.527L101.178 90.8692L101.24 91.209L101.303 91.5466L101.365 91.8818L101.428 92.2147L101.49 92.5451L101.553 92.873L101.616 93.1985L101.678 93.5215L101.741 93.8419L101.803 94.1597L101.866 94.4749L101.928 94.7874L101.991 95.0973L102.053 95.4044L102.116 95.7088L102.178 96.0105L102.241 96.3093L102.303 96.6053L102.366 96.8984L102.429 97.1886L102.491 97.4759L102.554 97.7603L102.616 98.0416L102.679 98.3199L102.741 98.5952L102.804 98.8675L102.866 99.1366L102.929 99.4026L102.991 99.6654L103.054 99.9251L103.117 100.182L103.179 100.435L103.242 100.685L103.304 100.931L103.367 101.175L103.429 101.415L103.492 101.652L103.554 101.885L103.617 102.115L103.679 102.341L103.742 102.564L103.804 102.784L103.867 103L103.93 103.212L103.992 103.421L104.055 103.627L104.117 103.829L104.18 104.027L104.242 104.221L104.305 104.412L104.367 104.6L104.43 104.783L104.492 104.963L104.555 105.139L104.618 105.312L104.68 105.481L104.743 105.645L104.805 105.807L104.868 105.964L104.93 106.117L104.993 106.267L105.055 106.413L105.118 106.555L105.18 106.693L105.243 106.827L105.305 106.957L105.368 107.084L105.431 107.206L105.493 107.324L105.556 107.439L105.618 107.549L105.681 107.656L105.743 107.759L105.806 107.857L105.868 107.952L105.931 108.042L105.993 108.128L106.056 108.211L106.118 108.289L106.181 108.364L106.244 108.434L106.306 108.5L106.369 108.562L106.431 108.62L106.494 108.674L106.556 108.724L106.619 108.769L106.681 108.811L106.744 108.848L106.806 108.882L106.869 108.911L106.932 108.936L106.994 108.957L107.057 108.974L107.119 108.987L107.182 108.995L107.244 109L107.307 109L107.369 108.996L107.432 108.988L107.494 108.976L107.557 108.96L107.619 108.94L107.682 108.915L107.745 108.887L107.807 108.854L107.87 108.817L107.932 108.776L107.995 108.731L108.057 108.682L108.12 108.629L108.182 108.571L108.245 108.51L108.307 108.445L108.37 108.375L108.433 108.301L108.495 108.224L108.558 108.142L108.62 108.056L108.683 107.966L108.745 107.872L108.808 107.774L108.87 107.673L108.933 107.567L108.995 107.457L109.058 107.343L109.12 107.225L109.183 107.103L109.246 106.978L109.308 106.848L109.371 106.714L109.433 106.577L109.496 106.436L109.558 106.291L109.621 106.141L109.683 105.989L109.746 105.832L109.808 105.671L109.871 105.507L109.934 105.339L109.996 105.167L110.059 104.991L110.121 104.812L110.184 104.629L110.246 104.442L110.309 104.252L110.371 104.058L110.434 103.86L110.496 103.659L110.559 103.454L110.621 103.246L110.684 103.034L110.747 102.818L110.809 102.599L110.872 102.377L110.934 102.151L110.997 101.922L111.059 101.689L111.122 101.453L111.184 101.213L111.247 100.97L111.309 100.724L111.372 100.475L111.434 100.222L111.497 99.9661L111.56 99.707L111.622 99.4446L111.685 99.1791L111.747 98.9105L111.81 98.6387L111.872 98.3639L111.935 98.0861L111.997 97.8052L112.06 97.5213L112.122 97.2345L112.185 96.9448L112.248 96.6521L112.31 96.3566L112.373 96.0582L112.435 95.757L112.498 95.453L112.56 95.1463L112.623 94.8369L112.685 94.5248L112.748 94.21L112.81 93.8926L112.873 93.5726L112.935 93.25L112.998 92.925L113.061 92.5974L113.123 92.2674L113.186 91.9349L113.248 91.6001L113.311 91.2629L113.373 90.9234L113.436 90.5816L113.498 90.2375L113.561 89.8912L113.623 89.5428L113.686 89.1921L113.749 88.8394L113.811 88.4846L113.874 88.1278L113.936 87.769L113.999 87.4082L114.061 87.0454L114.124 86.6808L114.186 86.3143L114.249 85.946L114.311 85.5759L114.374 85.2041L114.436 84.8306L114.499 84.4554L114.562 84.0786L114.624 83.7002L114.687 83.3202L114.749 82.9387L114.812 82.5558L114.874 82.1714L114.937 81.7856L114.999 81.3985L115.062 81.0101L115.124 80.6204L115.187 80.2294L115.25 79.8372L115.312 79.4439L115.375 79.0495L115.437 78.654L115.5 78.2575L115.562 77.8599L115.625 77.4614L115.687 77.062L115.75 76.6618L115.812 76.2606L115.875 75.8587L115.937 75.4561L116 75.0527" stroke="white" stroke-width="5" stroke-miterlimit="10" stroke-linecap="round" stroke-linejoin="round"/>
</svg>
