<svg width="179" height="139" viewBox="0 0 179 139" fill="none" xmlns="http://www.w3.org/2000/svg">
<path d="M72.545 5L71.7097 5.08492L70.8762 5.16985L70.0446 5.25477L69.215 5.3397L68.3875 5.42462L67.5621 5.50955L66.739 5.59447L65.9182 5.67939L65.0998 5.76432L64.2838 5.84924L63.4705 5.93417L62.6598 6.01909L61.8518 6.10402L61.0467 6.18894L60.2444 6.27386L59.4452 6.35879L58.649 6.44371L57.856 6.52864L57.0662 6.61356L56.2797 6.69849L55.4966 6.78341L54.7169 6.86833L53.9408 6.95326L53.1684 7.03818L52.3996 7.12311L51.6347 7.20803L50.8735 7.29296L50.1164 7.37788L49.3632 7.4628L48.6142 7.54773L47.8693 7.63265L47.1287 7.71758L46.3924 7.8025L45.6605 7.88743L44.933 7.97235L44.2101 8.05727L43.4918 8.1422L42.7783 8.22712L42.0695 8.31205L41.3655 8.39697L40.6664 8.4819L39.9724 8.56682L39.2833 8.65174L38.5994 8.73667L37.9207 8.82159L37.2473 8.90652L36.5792 8.99144L35.9165 9.07637L35.2592 9.16129L34.6075 9.24621L33.9614 9.33114L33.321 9.41606L32.6862 9.50099L32.0573 9.58591L31.4343 9.67084L30.8171 9.75576L30.206 9.84068L29.6009 9.92561L29.0019 10.0105L28.4091 10.0955L27.8225 10.1804L27.2423 10.2653L26.6683 10.3502L26.1008 10.4352L25.5398 10.5201L24.9852 10.605L24.4373 10.6899L23.896 10.7749L23.3614 10.8598L22.8335 10.9447L22.3124 11.0296L21.7982 11.1145L21.2909 11.1995L20.7906 11.2844L20.2973 11.3693L19.811 11.4542L19.3318 11.5392L18.8598 11.6241L18.3951 11.709L17.9375 11.7939L17.4873 11.8789L17.0444 11.9638L16.6089 12.0487L16.1809 12.1336L15.7603 12.2186L15.3472 12.3035L14.9417 12.3884L14.5439 12.4733L14.1536 12.5583L13.7711 12.6432L13.3962 12.7281L13.0292 12.813L12.67 12.898L12.3185 12.9829L11.975 13.0678L11.6394 13.1527L11.3117 13.2377L10.992 13.3226L10.6803 13.4075L10.3766 13.4924L10.0811 13.5774L9.79357 13.6623L9.51423 13.7472L9.24304 13.8321L8.98004 13.9171L8.72526 14.002L8.47873 14.0869L8.24045 14.1718L8.01047 14.2567L7.7888 14.3417L7.57547 14.4266L7.3705 14.5115L7.17391 14.5964L6.98572 14.6814L6.80594 14.7663L6.63461 14.8512L6.47172 14.9361L6.31732 15.0211L6.17139 15.106L6.03396 15.1909L5.90507 15.2758L5.78469 15.3608L5.67285 15.4457L5.56956 15.5306L5.47486 15.6155L5.38871 15.7005L5.31114 15.7854L5.24216 15.8703L5.18179 15.9552L5.13003 16.0402L5.08685 16.1251L5.05229 16.21L5.02636 16.2949L5.00905 16.3799L5.00035 16.4648L5.00028 16.5497L5.00881 16.6346L5.02598 16.7196L5.05176 16.8045L5.08617 16.8894L5.12919 16.9743L5.18081 17.0592L5.24103 17.1442L5.30985 17.2291L5.38727 17.314L5.47325 17.3989L5.56783 17.4839L5.67095 17.5688L5.78264 17.6537L5.90286 17.7386L6.03162 17.8236L6.16888 17.9085L6.31466 17.9934L6.46892 18.0783L6.63166 18.1633L6.80285 18.2482L6.98246 18.3331L7.1705 18.418L7.36696 18.503L7.57177 18.5879L7.78495 18.6728L8.00648 18.7577L8.23631 18.8427L8.47444 18.9276L8.72084 19.0125L8.97547 19.0974L9.23833 19.1824L9.50936 19.2673L9.78856 19.3522L10.0759 19.4371L10.3713 19.5221L10.6748 19.607L10.9864 19.6919L11.306 19.7768L11.6335 19.8618L11.969 19.9467L12.3124 20.0316L12.6637 20.1165L13.0228 20.2014L13.3897 20.2864L13.7644 20.3713L14.1468 20.4562L14.5369 20.5411L14.9346 20.6261L15.34 20.711L15.7529 20.7959L16.1734 20.8808L16.6013 20.9658L17.0366 21.0507L17.4794 21.1356L17.9295 21.2205L18.3869 21.3055L18.8516 21.3904L19.3234 21.4753L19.8025 21.5602L20.2886 21.6452L20.7818 21.7301L21.282 21.815L21.7892 21.8999L22.3033 21.9849L22.8242 22.0698L23.352 22.1547L23.8865 22.2396L24.4277 22.3246L24.9755 22.4095L25.5299 22.4944L26.0908 22.5793L26.6582 22.6643L27.2321 22.7492L27.8122 22.8341L28.3987 22.919L28.9914 23.004L29.5903 23.0889L30.1952 23.1738L30.8063 23.2587L31.4233 23.3436L32.0463 23.4286L32.6751 23.5135L33.3097 23.5984L33.95 23.6833L34.596 23.7683L35.2477 23.8532L35.9048 23.9381L36.5674 24.023L37.2354 24.108L37.9088 24.1929L38.5874 24.2778L39.2712 24.3627L39.9601 24.4477L40.6541 24.5326L41.3531 24.6175L42.057 24.7024L42.7657 24.7874L43.4792 24.8723L44.1974 24.9572L44.9202 25.0421L45.6476 25.1271L46.3794 25.212L47.1156 25.2969L47.8562 25.3818L48.601 25.4668L49.35 25.5517L50.103 25.6366L50.8601 25.7215L51.6212 25.8065L52.3861 25.8914L53.1548 25.9763L53.9272 26.0612L54.7032 26.1461L55.4828 26.2311L56.2658 26.316L57.0522 26.4009L57.842 26.4858L58.635 26.5708L59.4311 26.6557L60.2303 26.7406L61.0325 26.8255L61.8376 26.9105L62.6455 26.9954L63.4561 27.0803L64.2694 27.1652L65.0853 27.2502L65.9037 27.3351L66.7245 27.42L67.5476 27.5049L68.3729 27.5899L69.2004 27.6748L70.03 27.7597L70.8615 27.8446L71.695 27.9296L72.5303 28.0145L73.3673 28.0994L74.2059 28.1843L75.0461 28.2693L75.8878 28.3542L76.7309 28.4391L77.5753 28.524L78.4209 28.609L79.2676 28.6939L80.1154 28.7788L80.9641 28.8637L81.8137 28.9487L82.6641 29.0336L83.5152 29.1185L84.3668 29.2034L85.2191 29.2883L86.0717 29.3733L86.9247 29.4582L87.778 29.5431L88.6314 29.628L89.4849 29.713L90.3385 29.7979L91.1919 29.8828L92.0452 29.9677L92.8982 30.0527L93.7509 30.1376L94.6031 30.2225L95.4548 30.3074L96.3059 30.3924L97.1563 30.4773L98.0059 30.5622L98.8547 30.6471L99.7025 30.7321L100.549 30.817L101.395 30.9019L102.239 30.9868L103.082 31.0718L103.924 31.1567L104.764 31.2416L105.603 31.3265L106.44 31.4115L107.276 31.4964L108.109 31.5813L108.941 31.6662L109.77 31.7512L110.598 31.8361L111.423 31.921L112.247 32.0059L113.067 32.0908L113.886 32.1758L114.702 32.2607L115.515 32.3456L116.326 32.4305L117.134 32.5155L117.939 32.6004L118.741 32.6853L119.541 32.7702L120.337 32.8552L121.13 32.9401L121.92 33.025L122.707 33.1099L123.49 33.1949L124.269 33.2798L125.046 33.3647L125.818 33.4496L126.587 33.5346L127.352 33.6195L128.113 33.7044L128.87 33.7893L129.624 33.8743L130.373 33.9592L131.118 34.0441L131.858 34.129L132.595 34.214L133.327 34.2989L134.054 34.3838L134.777 34.4687L135.496 34.5537L136.209 34.6386L136.918 34.7235L137.622 34.8084L138.321 34.8934L139.015 34.9783L139.705 35.0632L140.389 35.1481L141.067 35.233L141.741 35.318L142.409 35.4029L143.072 35.4878L143.729 35.5727L144.381 35.6577L145.027 35.7426L145.668 35.8275L146.303 35.9124L146.932 35.9974L147.555 36.0823L148.172 36.1672L148.783 36.2521L149.389 36.3371L149.988 36.422L150.581 36.5069L151.167 36.5918L151.748 36.6768L152.322 36.7617L152.889 36.8466L153.45 36.9315L154.005 37.0165L154.553 37.1014L155.095 37.1863L155.629 37.2712L156.157 37.3562L156.678 37.4411L157.193 37.526L157.7 37.6109L158.201 37.6959L158.694 37.7808L159.181 37.8657L159.66 37.9506L160.132 38.0355L160.597 38.1205L161.055 38.2054L161.505 38.2903L161.948 38.3752L162.384 38.4602L162.812 38.5451L163.232 38.63L163.646 38.7149L164.051 38.7999L164.449 38.8848L164.84 38.9697L165.222 39.0546L165.597 39.1396L165.964 39.2245L166.324 39.3094L166.675 39.3943L167.019 39.4793L167.355 39.5642L167.683 39.6491L168.002 39.734L168.314 39.819L168.618 39.9039L168.914 39.9888L169.201 40.0737L169.481 40.1587L169.752 40.2436L170.015 40.3285L170.27 40.4134L170.517 40.4984L170.755 40.5833L170.986 40.6682L171.207 40.7531L171.421 40.838L171.626 40.923L171.823 41.0079L172.011 41.0928L172.191 41.1777L172.362 41.2627L172.526 41.3476L172.68 41.4325L172.826 41.5174L172.964 41.6024L173.093 41.6873L173.213 41.7722L173.325 41.8571L173.429 41.9421L173.524 42.027L173.61 42.1119L173.688 42.1968L173.757 42.2818L173.817 42.3667L173.869 42.4516L173.913 42.5365L173.947 42.6215L173.973 42.7064L173.991 42.7913L174 42.8762L174 42.9612L173.991 43.0461L173.974 43.131L173.949 43.2159L173.915 43.3009L173.872 43.3858L173.82 43.4707L173.76 43.5556L173.691 43.6406L173.614 43.7255L173.528 43.8104L173.434 43.8953L173.331 43.9802L173.219 44.0652L173.099 44.1501L172.971 44.235L172.834 44.3199L172.688 44.4049L172.534 44.4898L172.371 44.5747L172.2 44.6596L172.021 44.7446L171.833 44.8295L171.637 44.9144L171.432 44.9993L171.219 45.0843L170.998 45.1692L170.768 45.2541L170.53 45.339L170.284 45.424L170.029 45.5089L169.766 45.5938L169.496 45.6787L169.216 45.7637L168.929 45.8486L168.634 45.9335L168.331 46.0184L168.019 46.1034L167.7 46.1883L167.372 46.2732L167.037 46.3581L166.694 46.4431L166.343 46.528L165.984 46.6129L165.617 46.6978L165.242 46.7827L164.86 46.8677L164.47 46.9526L164.073 47.0375L163.667 47.1224L163.255 47.2074L162.834 47.2923L162.406 47.3772L161.971 47.4621L161.529 47.5471L161.079 47.632L160.621 47.7169L160.157 47.8018L159.685 47.8868L159.206 47.9717L158.72 48.0566L158.227 48.1415L157.727 48.2265L157.22 48.3114L156.706 48.3963L156.185 48.4812L155.657 48.5662L155.123 48.6511L154.582 48.736L154.034 48.8209L153.48 48.9059L152.919 48.9908L152.352 49.0757L151.778 49.1606L151.198 49.2456L150.612 49.3305L150.019 49.4154L149.42 49.5003L148.816 49.5853L148.205 49.6702L147.588 49.7551L146.965 49.84L146.336 49.925L145.702 50.0099L145.061 50.0948L144.415 50.1797L143.764 50.2646L143.107 50.3496L142.444 50.4345L141.776 50.5194L141.103 50.6043L140.425 50.6893L139.741 50.7742L139.052 50.8591L138.358 50.944L137.659 51.029L136.956 51.1139L136.247 51.1988L135.534 51.2837L134.815 51.3687L134.093 51.4536L133.365 51.5385L132.634 51.6234L131.897 51.7084L131.157 51.7933L130.412 51.8782L129.663 51.9631L128.91 52.0481L128.153 52.133L127.392 52.2179L126.628 52.3028L125.859 52.3878L125.087 52.4727L124.311 52.5576L123.531 52.6425L122.748 52.7275L121.962 52.8124L121.172 52.8973L120.379 52.9822L119.583 53.0671L118.784 53.1521L117.982 53.237L117.177 53.3219L116.369 53.4068L115.558 53.4918L114.745 53.5767L113.929 53.6616L113.111 53.7465L112.29 53.8315L111.467 53.9164L110.642 54.0013L109.814 54.0862L108.985 54.1712L108.153 54.2561L107.32 54.341L106.485 54.4259L105.648 54.5109L104.809 54.5958L103.969 54.6807L103.127 54.7656L102.284 54.8506L101.44 54.9355L100.594 55.0204L99.7474 55.1053L98.8997 55.1903L98.051 55.2752L97.2014 55.3601L96.351 55.445L95.4999 55.53L94.6483 55.6149L93.7961 55.6998L92.9434 55.7847L92.0904 55.8696L91.2372 55.9546L90.3837 56.0395L89.5302 56.1244L88.6767 56.2093L87.8232 56.2943L86.9699 56.3792L86.1169 56.4641L85.2643 56.549L84.412 56.634L83.5603 56.7189L82.7092 56.8038L81.8588 56.8887L81.0091 56.9737L80.1603 57.0586L79.3125 57.1435L78.4657 57.2284L77.6201 57.3134L76.7756 57.3983L75.9325 57.4832L75.0907 57.5681L74.2504 57.6531L73.4117 57.738L72.5746 57.8229L71.7392 57.9078L70.9057 57.9928L70.074 58.0777L69.2443 58.1626L68.4167 58.2475L67.5913 58.3325L66.768 58.4174L65.9471 58.5023L65.1286 58.5872L64.3126 58.6722L63.4992 58.7571L62.6884 58.842L61.8803 58.9269L61.0751 59.0118L60.2727 59.0968L59.4734 59.1817L58.6771 59.2666L57.8839 59.3515L57.094 59.4365L56.3074 59.5214L55.5242 59.6063L54.7444 59.6912L53.9682 59.7762L53.1956 59.8611L52.4267 59.946L51.6616 60.0309L50.9004 60.1159L50.1431 60.2008L49.3898 60.2857L48.6406 60.3706L47.8956 60.4556L47.1548 60.5405L46.4183 60.6254L45.6862 60.7103L44.9586 60.7953L44.2356 60.8802L43.5171 60.9651L42.8034 61.05L42.0944 61.135L41.3903 61.2199L40.6911 61.3048L39.9968 61.3897L39.3076 61.4747L38.6235 61.5596L37.9446 61.6445L37.271 61.7294L36.6027 61.8143L35.9398 61.8993L35.2824 61.9842L34.6304 62.0691L33.9841 62.154L33.3435 62.239L32.7086 62.3239L32.0794 62.4088L31.4562 62.4937L30.8388 62.5787L30.2275 62.6636L29.6222 62.7485L29.023 62.8334L28.43 62.9184L27.8432 63.0033L27.2627 63.0882L26.6885 63.1731L26.1208 63.2581L25.5595 63.343L25.0047 63.4279L24.4565 63.5128L23.915 63.5978L23.3802 63.6827L22.852 63.7676L22.3308 63.8525L21.8163 63.9375L21.3088 64.0224L20.8082 64.1073L20.3146 64.1922L19.8281 64.2772L19.3487 64.3621L18.8764 64.447L18.4114 64.5319L17.9536 64.6168L17.5031 64.7018L17.0599 64.7867L16.6242 64.8716L16.1959 64.9566L15.775 65.0415L15.3617 65.1264L14.9559 65.2113L14.5578 65.2962L14.1673 65.3812L13.7845 65.4661L13.4094 65.551L13.042 65.6359L12.6825 65.7209L12.3308 65.8058L11.987 65.8907L11.6511 65.9756L11.3231 66.0606L11.0031 66.1455L10.6912 66.2304L10.3872 66.3153L10.0914 66.4003L9.80359 66.4852L9.52397 66.5701L9.25249 66.655L8.98921 66.74L8.73413 66.8249L8.48731 66.9098L8.24873 66.9947L8.01846 67.0797L7.79649 67.1646L7.58287 67.2495L7.3776 67.3344L7.18071 67.4194L6.99223 67.5043L6.81216 67.5892L6.64052 67.6741L6.47733 67.7591L6.32262 67.844L6.1764 67.9289L6.03868 68.0138L5.90947 68.0987L5.7888 68.1837L5.67666 68.2686L5.57307 68.3535L5.47806 68.4384L5.3916 68.5234L5.31374 68.6083L5.24446 68.6932L5.18378 68.7781L5.13171 68.8631L5.08824 68.948L5.05337 69.0329L5.02713 69.1178L5.00952 69.2028L5.00051 69.2877L5.00013 69.3726L5.00837 69.4575L5.02522 69.5425L5.0507 69.6274L5.0848 69.7123L5.12752 69.7972L5.17883 69.8822L5.23875 69.9671L5.30727 70.052L5.38438 70.1369L5.47007 70.2219L5.56433 70.3068L5.66716 70.3917L5.77855 70.4766L5.89847 70.5616L6.02692 70.6465L6.16389 70.7314L6.30936 70.8163L6.46332 70.9012L6.62575 70.9862L6.79664 71.0711L6.97598 71.156L7.16372 71.2409L7.35987 71.3259L7.56439 71.4108L7.77728 71.4957L7.99851 71.5806L8.22804 71.6656L8.46588 71.7505L8.71198 71.8354L8.96634 71.9203L9.2289 72.0053L9.49964 72.0902L9.77856 72.1751L10.0656 72.26L10.3608 72.345L10.664 72.4299L10.9752 72.5148L11.2945 72.5997L11.6218 72.6847L11.957 72.7696L12.3001 72.8545L12.6511 72.9394L13.01 73.0244L13.3766 73.1093L13.751 73.1942L14.1331 73.2791L14.523 73.3641L14.9204 73.449L15.3255 73.5339L15.7382 73.6188L16.1584 73.7038L16.586 73.7887L17.0211 73.8736L17.4636 73.9585L17.9135 74.0434L18.3706 74.1284L18.835 74.2133L19.3066 74.2982L19.7854 74.3831L20.2713 74.4681L20.7643 74.553L21.2642 74.6379L21.7712 74.7228L22.285 74.8078L22.8057 74.8927L23.3332 74.9776L23.8675 75.0625L24.4084 75.1475L24.956 75.2324L25.5102 75.3173L26.0709 75.4022L26.6381 75.4872L27.2117 75.5721L27.7916 75.657L28.3779 75.7419L28.9703 75.8269L29.569 75.9118L30.1738 75.9967L30.7846 76.0816L31.4014 76.1666L32.0241 76.2515L32.6527 76.3364L33.2872 76.4213L33.9273 76.5063L34.5731 76.5912L35.2245 76.6761L35.8815 76.761L36.5439 76.8459L37.2117 76.9309L37.8849 77.0158L38.5633 77.1007L39.2469 77.1856L39.9357 77.2706L40.6295 77.3555L41.3283 77.4404L42.032 77.5253L42.7406 77.6103L43.4539 77.6952L44.1719 77.7801L44.8946 77.865L45.6218 77.95L46.3534 78.0349L47.0895 78.1198L47.8299 78.2047L48.5746 78.2897L49.3234 78.3746L50.0763 78.4595L50.8333 78.5444L51.5942 78.6294L52.359 78.7143L53.1275 78.7992L53.8998 78.8841L54.6757 78.9691L55.4551 79.054L56.2381 79.1389L57.0244 79.2238L57.814 79.3088L58.6069 79.3937L59.4029 79.4786L60.202 79.5635L61.0041 79.6484L61.8091 79.7334L62.6169 79.8183L63.4274 79.9032L64.2406 79.9881L65.0564 80.0731L65.8747 80.158L66.6954 80.2429L67.5184 80.3278L68.3437 80.4128L69.1711 80.4977L70.0006 80.5826L70.8321 80.6675L71.6655 80.7525L72.5007 80.8374L73.3377 80.9223L74.1762 81.0072L75.0164 81.0922L75.858 81.1771L76.7011 81.262L77.5454 81.3469L78.391 81.4319L79.2376 81.5168L80.0854 81.6017L80.9341 81.6866L81.7836 81.7716L82.634 81.8565L83.4851 81.9414L84.3367 82.0263L85.1889 82.1113L86.0416 82.1962L86.8946 82.2811L87.7478 82.366L88.6012 82.451L89.4548 82.5359L90.3083 82.6208L91.1618 82.7057L92.015 82.7907L92.8681 82.8756L93.7207 82.9605L94.573 83.0454L95.4247 83.1303L96.2758 83.2153L97.1263 83.3002L97.9759 83.3851L98.8247 83.47L99.6726 83.555L100.519 83.6399L101.365 83.7248L102.21 83.8097L103.053 83.8947L103.894 83.9796L104.735 84.0645L105.574 84.1494L106.411 84.2344L107.246 84.3193L108.08 84.4042L108.911 84.4891L109.741 84.5741L110.569 84.659L111.394 84.7439L112.217 84.8288L113.038 84.9138L113.857 84.9987L114.673 85.0836L115.487 85.1685L116.297 85.2535L117.105 85.3384L117.911 85.4233L118.713 85.5082L119.513 85.5931L120.309 85.6781L121.102 85.763L121.892 85.8479L122.679 85.9329L123.462 86.0178L124.242 86.1027L125.018 86.1876L125.791 86.2725L126.56 86.3575L127.325 86.4424L128.086 86.5273L128.844 86.6122L129.597 86.6972L130.346 86.7821L131.091 86.867L131.832 86.9519L132.569 87.0369L133.301 87.1218L134.029 87.2067L134.752 87.2916L135.47 87.3766L136.184 87.4615L136.893 87.5464L137.597 87.6313L138.297 87.7163L138.991 87.8012L139.68 87.8861L140.364 87.971L141.043 88.056L141.717 88.1409L142.386 88.2258L143.049 88.3107L143.706 88.3957L144.358 88.4806L145.005 88.5655L145.645 88.6504L146.28 88.7354L146.91 88.8203L147.533 88.9052L148.15 88.9901L148.762 89.075L149.367 89.16L149.967 89.2449L150.56 89.3298L151.147 89.4147L151.727 89.4997L152.301 89.5846L152.869 89.6695L153.431 89.7544L153.986 89.8394L154.534 89.9243L155.076 90.0092L155.611 90.0941L156.139 90.1791L156.66 90.264L157.175 90.3489L157.682 90.4338L158.183 90.5188L158.677 90.6037L159.163 90.6886L159.643 90.7735L160.115 90.8585L160.581 90.9434L161.038 91.0283L161.489 91.1132L161.932 91.1982L162.368 91.2831L162.797 91.368L163.218 91.4529L163.631 91.5379L164.037 91.6228L164.435 91.7077L164.826 91.7926L165.209 91.8776L165.584 91.9625L165.952 92.0474L166.311 92.1323L166.663 92.2172L167.007 92.3022L167.343 92.3871L167.671 92.472L167.991 92.5569L168.303 92.6419L168.608 92.7268L168.904 92.8117L169.191 92.8966L169.471 92.9816L169.743 93.0665L170.006 93.1514L170.261 93.2363L170.508 93.3213L170.747 93.4062L170.978 93.4911L171.2 93.576L171.413 93.661L171.619 93.7459L171.816 93.8308L172.005 93.9157L172.185 94.0007L172.357 94.0856L172.52 94.1705L172.675 94.2554L172.821 94.3404L172.959 94.4253L173.088 94.5102L173.209 94.5951L173.321 94.68L173.425 94.765L173.52 94.8499L173.607 94.9348L173.685 95.0197L173.754 95.1047L173.815 95.1896L173.868 95.2745L173.911 95.3594L173.946 95.4444L173.973 95.5293L173.99 95.6142L173.999 95.6991L174 95.7841L173.992 95.869L173.975 95.9539L173.95 96.0388L173.916 96.1238L173.873 96.2087L173.822 96.2936L173.762 96.3785L173.694 96.4635L173.617 96.5484L173.532 96.6333L173.437 96.7182L173.335 96.8032L173.224 96.8881L173.104 96.973L172.975 97.0579L172.839 97.1429L172.693 97.2278L172.54 97.3127L172.377 97.3976L172.207 97.4826L172.027 97.5675L171.84 97.6524L171.644 97.7373L171.439 97.8223L171.227 97.9072L171.006 97.9921L170.776 98.077L170.538 98.1619L170.292 98.2469L170.038 98.3318L169.776 98.4167L169.505 98.5016L169.227 98.5866L168.94 98.6715L168.645 98.7564L168.342 98.8413L168.03 98.9263L167.711 99.0112L167.384 99.0961L167.049 99.181L166.706 99.266L166.355 99.3509L165.997 99.4358L165.63 99.5207L165.256 99.6057L164.874 99.6906L164.484 99.7755L164.087 99.8604L163.682 99.9454L163.269 100.03L162.849 100.115L162.422 100.2L161.987 100.285L161.544 100.37L161.095 100.455L160.638 100.54L160.173 100.625L159.702 100.71L159.223 100.795L158.737 100.88L158.245 100.964L157.745 101.049L157.238 101.134L156.724 101.219L156.204 101.304L155.676 101.389L155.142 101.474L154.601 101.559L154.054 101.644L153.5 101.729L152.939 101.814L152.372 101.899L151.799 101.984L151.219 102.068L150.633 102.153L150.04 102.238L149.442 102.323L148.837 102.408L148.226 102.493L147.61 102.578L146.987 102.663L146.358 102.748L145.724 102.833L145.084 102.918L144.438 103.003L143.787 103.088L143.13 103.172L142.468 103.257L141.8 103.342L141.127 103.427L140.449 103.512L139.765 103.597L139.077 103.682L138.383 103.767L137.684 103.852L136.981 103.937L136.272 104.022L135.559 104.107L134.841 104.192L134.118 104.276L133.391 104.361L132.66 104.446L131.924 104.531L131.183 104.616L130.439 104.701L129.69 104.786L128.937 104.871L128.18 104.956L127.419 105.041L126.655 105.126L125.886 105.211L125.114 105.296L124.338 105.381L123.559 105.465L122.776 105.55L121.99 105.635L121.2 105.72L120.407 105.805L119.611 105.89L118.812 105.975L118.01 106.06L117.205 106.145L116.397 106.23L115.587 106.315L114.774 106.4L113.958 106.485L113.14 106.569L112.319 106.654L111.496 106.739L110.671 106.824L109.844 106.909L109.014 106.994L108.183 107.079L107.349 107.164L106.514 107.249L105.677 107.334L104.839 107.419L103.999 107.504L103.157 107.589L102.314 107.673L101.47 107.758L100.624 107.843L99.7774 107.928L98.9297 108.013L98.081 108.098L97.2314 108.183L96.3811 108.268L95.53 108.353L94.6784 108.438L93.8262 108.523L92.9736 108.608L92.1206 108.693L91.2673 108.777L90.4139 108.862L89.5604 108.947L88.7068 109.032L87.8534 109.117L87.0001 109.202L86.1471 109.287L85.2944 109.372L84.4421 109.457L83.5904 109.542L82.7392 109.627L81.8888 109.712L81.0391 109.797L80.1903 109.882L79.3425 109.966L78.4956 110.051L77.6499 110.136L76.8055 110.221L75.9623 110.306L75.1205 110.391L74.2801 110.476L73.4413 110.561L72.6042 110.646L71.7687 110.731L70.9351 110.816L70.1034 110.901L69.2736 110.986L68.4459 111.07L67.6204 111.155L66.7971 111.24L65.9761 111.325L65.1575 111.41L64.3414 111.495L63.5279 111.58L62.717 111.665L61.9088 111.75L61.1035 111.835L60.3011 111.92L59.5016 112.005L58.7052 112.09L57.9119 112.174L57.1219 112.259L56.3352 112.344L55.5518 112.429L54.7719 112.514L53.9956 112.599L53.2229 112.684L52.4538 112.769L51.6886 112.854L50.9272 112.939L50.1698 113.024L49.4163 113.109L48.667 113.194L47.9218 113.278L47.1809 113.363L46.4443 113.448L45.712 113.533L44.9843 113.618L44.2611 113.703L43.5425 113.788L42.8286 113.873L42.1194 113.958L41.4151 114.043L40.7157 114.128L40.0213 114.213L39.3319 114.298L38.6476 114.382L37.9685 114.467L37.2947 114.552L36.6262 114.637L35.9631 114.722L35.3055 114.807L34.6534 114.892L34.0069 114.977L33.366 115.062L32.7309 115.147L32.1016 115.232L31.4781 115.317L30.8606 115.402L30.249 115.487L29.6435 115.571L29.0441 115.656L28.4508 115.741L27.8638 115.826L27.2831 115.911L26.7087 115.996L26.1407 116.081L25.5792 116.166L25.0242 116.251L24.4758 116.336L23.934 116.421L23.3989 116.506L22.8706 116.591L22.3491 116.675L21.8344 116.76L21.3266 116.845L20.8257 116.93L20.3319 117.015L19.8452 117.1L19.3655 117.185L18.893 117.27L18.4277 117.355L17.9696 117.44L17.5189 117.525L17.0755 117.61L16.6394 117.695L16.2109 117.779L15.7897 117.864L15.3762 117.949L14.9701 118.034L14.5717 118.119L14.181 118.204L13.7979 118.289L13.4225 118.374L13.0549 118.459L12.6951 118.544L12.3431 118.629L11.999 118.714L11.6628 118.799L11.3346 118.883L11.0143 118.968L10.7021 119.053L10.3978 119.138L10.1017 119.223L9.81363 119.308L9.53371 119.393L9.26195 119.478L8.99837 119.563L8.743 119.648L8.49588 119.733L8.25703 119.818L8.02646 119.903L7.8042 119.987L7.59028 120.072L7.38472 120.157L7.18754 120.242L6.99874 120.327L6.81838 120.412L6.64644 120.497L6.48296 120.582L6.32796 120.667L6.18142 120.752L6.04341 120.837L5.91389 120.922L5.79291 121.007L5.68048 121.092L5.57659 121.176L5.48127 121.261L5.39452 121.346L5.31634 121.431L5.24676 121.516L5.18579 121.601L5.1334 121.686L5.08962 121.771L5.05446 121.856L5.02791 121.941L5.00999 122.026L5.00068 122.111L5 122.196L5.00793 122.28L5.02449 122.365L5.04966 122.45L5.08345 122.535L5.12586 122.62L5.17687 122.705L5.23649 122.79L5.3047 122.875L5.38151 122.96L5.4669 123.045L5.56086 123.13L5.66339 123.215L5.77447 123.3L5.89409 123.384L6.02223 123.469L6.15891 123.554L6.30408 123.639L6.45773 123.724L6.61987 123.809L6.79047 123.894L6.96949 123.979L7.15695 124.064L7.3528 124.149L7.55702 124.234L7.76961 124.319L7.99055 124.404L8.21979 124.488L8.45733 124.573L8.70314 124.658L8.9572 124.743L9.21947 124.828L9.48993 124.913L9.76857 124.998L10.0553 125.083L10.3502 125.168L10.6531 125.253L10.9641 125.338L11.2831 125.423L11.6101 125.508L11.945 125.592L12.2879 125.677L12.6386 125.762L12.9971 125.847L13.3635 125.932L13.7376 126.017L14.1195 126.102L14.5091 126.187L14.9063 126.272L15.3111 126.357L15.7235 126.442L16.1434 126.527L16.5708 126.612L17.0056 126.697L17.4479 126.781L17.8975 126.866L18.3543 126.951L18.8185 127.036L19.2898 127.121L19.7684 127.206L20.254 127.291L20.7467 127.376L21.2464 127.461L21.7531 127.546L22.2667 127.631L22.7872 127.716L23.3145 127.801L23.8485 127.885L24.3892 127.97L24.9366 128.055L25.4905 128.14L26.051 128.225L26.6179 128.31L27.1913 128.395L27.771 128.48L28.357 128.565L28.9493 128.65L29.5477 128.735L30.1523 128.82L30.7629 128.905L31.3795 128.989L32.002 129.074L32.6304 129.159L33.2646 129.244L33.9046 129.329L34.5502 129.414L35.2014 129.499L35.8582 129.584L36.5204 129.669L37.188 129.754L37.861 129.839L38.5393 129.924L39.2227 130.009L39.9113 130.093L40.6049 130.178L41.3035 130.263L42.0071 130.348L42.7154 130.433L43.4286 130.518L44.1465 130.603L44.8689 130.688L45.596 130.773L46.3275 130.858L47.0634 130.943L47.8037 131.028L48.5482 131.113L49.2969 131.197L50.0497 131.282L50.8065 131.367L51.5672 131.452L52.3319 131.537L53.1003 131.622L53.8724 131.707L54.6482 131.792L55.4275 131.877L56.2103 131.962L56.9965 132.047L57.7861 132.132L58.5788 132.217L59.3747 132.302L60.1737 132.386L60.9757 132.471L61.7806 132.556L62.5883 132.641L63.3987 132.726L64.2118 132.811L65.0275 132.896L65.8458 132.981L66.6664 133.066L67.4893 133.151L68.3145 133.236L69.1418 133.321L69.9713 133.406L70.8027 133.49L71.636 133.575L72.4712 133.66L73.308 133.745L74.1466 133.83L74.9867 133.915L75.8283 134" stroke="white" stroke-width="10" stroke-miterlimit="10" stroke-linecap="round" stroke-linejoin="round"/>
</svg>
