<svg version="1.1" xmlns="http://www.w3.org/2000/svg" xmlns:xlink="http://www.w3.org/1999/xlink" width="1560" height="804"><defs/><g><path fill="none" stroke="#02063B" paint-order="fill stroke markers" d=" M 20 481.75296222314853 L 21 485.66476174179115 L 22 489.5655077737629 L 23 493.45468496656196 L 24 497.33177949612 L 25 501.1962791346866 L 26 505.0476733185027 L 27 508.8854532152548 L 28 512.7091117913001 L 29 516.5181438786533 L 30 520.3120462417286 L 31 524.0903176438245 L 32 527.8524589133458 L 33 531.5979730097522 L 34 535.3263650892256 L 35 539.0371425700473 L 36 542.7298151976752 L 37 546.4038951095158 L 38 550.0588968993779 L 39 553.694337681603 L 40 557.3097371548623 L 41 560.9046176656127 L 42 564.4785042712024 L 43 568.0309248026184 L 44 571.5614099268685 L 45 575.0694932089867 L 46 578.5547111736585 L 47 582.016603366452 L 48 585.4547124146525 L 49 588.8685840876884 L 50 592.257767357143 L 51 595.6218144563425 L 52 598.9602809395126 L 53 602.2727257404988 L 54 605.5587112310366 L 55 608.8178032785704 L 56 612.0495713036098 L 57 615.2535883366152 L 58 618.429431074408 L 59 621.5766799360962 L 60 624.6949191185075 L 61 627.783736651124 L 62 630.8427244505095 L 63 633.8714783742254 L 64 636.8695982742232 L 65 639.8366880497114 L 66 642.7723556994865 L 67 645.6762133737232 L 68 648.5478774252152 L 69 651.3869684600618 L 70 654.1931113877918 L 71 656.9659354709188 L 72 659.7050743739225 L 73 662.4101662116466 L 74 665.0808535971111 L 75 667.7167836887272 L 76 670.3176082369152 L 77 672.8829836301131 L 78 675.4125709401732 L 79 677.9060359671403 L 80 680.3630492834053 L 81 682.7832862772275 L 82 685.1664271956213 L 83 687.5121571866009 L 84 689.8201663407775 L 85 692.090149732303 L 86 694.3218074591559 L 87 696.5148446827639 L 88 698.6689716669555 L 89 700.7839038162402 L 90 702.8593617134081 L 91 704.8950711564446 L 92 706.8907631947578 L 93 708.846174164711 L 94 710.7610457244571 L 95 712.6351248880694 L 96 714.4681640589658 L 97 716.2599210626203 L 98 718.0101591785574 L 99 719.7186471716277 L 100 721.3851593225575 L 101 723.0094754577698 L 102 724.5913809784734 L 103 726.1306668890145 L 104 727.6271298244883 L 105 729.0805720776073 L 106 730.4908016248212 L 107 731.8576321516867 L 108 733.180883077483 L 109 734.4603795790686 L 110 735.6959526139785 L 111 736.8874389427588 L 112 738.034681150531 L 113 739.1375276677915 L 114 740.1958327904342 L 115 741.2094566990022 L 116 742.1782654771595 L 117 743.102131129383 L 118 743.9809315978738 L 119 744.8145507786826 L 120 745.6028785370486 L 121 746.3458107219509 L 122 747.0432491798676 L 123 747.6951017677445 L 124 748.3012823651679 L 125 748.8617108857425 L 126 749.3763132876732 L 127 749.8450215835455 L 128 750.2677738493098 L 129 750.6445142324608 L 130 750.9751929594172 L 131 751.2597663420981 L 132 751.4981967836941 L 133 751.6904527836349 L 134 751.8365089417509 L 135 751.9363459616293 L 136 751.9899506531629 L 137 751.9973159342928 L 138 751.958440831945 L 139 751.8733304821578 L 140 751.7419961294038 L 141 751.5644551251039 L 142 751.3407309253357 L 143 751.0708530877337 L 144 750.754857267585 L 145 750.3927852131178 L 146 749.9846847599865 L 147 749.5306098249519 L 148 749.0306203987568 L 149 748.4847825382018 L 150 747.8931683574169 L 151 747.2558560183348 L 152 746.5729297203638 L 153 745.8444796892641 L 154 745.0706021652275 L 155 744.2513993901621 L 156 743.3869795941852 L 157 742.4774569813234 L 158 741.5229517144251 L 159 740.5235898992848 L 160 739.4795035679823 L 161 738.3908306614392 L 162 737.2577150111949 L 163 736.0803063204037 L 164 734.8587601440565 L 165 733.59323786843 L 166 732.2839066897645 L 167 730.9309395921746 L 168 729.5345153247952 L 169 728.0948183781654 L 170 726.6120389598555 L 171 725.0863729693358 L 172 723.5180219720963 L 173 721.9071931730163 L 174 720.2540993889886 L 175 718.558959020804 L 176 716.8219960242961 L 177 715.0434398807538 L 178 713.2235255666016 L 179 711.3624935223575 L 180 709.4605896208651 L 181 707.5180651348109 L 182 705.5351767035258 L 183 703.5121862990807 L 184 701.4493611916735 L 185 699.3469739143202 L 186 697.2053022268478 L 187 695.0246290791978 L 188 692.8052425740442 L 189 690.5474359287301 L 190 688.2515074365292 L 191 685.9177604272359 L 192 683.5465032270906 L 193 681.1380491180453 L 194 678.6927162963734 L 195 676.2108278306307 L 196 673.6927116189727 L 197 671.1387003458343 L 198 668.5491314379767 L 199 665.9243470199075 L 200 663.2646938686803 L 201 660.5705233680801 L 202 657.8421914621996 L 203 655.0800586084135 L 204 652.2844897297558 L 205 649.4558541667071 L 206 646.5945256283995 L 207 643.7008821432432 L 208 640.7753060089824 L 209 637.818183742188 L 210 634.829906027192 L 211 631.8108676644721 L 212 628.7614675184915 L 213 625.6821084650032 L 214 622.5731973378228 L 215 619.4351448750791 L 216 616.2683656649497 L 217 613.0732780908859 L 218 609.8503042763383 L 219 606.5998700289869 L 220 603.322404784485 L 221 600.0183415497243 L 222 596.6881168456263 L 223 593.3321706494721 L 224 589.9509463367733 L 225 586.5448906226952 L 226 583.1144535030385 L 227 579.660088194787 L 228 576.1822510762304 L 229 572.6814016266699 L 230 569.1580023657125 L 231 565.612518792165 L 232 562.0454193225341 L 233 558.4571752291406 L 234 554.8482605778569 L 235 551.2191521654748 L 236 547.5703294567134 L 237 543.9022745208728 L 238 540.2154719681463 L 239 536.5104088855946 L 240 532.7875747727937 L 241 529.0474614771641 L 242 525.2905631289892 L 243 521.5173760761338 L 244 517.728398818467 L 245 513.9241319420032 L 246 510.10507805276575 L 247 506.2717417103852 L 248 502.424629361438 L 249 498.5642492725372 L 250 494.6911114631818 L 251 490.8057276383744 L 252 486.90861112101743 L 253 483.0002767840943 L 254 479.08124098264614 L 255 475.15202148555335 L 256 471.2131374071288 L 257 467.2651091385357 L 258 463.3084582790343 L 259 459.34370756707085 L 260 455.37138081121424 L 261 451.3920028209535 L 262 447.4060993373613 L 263 443.4141969636348 L 264 439.4168230955231 L 265 435.4145058516489 L 266 431.4077740037365 L 267 427.39715690675143 L 268 423.3831844289646 L 269 419.3663868819472 L 270 415.3472949505089 L 271 411.3264396225849 L 272 407.3043521190842 L 273 403.2815638237063 L 274 399.2586062127364 L 275 395.2360107848298 L 276 391.2143089907909 L 277 387.19403216336076 L 278 383.1757114470189 L 279 379.15987772781017 L 280 375.14706156320676 L 281 371.1377931120123 L 282 367.13260206431937 L 283 363.1320175715283 L 284 359.1365681764385 L 285 355.1467817434186 L 286 351.1631853886671 L 287 347.1863054105718 L 288 343.2166672201765 L 289 339.2547952717668 L 290 335.3012129935801 L 291 331.35644271865266 L 292 327.4210056158101 L 293 323.49542162081354 L 294 319.5802093676669 L 295 315.67588612009683 L 296 311.782967703214 L 297 307.9019684353637 L 298 304.03340106017646 L 299 300.1777766788259 L 300 296.33560468250414 L 301 292.5073926851221 L 302 288.6936464562467 L 303 284.89486985427925 L 304 281.11156475988815 L 305 277.34423100970196 L 306 273.5933663302725 L 307 269.85946627231766 L 308 266.1430241452507 L 309 262.44453095200606 L 310 258.76447532416967 L 311 255.10334345742243 L 312 251.46161904730673 L 313 247.83978322532147 L 314 244.2383144953572 L 315 240.65768867047726 L 316 237.09837881005598 L 317 233.5608551572791 L 318 230.04558507701725 L 319 226.55303299407933 L 320 223.08366033185405 L 321 219.63792545134893 L 322 216.21628359063294 L 323 212.81918680469218 L 324 209.44708390570568 L 325 206.10042040375052 L 326 202.7796384479424 L 327 199.48517676802027 L 328 196.21747061638337 L 329 192.97695171058658 L 330 189.76404817630427 L 331 186.57918449076743 L 332 183.42278142668331 L 333 180.29525599664433 L 334 177.1970213980341 L 335 174.12848695843726 L 336 171.09005808156047 L 337 168.08213619367214 L 338 165.10511869056685 L 339 162.15939888506372 L 340 159.24536595504281 L 341 156.36340489202829 L 342 153.51389645032515 L 343 150.6972170967147 L 344 147.91373896071775 L 345 145.16382978542998 L 346 142.44785287893694 L 347 139.766167066315 L 348 137.11912664222513 L 349 134.50708132410438 L 350 131.9303762059622 L 351 129.3893517127891 L 352 126.88434355557905 L 353 124.41568268697853 L 354 121.9836952575605 L 355 119.5887025727356 L 356 117.23102105030273 L 357 114.91096217864356 L 358 112.62883247557176 L 359 110.38493344783541 L 360 108.17956155128354 L 361 106.01300815170003 L 362 103.88555948630852 L 363 101.797496625956 L 364 99.74909543797958 L 365 97.7406265497583 L 366 95.7723553129606 L 367 93.84454176848556 L 368 91.95744061210792 L 369 90.11130116082887 L 370 88.30636731993616 L 371 86.54287755078155 L 372 84.82106483927498 L 373 83.14115666510384 L 374 81.50337497167959 L 375 79.90793613681421 L 376 78.35505094413452 L 377 76.84492455523332 L 378 75.37775648256417 L 379 73.95374056308322 L 380 72.57306493263934 L 381 71.23591200111906 L 382 69.94245842834647 L 383 68.69287510074406 L 384 67.487327108756 L 385 66.32597372503619 L 386 65.20896838340644 L 387 64.13645865858535 L 388 63.10858624669072 L 389 62.12548694651974 L 390 61.187290641607376 L 391 60.294121283066715 L 392 59.44609687321332 L 393 58.643329449974544 L 394 57.885925072088014 L 395 57.17398380508939 L 396 56.5075997080919 L 397 55.88686082135996 L 398 55.31184915467702 L 399 54.782640676511505 L 400 54.299305303979395 L 401 53.861906893607454 L 402 53.470503232896704 L 403 53.12514603268755 L 404 52.82588092032819 L 405 52.57274743364616 L 406 52.36577901572508 L 407 52.205003010486166 L 408 52.09044065907557 L 409 52.02210709705804 L 410 52.00001135241746 L 411 52.02415634436392 L 412 52.09453888294814 L 413 52.21114966948289 L 414 52.373973297771556 L 415 52.582988256143324 L 416 52.838166930295586 L 417 53.1394756069418 L 418 53.48687447826609 L 419 53.880317647182096 L 420 54.31975313339689 L 421 54.80512288027836 L 422 55.33636276252554 L 423 55.91340259464056 L 424 56.536166140201374 L 425 57.20457112193361 L 426 57.918529232580966 L 427 58.67794614657214 L 428 59.482721532482344 L 429 60.33274906628941 L 430 61.22791644542008 L 431 62.16810540358773 L 432 63.153191726417276 L 433 64.18304526785516 L 434 65.2575299673648 L 435 66.37650386790153 L 436 67.53981913466811 L 437 68.74732207464592 L 438 69.99885315689994 L 439 71.29424703365606 L 440 72.63333256214571 L 441 74.01593282721689 L 442 75.44186516470762 L 443 76.91094118557845 L 444 78.42296680080239 L 445 79.97774224700646 L 446 81.57506211286454 L 447 83.21471536623523 L 448 84.8964853820421 L 449 86.62014997089432 L 450 88.3854814084412 L 451 90.19224646545774 L 452 92.04020643865914 L 453 93.92911718223627 L 454 95.85872914011219 L 455 97.82878737891224 L 456 99.83903162164472 L 457 101.88919628208839 L 458 103.97901049987979 L 459 106.10819817629948 L 460 108.27647801074835 L 461 110.48356353791212 L 462 112.72916316560884 L 463 115.01298021331178 L 464 117.334712951347 L 465 119.69405464075624 L 466 122.09069357382168 L 467 124.52431311524879 L 468 126.99459174399777 L 469 129.5012030957629 L 470 132.04381600609008 L 471 134.62209455412852 L 472 137.2356981070124 L 473 139.88428136486402 L 474 142.56749440641215 L 475 145.2849827352244 L 476 148.0363873265402 L 477 150.82134467470527 L 478 153.639486841196 L 479 156.49044150322968 L 480 159.3738320029558 L 481 162.28927739721706 L 482 165.23639250787974 L 483 168.21478797272135 L 484 171.22407029687116 L 485 174.2638419047988 L 486 177.33370119283876 L 487 180.43324258225041 L 488 183.56205657280094 L 489 186.71972979686623 L 490 189.90584507404506 L 491 193.1199814662747 L 492 196.36171433344293 L 493 199.63061538949188 L 494 202.9262527589993 L 495 206.24819103423866 L 496 209.59599133270228 L 497 212.96921135508467 L 498 216.36740544371898 L 499 219.79012464145384 L 500 223.23691675096953 L 501 226.70732639452012 L 502 230.2008950740954 L 503 233.71716123199795 L 504 237.2556603118202 L 505 240.81592481982196 L 506 244.39748438669307 L 507 247.9998658296962 L 508 251.62259321518397 L 509 255.26518792147525 L 510 258.92716870209097 L 511 262.60805174933375 L 512 266.3073507582062 L 513 270.02457699066133 L 514 273.7592393401718 L 515 277.5108443966126 L 516 281.2788965114506 L 517 285.06289786322543 L 518 288.8623485233218 L 519 292.67674652201765 L 520 296.50558791480137 L 521 300.3483668489536 L 522 304.204575630376 L 523 308.07370479066793 L 524 311.95524315443515 L 525 315.84867790682324 L 526 319.7534946612709 L 527 323.6691775274667 L 528 327.5952091795084 L 529 331.53107092424966 L 530 335.47624276982674 L 531 339.4302034943603 L 532 343.3924307148145 L 533 347.36240095601516 L 534 351.3395897198078 L 535 355.32347155435195 L 536 359.31352012354364 L 537 363.30920827655234 L 538 367.3100081174649 L 539 371.31539107503164 L 540 375.32482797249696 L 541 379.33778909751413 L 542 383.3537442721282 L 543 387.37216292282034 L 544 391.3925141506072 L 545 395.4142668011793 L 546 399.43688953507694 L 547 403.4598508978883 L 548 407.48261939046216 L 549 411.5046635391299 L 550 415.5254519659193 L 551 419.5444534587605 L 552 423.5611370416669 L 553 427.57497204488504 L 554 431.58542817500665 L 555 435.59197558502666 L 556 439.5940849443472 L 557 443.59122750870927 L 558 447.5828751900484 L 559 451.56850062626495 L 560 455.54757725089655 L 561 459.5195793626855 L 562 463.4839821950342 L 563 467.4402619853334 L 564 471.3878960441617 L 565 475.3263628243407 L 566 479.25514198983876 L 567 483.1737144845182 L 568 487.0815626007087 L 569 490.97817004760714 L 570 494.8630220194869 L 571 498.7356052637116 L 572 502.59540814854614 L 573 506.4419207307491 L 574 510.2746348229469 L 575 514.0930440607727 L 576 517.8966439697646 L 577 521.6849320320166 L 578 525.4574077525688 L 579 529.2135727255298 L 580 532.952930699927 L 581 536.6749876452661 L 582 540.3792518168036 L 583 544.065233820513 L 584 547.7324466777411 L 585 551.3804058895479 L 586 555.0086295007142 L 587 558.6166381634183 L 588 562.2039552005645 L 589 565.7701066687592 L 590 569.3146214209287 L 591 572.8370311685629 L 592 576.3368705435863 L 593 579.8136771598395 L 594 583.2669916741671 L 595 586.696357847107 L 596 590.1013226031642 L 597 593.4814360906722 L 598 596.8362517412238 L 599 600.1653263286707 L 600 603.4682200276814 L 601 606.7444964718491 L 602 609.993722811342 L 603 613.2154697700915 L 604 616.4093117025051 L 605 619.5748266497019 L 606 622.7115963952607 L 607 625.8192065204717 L 608 628.89724645909 L 609 631.9453095515762 L 610 634.9629930988244 L 611 637.9498984153648 L 612 640.9056308820357 L 613 643.8297999981207 L 614 646.722019432939 L 615 649.5819070768866 L 616 652.4090850919198 L 617 655.2031799614717 L 618 657.9638225398028 L 619 660.6906481007686 L 620 663.3832963860077 L 621 666.041411652537 L 622 668.664642719751 L 623 671.2526430158191 L 624 673.8050706234735 L 625 676.3215883251808 L 626 678.8018636476959 L 627 681.2455689059855 L 628 683.6523812465214 L 629 686.0219826899356 L 630 688.3540601730281 L 631 690.6483055901303 L 632 692.9044158338098 L 633 695.1220928349152 L 634 697.3010436019571 L 635 699.4409802598161 L 636 701.5416200877767 L 637 703.6026855568781 L 638 705.6239043665821 L 639 707.605009480747 L 640 709.5457391629076 L 641 711.4458370108558 L 642 713.3050519905146 L 643 715.1231384691041 L 644 716.899856247594 L 645 718.6349705924371 L 646 720.3282522665821 L 647 721.9794775597595 L 648 723.5884283180367 L 649 725.1548919726408 L 650 726.6786615680414 L 651 728.1595357892934 L 652 729.5973189886342 L 653 730.9918212113312 L 654 732.3428582207787 L 655 733.6502515228378 L 656 734.9138283894195 L 657 736.1334218813038 L 658 737.308870870196 L 659 738.4400200600135 L 660 739.5267200074036 L 661 740.5688271414876 L 662 741.5662037828281 L 663 742.5187181616191 L 664 743.4262444350952 L 665 744.2886627041573 L 666 745.1058590292132 L 667 745.8777254452307 L 668 746.6041599760017 L 669 747.2850666476152 L 670 747.9203555011369 L 671 748.5099426044939 L 672 749.0537500635637 L 673 749.5517060324656 L 674 750.0037447230525 L 675 750.4098064136022 L 676 750.7698374567083 L 677 751.0837902863673 L 678 751.3516234242634 L 679 751.5733014852482 L 680 751.7487951820153 L 681 751.8780813289704 L 682 751.961142845294 L 683 751.9979687571977 L 684 751.9885541993751 L 685 751.9329004156434 L 686 751.83101475878 L 687 751.6829106895507 L 688 751.4886077749306 L 689 751.2481316855208 L 690 750.9615141921549 L 691 750.6287931617029 L 692 750.2500125520676 L 693 749.8252224063775 L 694 749.3544788463751 L 695 748.8378440650022 L 696 748.2753863181836 L 697 747.6671799158088 L 698 747.0133052119147 L 699 746.3138485940697 L 700 745.5689024719604 L 701 744.7785652651826 L 702 743.9429413902384 L 703 743.0621412467414 L 704 742.1362812028306 L 705 741.1654835797973 L 706 740.149876635923 L 707 739.0895945495355 L 708 737.9847774012812 L 709 736.8355711556181 L 710 735.6421276415325 L 711 734.4046045324781 L 712 733.1231653255466 L 713 731.7979793198654 L 714 730.4292215942316 L 715 729.0170729839816 L 716 727.5617200570978 L 717 726.0633550895618 L 718 724.5221760399508 L 719 722.9383865232841 L 720 721.3121957841221 L 721 719.6438186689227 L 722 717.9334755976547 L 723 716.1813925346783 L 724 714.3878009588902 L 725 712.552937833143 L 726 710.6770455729377 L 727 708.7603720143957 L 728 706.8031703815175 L 729 704.8056992527257 L 730 702.7682225267041 L 731 700.6910093875322 L 732 698.5743342691203 L 733 696.4184768189534 L 734 694.2237218611451 L 735 691.9903593588067 L 736 689.7186843757406 L 737 687.4089970374548 L 738 685.0616024915129 L 739 682.6768108672186 L 740 680.254937234643 L 741 677.7963015629991 L 742 675.3012286783668 L 743 672.7700482207798 L 744 670.2030946006741 L 745 667.6007069547065 L 746 664.9632291009507 L 747 662.2910094934712 L 748 659.5844011762878 L 749 656.8437617367327 L 750 654.0694532582071 L 751 651.2618422723453 L 752 648.4212997105876 L 753 645.5482008551757 L 754 642.6429252895716 L 755 639.7058568483077 L 756 636.7373835662778 L 757 633.7378976274688 L 758 630.7077953131484 L 759 627.6474769495094 L 760 624.5573468547797 L 761 621.4378132858069 L 762 618.2892883841184 L 763 615.1121881214722 L 764 611.9069322449002 L 765 608.6739442212523 L 766 605.4136511812494 L 767 602.1264838630539 L 768 598.8128765553595 L 769 595.4732670400168 L 770 592.1080965341941 L 771 588.717809632085 L 772 585.3028542461727 L 773 581.8636815480495 L 774 578.4007459088125 L 775 574.914504839033 L 776 571.4054189283111 L 777 567.8739517844263 L 778 564.3205699720846 L 779 560.7457429512796 L 780 557.1499430152681 L 781 553.5336452281729 L 782 549.89732736222 L 783 546.2414698346148 L 784 542.5665556440728 L 785 538.8730703070071 L 786 535.161501793383 L 787 531.4323404622518 L 788 527.6860789969626 L 789 523.9232123400732 L 790 520.1442376279595 L 791 516.3496541251347 L 792 512.5399631582915 L 793 508.71566805006375 L 794 504.877274052533 L 795 501.0252882804749 L 796 497.16021964436095 L 797 493.28257878312513 L 798 489.39287799669665 L 799 485.4916311783193 L 800 481.579353746657 L 801 477.6565625776976 L 802 473.72377593646837 L 803 469.78151340855993 L 804 465.83029583148397 L 805 461.8706452258607 L 806 457.9030847264517 L 807 453.92813851304476 L 808 449.94633174120327 L 809 445.9581904728809 L 810 441.9642416069231 L 811 437.96501280945387 L 812 433.96103244416224 L 813 429.9528295024992 L 814 425.9409335337852 L 815 421.92587457525093 L 816 417.9081830820099 L 817 413.88838985697583 L 818 409.86702598073765 L 819 405.8446227413912 L 820 401.82171156434987 L 821 397.79882394213377 L 822 393.7764913641507 L 823 389.75524524647955 L 824 385.7356168616584 L 825 381.71813726849683 L 826 377.7033372419138 L 827 373.69174720281296 L 828 369.6838971480078 L 829 365.6803165801969 L 830 361.68153443801 L 831 357.68807902612633 L 832 353.70047794547594 L 833 349.71925802353775 L 834 345.74494524473306 L 835 341.7780646809369 L 836 337.819140422107 L 837 333.868695507042 L 838 329.92725185428213 L 839 325.9953301931514 L 840 322.0734499949633 L 841 318.1621294043894 L 842 314.2618851710034 L 843 310.3732325810125 L 844 306.4966853891757 L 845 302.6327557509314 L 846 298.781954154732 L 847 294.94478935459995 L 848 291.12176830291503 L 849 287.3133960834342 L 850 283.5201758445643 L 851 279.7426087328867 L 852 275.98119382694847 L 853 272.2364280713248 L 854 268.50880621096667 L 855 264.79882072583405 L 856 261.1069617658329 L 857 257.4337170860582 L 858 253.77957198235273 L 859 250.14500922719378 L 860 246.53050900590773 L 861 242.93654885323184 L 862 239.36360359022362 L 863 235.81214526152849 L 864 232.2826430730173 L 865 228.77556332979316 L 866 225.29136937458702 L 867 221.83052152654216 L 868 218.39347702039777 L 869 214.9806899460829 L 870 211.59261118872058 L 871 208.22968836906063 L 872 204.89236578434105 L 873 201.5810843495887 L 874 198.29628153936898 L 875 195.03839132998547 L 876 191.80784414214637 L 877 188.60506678409857 L 878 185.43048239523856 L 879 182.28451039021095 L 880 179.16756640349385 L 881 176.08006223448874 L 882 173.02240579311456 L 883 169.9950010459156 L 884 166.99824796269274 L 885 164.03254246365825 L 886 161.0982763671299 L 887 158.1958373377649 L 888 155.32560883534282 L 889 152.48797006410567 L 890 149.68329592265653 L 891 146.9119569544308 L 892 144.17431929874095 L 893 141.47074464240364 L 894 138.8015901719544 L 895 136.1672085264591 L 896 133.5679477509222 L 897 131.00415125030577 L 898 128.47615774415988 L 899 125.98430122187153 L 900 123.52891089854091 L 901 121.11031117148428 L 902 118.72882157737746 L 903 116.38475675003923 L 904 114.07842637886279 L 905 111.81013516790205 L 906 109.58018279561327 L 907 107.38886387526378 L 908 105.23646791600868 L 909 103.12327928464134 L 910 101.0495771680254 L 911 99.01563553620747 L 912 97.02172310622268 L 913 95.06810330659226 L 914 93.15503424252017 L 915 91.28276866179425 L 916 89.4515539213923 L 917 87.66163195480345 L 918 85.9132392400644 L 919 84.20660676851668 L 920 82.54196001428966 L 921 80.91951890451043 L 922 79.33949779024874 L 923 77.80210541819758 L 924 76.3075449030938 L 925 74.8560137008846 L 926 73.44770358263872 L 927 72.08280060921135 L 928 70.76148510666224 L 929 69.4839316424314 L 930 68.25030900227682 L 931 67.06078016797369 L 932 65.91550229578274 L 933 64.81462669568725 L 934 63.7582988114022 L 935 62.74665820115939 L 936 61.779838519268594 L 937 60.85796749846048 L 938 59.98116693301034 L 939 59.149552662647864 L 940 58.36323455725176 L 941 57.62231650233542 L 942 56.92689638532073 L 943 56.277066082606325 L 944 55.6729114474287 L 945 55.11451229852008 L 946 54.60194240956281 L 947 54.13526949944247 L 948 53.714555223301375 L 949 53.33985516439293 L 950 53.011218826737775 L 951 52.72868962858405 L 952 52.49230489667076 L 953 52.302095861296436 L 954 52.15808765219299 L 955 52.06029929520582 L 956 52.00874370978005 L 957 52.00342770725376 L 958 52.0443519899581 L 959 52.1315111511243 L 960 52.264893675598216 L 961 52.44448194136169 L 962 52.67025222186061 L 963 52.942174689139335 L 964 53.26021341778204 L 965 53.62432638965862 L 966 54.03446549947586 L 967 54.490576561133366 L 968 54.992599314882284 L 969 55.540467435286246 L 970 56.13410853998471 L 971 56.773444199255096 L 972 57.458389946375235 L 973 58.18885528878258 L 974 58.96474372002979 L 975 59.78595273253484 L 976 60.65237383112367 L 977 61.56389254736462 L 978 62.520388454691386 L 979 63.52173518431334 L 980 64.56780044191089 L 981 65.65844602511385 L 982 66.79352784175978 L 983 67.97289592893168 L 984 69.19639447277012 L 985 70.46386182905871 L 986 71.77513054458035 L 987 73.13002737923972 L 988 74.52837332895223 L 989 75.96998364929266 L 990 77.45466787990324 L 991 78.98222986965658 L 992 80.55246780256971 L 993 82.16517422446861 L 994 83.82013607039539 L 995 85.51713469275785 L 996 87.25594589021676 L 997 89.0363399373054 L 998 90.85808161478167 L 999 92.72093024070341 L 1000 94.62463970222655 L 1001 96.56895848812104 L 1002 98.55362972199862 L 1003 100.5783911962518 L 1004 102.64297540669463 L 1005 104.7471095879053 L 1006 106.89051574926225 L 1007 109.07291071167089 L 1008 111.29400614497763 L 1009 113.55350860606188 L 1010 115.85111957760512 L 1011 118.18653550753004 L 1012 120.55944784910355 L 1013 122.96954310170293 L 1014 125.41650285223278 L 1015 127.90000381719346 L 1016 130.419717885392 L 1017 132.97531216128965 L 1018 135.5664490089851 L 1019 138.1927860968205 L 1020 140.8539764426087 L 1021 143.54966845947672 L 1022 146.27950600231352 L 1023 149.04312841482573 L 1024 151.8401705771844 L 1025 154.67026295426365 L 1026 157.53303164446234 L 1027 160.42809842910336 L 1028 163.35508082240014 L 1029 166.31359212199254 L 1030 169.30324146003449 L 1031 172.32363385483438 L 1032 175.3743702630396 L 1033 178.45504763235417 L 1034 181.56525895479177 L 1035 184.70459332044635 L 1036 187.87263597178023 L 1037 191.06896835842105 L 1038 194.29316819245722 L 1039 197.54480950423186 L 1040 200.82346269861856 L 1041 204.12869461177834 L 1042 207.46006856838827 L 1043 210.81714443933132 L 1044 214.19947869984776 L 1045 217.60662448812997 L 1046 221.03813166436075 L 1047 224.49354687018473 L 1048 227.9724135886022 L 1049 231.47427220428577 L 1050 234.998660064301 L 1051 238.54511153923087 L 1052 242.11315808469368 L 1053 245.70232830324323 L 1054 249.3121480066514 L 1055 252.9421402785541 L 1056 256.5918255374601 L 1057 260.26072160011245 L 1058 263.9483437451903 L 1059 267.65420477735194 L 1060 271.37781509159925 L 1061 275.11868273796273 L 1062 278.8763134864972 L 1063 282.650210892575 L 1064 286.43987636247806 L 1065 290.244809219268 L 1066 294.0645067689344 L 1067 297.8984643668087 L 1068 301.7461754842369 L 1069 305.60713177549775 L 1070 309.48082314496725 L 1071 313.36673781450804 L 1072 317.2643623910846 L 1073 321.1731819345912 L 1074 325.09268002588163 L 1075 329.0223388350003 L 1076 332.9616391895936 L 1077 336.91006064350177 L 1078 340.8670815455187 L 1079 344.8321791083086 L 1080 348.80482947747805 L 1081 352.7845078007836 L 1082 356.7706882974737 L 1083 360.76284432775384 L 1084 364.7604484623616 L 1085 368.7629725522525 L 1086 372.7698877983749 L 1087 376.7806648215332 L 1088 380.79477373232845 L 1089 384.8116842011628 L 1090 388.8308655283086 L 1091 392.85178671401997 L 1092 396.8739165286871 L 1093 400.8967235830212 L 1094 404.919676398257 L 1095 408.9422434763739 L 1096 412.9638933703127 L 1097 416.98409475418936 L 1098 421.0023164934924 L 1099 425.01802771525183 L 1100 429.0306978781803 L 1101 433.03979684276334 L 1102 437.04479494130044 L 1103 441.04516304788336 L 1104 445.0403726482998 L 1105 449.0298959098625 L 1106 453.0132057511423 L 1107 456.9897759116046 L 1108 460.95908102113793 L 1109 464.920596669461 L 1110 468.87379947541024 L 1111 472.818167156084 L 1112 476.75317859584555 L 1113 480.6783139151711 L 1114 484.59305453933473 L 1115 488.49688326691853 L 1116 492.38928433814664 L 1117 496.2697435030235 L 1118 500.1377480892751 L 1119 503.99278707008204 L 1120 507.8343511315922 L 1121 511.66193274021305 L 1122 515.4750262096626 L 1123 519.2731277677797 L 1124 523.055735623081 L 1125 526.8223500310535 L 1126 530.5724733601826 L 1127 534.3056101576951 L 1128 538.0212672150169 L 1129 541.7189536329349 L 1130 545.3981808864504 L 1131 549.0584628893243 L 1132 552.6993160582956 L 1133 556.3202593769706 L 1134 559.9208144593737 L 1135 563.5005056131479 L 1136 567.0588599024052 L 1137 570.5954072102062 L 1138 574.1096803006717 L 1139 577.601214880712 L 1140 581.0695496613658 L 1141 584.5142264187476 L 1142 587.9347900545838 L 1143 591.3307886563397 L 1144 594.7017735569244 L 1145 598.0472993939659 L 1146 601.3669241686534 L 1147 604.6602093041305 L 1148 607.9267197034387 L 1149 611.1660238070021 L 1150 614.3776936496406 L 1151 617.5613049171145 L 1152 620.7164370021819 L 1153 623.8426730601672 L 1154 626.9396000640339 L 1155 630.0068088589528 L 1156 633.0438942163556 L 1157 636.0504548874754 L 1158 639.0260936563565 L 1159 641.9704173923332 L 1160 644.8830371019696 L 1161 647.7635679804503 L 1162 650.6116294624215 L 1163 653.426845272269 L 1164 656.20884347383 L 1165 658.9572565195331 L 1166 661.6717212989549 L 1167 664.3518791867964 L 1168 666.9973760902606 L 1169 669.6078624958345 L 1170 672.1829935154672 L 1171 674.7224289321316 L 1172 677.225833244777 L 1173 679.6928757126516 L 1174 682.1232303989993 L 1175 684.5165762141218 L 1176 686.8725969577984 L 1177 689.1909813610633 L 1178 691.4714231273283 L 1179 693.713620972849 L 1180 695.9172786665306 L 1181 698.0821050690632 L 1182 700.2078141713881 L 1183 702.2941251324828 L 1184 704.3407623164653 L 1185 706.3474553290102 L 1186 708.3139390530711 L 1187 710.2399536839089 L 1188 712.1252447634145 L 1189 713.9695632137281 L 1190 715.7726653701458 L 1191 717.5343130133111 L 1192 719.2542734006895 L 1193 720.9323192973156 L 1194 722.5682290058157 L 1195 724.1617863956978 L 1196 725.7127809319045 L 1197 727.2210077026298 L 1198 728.6862674463907 L 1199 730.1083665783528 L 1200 731.4871172159062 L 1201 732.8223372034879 L 1202 734.1138501366466 L 1203 735.3614853853505 L 1204 736.5650781165289 L 1205 737.7244693158495 L 1206 738.8395058087274 L 1207 739.9100402805611 L 1208 740.935931296196 L 1209 741.9170433186102 L 1210 742.8532467268204 L 1211 743.7444178330081 L 1212 744.5904388988592 L 1213 745.3911981511214 L 1214 746.1465897963692 L 1215 746.8565140349817 L 1216 747.5208770743286 L 1217 748.1395911411602 L 1218 748.7125744932046 L 1219 749.2397514299674 L 1220 749.7210523027325 L 1221 750.1564135237638 L 1222 750.5457775747063 L 1223 750.8890930141856 L 1224 751.1863144846038 L 1225 751.4374027181316 L 1226 751.642324541897 L 1227 751.8010528823675 L 1228 751.9135667689268 L 1229 751.9798513366461 L 1230 751.9998978282474 L 1231 751.9737035952603 L 1232 751.9012720983724 L 1233 751.7826129069722 L 1234 751.6177416978838 L 1235 751.4066802532973 L 1236 751.1494564578896 L 1237 750.8461042951413 L 1238 750.4966638428463 L 1239 750.1011812678171 L 1240 749.6597088197859 L 1241 749.1723048245008 L 1242 748.63903367602 L 1243 748.0599658282052 L 1244 747.4351777854127 L 1245 746.7647520923861 L 1246 746.0487773233506 L 1247 745.287348070311 L 1248 744.4805649305556 L 1249 743.6285344933635 L 1250 742.7313693259242 L 1251 741.7891879584649 L 1252 740.8021148685908 L 1253 739.77028046484 L 1254 738.6938210694534 L 1255 737.5728789003651 L 1256 736.4076020524133 L 1257 735.1981444777732 L 1258 733.9446659656196 L 1259 732.6473321210138 L 1260 731.3063143430259 L 1261 729.9217898020897 L 1262 728.4939414165956 L 1263 727.0229578287244 L 1264 725.5090333795242 L 1265 723.9523680832349 L 1266 722.3531676008624 L 1267 720.711643213009 L 1268 719.0280117919583 L 1269 717.3024957730236 L 1270 715.5353231251597 L 1271 713.7267273208454 L 1272 711.8769473052373 L 1273 709.9862274646024 L 1274 708.0548175940287 L 1275 706.0829728644247 L 1276 704.0709537888068 L 1277 702.0190261878804 L 1278 699.927461154923 L 1279 697.796535019965 L 1280 695.6265293132844 L 1281 693.4177307282116 L 1282 691.1704310832514 L 1283 688.8849272835309 L 1284 686.5615212815715 L 1285 684.2005200373974 L 1286 681.8022354779803 L 1287 679.3669844560293 L 1288 676.8950887081287 L 1289 674.3868748122334 L 1290 671.8426741445195 L 1291 669.2628228356061 L 1292 666.6476617261469 L 1293 663.9975363217981 L 1294 661.3127967475741 L 1295 658.5937977015872 L 1296 655.8408984081883 L 1297 653.0544625705063 L 1298 650.2348583223975 L 1299 647.38245817981 L 1300 644.4976389915657 L 1301 641.580781889575 L 1302 638.6322722384814 L 1303 635.6524995847487 L 1304 632.6418576051975 L 1305 629.6007440549909 L 1306 626.5295607150865 L 1307 623.4287133391541 L 1308 620.2986115999686 L 1309 617.1396690352873 L 1310 613.9523029932117 L 1311 610.7369345770514 L 1312 607.4939885896889 L 1313 604.2238934774549 L 1314 600.9270812735265 L 1315 597.6039875408452 L 1316 594.2550513145734 L 1317 590.8807150440911 L 1318 587.4814245345395 L 1319 584.0576288879261 L 1320 580.6097804437865 L 1321 577.1383347194261 L 1322 573.643750349738 L 1323 570.1264890266087 L 1324 566.5870154379243 L 1325 563.025797206173 L 1326 559.4433048266679 L 1327 555.8400116053856 L 1328 552.2163935964348 L 1329 548.5729295391618 L 1330 544.9101007949022 L 1331 541.2283912833832 L 1332 537.528287418791 L 1333 533.8102780455076 L 1334 530.0748543735259 L 1335 526.3225099135543 L 1336 522.5537404118137 L 1337 518.7690437845422 L 1338 514.9689200522126 L 1339 511.15387127347094 L 1340 507.32440147880766 L 1341 503.4810166039646 L 1342 499.6242244230941 L 1343 495.7545344816737 L 1344 491.87245802918574 L 1345 487.9785079515757 L 1346 484.07319870348766 L 1347 480.15704624029905 L 1348 476.23056794995375 L 1349 472.2942825846061 L 1350 468.3487101920876 L 1351 464.39437204719655 L 1352 460.4317905828314 L 1353 456.4614893209683 L 1354 452.4839928034946 L 1355 448.49982652291055 L 1356 444.5095168528999 L 1357 440.5135909787892 L 1358 436.5125768278979 L 1359 432.50700299978934 L 1360 428.497398696437 L 1361 424.4842936523044 L 1362 420.4682180643608 L 1363 416.44970252203314 L 1364 412.4292779371055 L 1365 408.40747547357984 L 1366 404.3848264774966 L 1367 400.3618624067375 L 1368 396.33911476081096 L 1369 392.31711501063154 L 1370 388.29639452830617 L 1371 384.27748451692787 L 1372 380.26091594039724 L 1373 376.24721945327303 L 1374 372.2369253306639 L 1375 368.2305633981697 L 1376 364.2286629618854 L 1377 360.2317527384673 L 1378 356.24036078528337 L 1379 352.2550144306477 L 1380 348.276240204151 L 1381 344.3045637670999 L 1382 340.340509843065 L 1383 336.38460214855843 L 1384 332.4373633238419 L 1385 328.4993148638767 L 1386 324.57097704942805 L 1387 320.65286887832394 L 1388 316.7455079968893 L 1389 312.8494106315559 L 1390 308.9650915206599 L 1391 305.09306384643855 L 1392 301.23383916722713 L 1393 297.38792734987544 L 1394 293.55583650238816 L 1395 289.7380729067892 L 1396 285.9351409522425 L 1397 282.14754306840405 L 1398 278.3757796590515 L 1399 274.62034903596856 L 1400 270.8817473531069 L 1401 267.16046854104366 L 1402 263.4570042417163 L 1403 259.7718437434764 L 1404 256.10547391644354 L 1405 252.4583791481779 L 1406 248.8310412796931 L 1407 245.22393954178787 L 1408 241.6375504917396 L 1409 238.07234795034012 L 1410 234.52880293929272 L 1411 231.0073836189904 L 1412 227.50855522665518 L 1413 224.03278001488044 L 1414 220.58051719055644 L 1415 217.1522228541984 L 1416 213.74834993969552 L 1417 210.36934815446264 L 1418 207.01566392003377 L 1419 203.68774031307947 L 1420 200.3860170068658 L 1421 197.1109302131739 L 1422 193.8629126246606 L 1423 190.64239335770017 L 1424 187.44979789568762 L 1425 184.28554803282265 L 1426 181.1500618183905 L 1427 178.04375350152299 L 1428 174.96703347647622 L 1429 171.92030822840786 L 1430 168.90398027967092 L 1431 165.91844813664056 L 1432 162.96410623705745 L 1433 160.04134489792253 L 1434 157.15055026392687 L 1435 154.2921042564331 L 1436 151.46638452302344 L 1437 148.67376438759928 L 1438 145.9146128010659 L 1439 143.18929429258134 L 1440 140.4981689214016 L 1441 137.84159222930884 L 1442 135.21991519363576 L 1443 132.63348418090152 L 1444 130.08264090104473 L 1445 127.56772236228335 L 1446 125.08906082658791 L 1447 122.6469837657823 L 1448 120.24181381828458 L 1449 117.87386874647484 L 1450 115.5434613947192 L 1451 113.2508996480355 L 1452 110.99648639141452 L 1453 108.78051946980895 L 1454 106.60329164877743 L 1455 104.4650905758105 L 1456 102.36619874232537 L 1457 100.30689344634226 L 1458 98.28744675585341 L 1459 96.3081254728732 L 1460 94.36919109819394 L 1461 92.47089979683494 L 1462 90.61350236419753 L 1463 88.7972441929349 L 1464 87.02236524052705 L 1465 85.28909999758247 L 1466 83.59767745685633 L 1467 81.94832108299534 L 1468 80.34124878301787 L 1469 78.7766728775211 L 1470 77.25480007263297 L 1471 75.77583143270192 L 1472 74.33996235373138 L 1473 72.94738253756799 L 1474 71.59827596683527 L 1475 70.29282088062962 L 1476 69.03118975097067 L 1477 67.8135492600137 L 1478 66.640060278031 L 1479 65.51087784215514 L 1480 64.42615113589864 L 1481 63.38602346944339 L 1482 62.39063226070584 L 1483 61.44010901718423 L 1484 60.53457931858196 L 1485 59.674162800218085 L 1486 58.85897313722114 L 1487 58.08911802950979 L 1488 57.36469918756558 L 1489 56.68581231899361 L 1490 56.05254711587952 L 1491 55.46498724293883 L 1492 54.923210326463334 L 1493 54.427287944065995 L 1494 53.977285615223764 L 1495 53.57326279262202 L 1496 53.21527285429943 L 1497 52.90336309659568 L 1498 52.63757472790377 L 1499 52.417942863224255 L 1500 52.2444965195275 L 1501 52.117258611919056 L 1502 52.036245950612454 L 1503 52.00146923870841 L 1504 52.01293307078072 L 1505 52.07063593226928 L 1506 52.17457019968003 L 1507 52.324722141592304 L 1508 52.52107192047282 L 1509 52.763593595296925 L 1510 53.052255124975204 L 1511 53.38701837258708 L 1512 53.767839110419345 L 1513 54.19466702580905 L 1514 54.66744572779112 L 1515 55.18611275454788 L 1516 55.75059958166173 L 1517 56.360831631168594 L 1518 57.01672828140977 L 1519 57.7182028776852 L 1520 58.46516274370015 L 1521 59.25750919380994 L 1522 60.095137546058936 L 1523 60.97793713600868 L 1524 61.90579133136089 L 1525 62.87857754736393 L 1526 63.896167263010966 L 1527 64.95842603801736 L 1528 66.06521353058332 L 1529 67.21638351593651 L 1530 68.41178390564829 L 1531 69.65125676772976 L 1532 70.93463834749508 L 1533 72.26175908919657 L 1534 73.63244365842763 L 1535 75.04651096528403 L 1536 76.50377418829237 L 1537 78.00404079908952 L 1538 79.54711258785926 L 1539 81.13278568952154" stroke-linecap="round" stroke-linejoin="round" stroke-miterlimit="10" stroke-width="40"/></g></svg>