<svg width="2174" height="1141" viewBox="0 0 2174 1141" fill="none" xmlns="http://www.w3.org/2000/svg">
<g clip-path="url(#clip0_8_25)">
<path d="M2132.94 794.452L2132.93 794.493L2131.53 798.905C2131.53 798.919 2131.52 798.933 2131.52 798.946L2130.13 803.336L2130.11 803.379L2128.72 807.746C2128.71 807.761 2128.71 807.775 2128.71 807.79L2127.31 812.134C2127.31 812.149 2127.3 812.164 2127.3 812.179L2125.9 816.499C2125.9 816.515 2125.89 816.53 2125.89 816.546L2124.49 820.842C2124.49 820.858 2124.48 820.874 2124.48 820.89L2123.09 825.161C2123.08 825.177 2123.07 825.194 2123.07 825.21L2121.68 829.456C2121.67 829.473 2121.66 829.49 2121.66 829.507L2120.26 833.728C2120.26 833.745 2120.25 833.763 2120.25 833.78L2118.85 837.976C2118.85 837.993 2118.84 838.011 2118.84 838.028L2117.44 842.197L2117.42 842.253L2116.03 846.395C2116.02 846.413 2116.02 846.432 2116.01 846.451L2114.62 850.566L2114.6 850.624L2113.2 854.711C2113.2 854.731 2113.19 854.752 2113.18 854.771L2111.79 858.83L2111.77 858.892L2110.38 862.923L2110.35 862.985L2108.96 866.988L2108.94 867.053L2107.54 871.025C2107.54 871.047 2107.53 871.07 2107.52 871.092L2106.13 875.035L2106.1 875.104L2104.71 879.017C2104.7 879.04 2104.69 879.063 2104.68 879.086L2103.29 882.97L2103.26 883.041L2101.87 886.894C2101.86 886.918 2101.85 886.942 2101.84 886.967L2100.45 890.788C2100.44 890.813 2100.43 890.838 2100.42 890.863L2099.03 894.652C2099.02 894.678 2099.01 894.705 2099 894.73L2097.61 898.487C2097.6 898.514 2097.59 898.541 2097.58 898.567L2096.18 902.292C2096.17 902.319 2096.16 902.347 2096.15 902.374L2094.76 906.066L2094.73 906.15L2093.34 909.81C2093.32 909.838 2093.31 909.867 2093.3 909.896L2091.91 913.521C2091.9 913.551 2091.89 913.58 2091.87 913.609L2090.48 917.201L2090.45 917.292L2089.05 920.85L2089.02 920.942L2087.62 924.466C2087.61 924.497 2087.6 924.529 2087.58 924.561L2086.19 928.049L2086.15 928.147L2084.76 931.601L2084.72 931.7L2083.32 935.118L2083.28 935.221L2081.89 938.603C2081.87 938.638 2081.86 938.673 2081.84 938.708L2080.45 942.054L2080.4 942.162L2079.01 945.471C2079 945.508 2078.98 945.545 2078.96 945.582L2077.57 948.854L2077.52 948.968L2076.13 952.202C2076.11 952.241 2076.09 952.28 2076.08 952.319L2074.68 955.516C2074.67 955.556 2074.65 955.596 2074.63 955.637L2073.24 958.795C2073.22 958.836 2073.2 958.878 2073.18 958.919L2071.79 962.039C2071.77 962.081 2071.75 962.124 2071.73 962.166L2070.34 965.247L2070.28 965.379L2068.88 968.421C2068.86 968.466 2068.84 968.511 2068.82 968.556L2067.43 971.559L2067.36 971.696L2065.97 974.66L2065.9 974.802L2064.51 977.726C2064.48 977.774 2064.46 977.823 2064.44 977.872L2063.05 980.755L2062.97 980.905L2061.58 983.748C2061.55 983.799 2061.53 983.851 2061.5 983.902L2060.11 986.704L2060.03 986.863L2058.64 989.624L2058.55 989.787L2057.16 992.507C2057.13 992.563 2057.1 992.618 2057.07 992.674L2055.68 995.353C2055.65 995.41 2055.62 995.467 2055.59 995.524L2054.19 998.161L2054.1 998.338L2052.71 1000.93C2052.67 1000.99 2052.64 1001.05 2052.61 1001.11L2051.21 1003.67C2051.18 1003.73 2051.15 1003.79 2051.11 1003.85L2049.72 1006.36C2049.68 1006.43 2049.65 1006.49 2049.61 1006.55L2048.22 1009.02C2048.18 1009.09 2048.14 1009.15 2048.1 1009.22L2046.71 1011.64C2046.67 1011.71 2046.63 1011.78 2046.59 1011.85L2045.2 1014.23C2045.16 1014.3 2045.12 1014.37 2045.07 1014.43L2043.68 1016.77L2043.55 1016.99L2042.16 1019.28L2042.02 1019.5L2040.63 1021.75C2040.58 1021.82 2040.53 1021.9 2040.48 1021.98L2039.09 1024.18C2039.04 1024.26 2038.99 1024.34 2038.94 1024.41L2037.55 1026.57L2037.39 1026.81L2036 1028.93L2035.83 1029.17L2034.44 1031.24C2034.38 1031.33 2034.32 1031.41 2034.26 1031.5L2032.87 1033.52L2032.69 1033.79L2031.29 1035.76C2031.23 1035.85 2031.17 1035.94 2031.1 1036.03L2029.71 1037.96C2029.64 1038.06 2029.57 1038.15 2029.51 1038.24L2028.11 1040.13C2028.04 1040.22 2027.97 1040.32 2027.9 1040.41L2026.51 1042.25C2026.43 1042.35 2026.36 1042.45 2026.28 1042.55L2024.89 1044.34C2024.81 1044.44 2024.73 1044.54 2024.65 1044.64L2023.26 1046.39C2023.18 1046.49 2023.09 1046.6 2023.01 1046.7L2021.62 1048.4C2021.53 1048.5 2021.44 1048.61 2021.35 1048.71L2019.96 1050.37L2019.68 1050.69L2018.29 1052.3L2018 1052.63L2016.6 1054.19C2016.5 1054.31 2016.4 1054.42 2016.29 1054.53L2014.9 1056.05C2014.79 1056.16 2014.68 1056.28 2014.58 1056.39L2013.18 1057.86C2013.07 1057.98 2012.95 1058.1 2012.84 1058.22L2011.44 1059.63C2011.32 1059.76 2011.2 1059.88 2011.08 1060L2009.69 1061.37C2009.56 1061.49 2009.43 1061.62 2009.3 1061.74L2007.91 1063.06C2007.78 1063.19 2007.64 1063.31 2007.51 1063.44L2006.11 1064.71C2005.97 1064.84 2005.83 1064.97 2005.69 1065.1L2004.29 1066.32C2004.14 1066.45 2003.99 1066.58 2003.84 1066.71L2002.45 1067.89L2001.97 1068.28L2000.58 1069.41L2000.08 1069.81L1998.68 1070.89C1998.51 1071.03 1998.33 1071.16 1998.15 1071.29L1996.76 1072.33C1996.58 1072.46 1996.39 1072.6 1996.2 1072.73L1994.81 1073.71C1994.62 1073.85 1994.42 1073.99 1994.22 1074.12L1992.83 1075.05L1992.21 1075.46L1990.82 1076.35C1990.6 1076.48 1990.39 1076.62 1990.17 1076.75L1988.78 1077.58C1988.55 1077.72 1988.33 1077.85 1988.1 1077.98L1986.7 1078.77C1986.47 1078.9 1986.23 1079.03 1985.99 1079.16L1984.6 1079.9L1983.85 1080.28L1982.46 1080.97C1982.2 1081.1 1981.94 1081.22 1981.68 1081.34L1980.28 1081.99L1979.47 1082.34L1978.08 1082.94C1977.8 1083.06 1977.51 1083.17 1977.23 1083.28L1975.84 1083.82C1975.55 1083.94 1975.25 1084.04 1974.96 1084.15L1973.57 1084.64C1973.27 1084.75 1972.96 1084.85 1972.66 1084.95L1971.26 1085.39C1970.95 1085.49 1970.64 1085.58 1970.33 1085.67L1968.93 1086.06C1968.77 1086.11 1968.61 1086.15 1968.45 1086.2L1967.97 1086.32L1966.58 1086.66C1966.25 1086.74 1965.92 1086.82 1965.59 1086.89L1964.19 1087.18C1964.02 1087.22 1963.86 1087.25 1963.69 1087.29L1963.18 1087.38L1961.79 1087.62C1961.62 1087.65 1961.44 1087.68 1961.27 1087.71L1960.76 1087.79L1959.36 1087.98C1959.01 1088.03 1958.67 1088.07 1958.32 1088.11L1956.92 1088.25C1956.75 1088.27 1956.57 1088.29 1956.39 1088.3L1955.86 1088.35L1954.47 1088.44C1954.29 1088.45 1954.12 1088.46 1953.94 1088.47L1953.4 1088.5L1952.01 1088.54C1951.65 1088.55 1951.3 1088.56 1950.94 1088.56L1949.55 1088.55C1949.19 1088.55 1948.83 1088.55 1948.48 1088.53L1947.08 1088.48C1946.91 1088.47 1946.73 1088.46 1946.55 1088.45L1946.02 1088.42L1944.63 1088.31C1944.45 1088.3 1944.27 1088.29 1944.09 1088.27L1943.57 1088.22L1942.17 1088.06C1941.82 1088.03 1941.48 1087.98 1941.13 1087.93L1939.74 1087.73C1939.56 1087.7 1939.39 1087.68 1939.22 1087.65L1938.71 1087.56L1937.31 1087.31C1937.14 1087.28 1936.98 1087.24 1936.81 1087.21L1936.3 1087.11L1934.91 1086.8C1934.75 1086.77 1934.58 1086.73 1934.42 1086.69L1933.93 1086.57L1932.53 1086.22C1932.21 1086.14 1931.89 1086.05 1931.57 1085.96L1930.18 1085.56C1930.02 1085.51 1929.87 1085.47 1929.71 1085.42L1929.24 1085.27L1927.85 1084.82C1927.7 1084.77 1927.55 1084.72 1927.4 1084.67L1926.95 1084.52L1925.55 1084.01C1925.26 1083.91 1924.97 1083.8 1924.68 1083.69L1923.29 1083.14C1923.01 1083.02 1922.73 1082.91 1922.45 1082.79L1921.05 1082.19C1920.78 1082.07 1920.51 1081.95 1920.25 1081.83L1918.85 1081.18C1918.59 1081.06 1918.34 1080.93 1918.08 1080.81L1916.69 1080.11C1916.44 1079.98 1916.19 1079.85 1915.94 1079.72L1914.55 1078.98C1914.31 1078.85 1914.08 1078.72 1913.84 1078.58L1912.45 1077.79C1912.22 1077.66 1912 1077.53 1911.77 1077.39L1910.38 1076.54L1909.74 1076.14L1908.34 1075.25L1907.73 1074.84L1906.34 1073.9L1905.76 1073.5L1904.36 1072.51L1903.81 1072.1L1902.42 1071.06C1902.24 1070.93 1902.06 1070.8 1901.89 1070.66L1900.5 1069.57C1900.33 1069.44 1900.16 1069.31 1900 1069.17L1898.61 1068.04C1898.45 1067.91 1898.29 1067.78 1898.14 1067.64L1896.74 1066.46L1896.29 1066.07L1894.9 1064.83L1894.48 1064.45L1893.08 1063.17C1892.95 1063.05 1892.82 1062.92 1892.68 1062.79L1891.29 1061.46C1891.16 1061.34 1891.03 1061.22 1890.91 1061.1L1889.52 1059.72L1889.16 1059.36L1887.76 1057.93C1887.65 1057.81 1887.53 1057.69 1887.42 1057.58L1886.03 1056.1L1885.71 1055.75L1884.31 1054.23C1884.21 1054.12 1884.11 1054.01 1884.01 1053.9L1882.61 1052.33L1882.32 1052L1880.93 1050.38C1880.84 1050.27 1880.75 1050.17 1880.65 1050.06L1879.26 1048.4L1879 1048.08L1877.61 1046.37C1877.52 1046.27 1877.44 1046.17 1877.36 1046.07L1875.97 1044.31L1875.73 1044.01L1874.34 1042.21C1874.26 1042.11 1874.19 1042.02 1874.12 1041.92L1872.72 1040.07L1872.51 1039.79L1871.12 1037.89C1871.05 1037.8 1870.98 1037.71 1870.92 1037.62L1869.52 1035.68C1869.46 1035.59 1869.4 1035.5 1869.33 1035.41L1867.94 1033.42C1867.88 1033.34 1867.82 1033.25 1867.76 1033.16L1866.36 1031.13L1866.19 1030.88L1864.8 1028.8L1864.64 1028.55L1863.24 1026.43C1863.19 1026.35 1863.14 1026.27 1863.09 1026.19L1861.69 1024.03C1861.64 1023.95 1861.59 1023.87 1861.54 1023.79L1860.15 1021.58C1860.1 1021.51 1860.05 1021.43 1860.01 1021.36L1858.61 1019.1C1858.57 1019.03 1858.52 1018.95 1858.48 1018.88L1857.09 1016.58C1857.04 1016.51 1857 1016.44 1856.96 1016.37L1855.56 1014.03L1855.44 1013.82L1854.05 1011.43C1854.01 1011.36 1853.97 1011.3 1853.93 1011.23L1852.53 1008.8C1852.5 1008.73 1852.46 1008.67 1852.42 1008.6L1851.03 1006.13L1850.92 1005.94L1849.53 1003.42L1849.43 1003.23L1848.03 1000.67L1847.93 1000.49L1846.54 997.893C1846.51 997.834 1846.48 997.775 1846.45 997.717L1845.05 995.074L1844.96 994.902L1843.57 992.217C1843.54 992.162 1843.51 992.106 1843.48 992.051L1842.09 989.324C1842.06 989.27 1842.04 989.216 1842.01 989.162L1840.61 986.395L1840.54 986.236L1839.14 983.428L1839.07 983.274L1837.67 980.425C1837.65 980.375 1837.62 980.325 1837.6 980.275L1836.21 977.386L1836.14 977.241L1834.74 974.311C1834.72 974.264 1834.7 974.216 1834.68 974.169L1833.28 971.199L1833.22 971.062L1831.83 968.053L1831.76 967.918L1830.37 964.87L1830.31 964.739L1828.92 961.652C1828.9 961.61 1828.88 961.568 1828.86 961.525L1827.47 958.399C1827.45 958.358 1827.43 958.317 1827.41 958.275L1826.02 955.111L1825.97 954.991L1824.57 951.788C1824.56 951.749 1824.54 951.711 1824.52 951.672L1823.13 948.432L1823.08 948.317L1821.69 945.04C1821.67 945.003 1821.65 944.966 1821.64 944.929L1820.25 941.615C1820.23 941.579 1820.21 941.543 1820.2 941.507L1818.81 938.156L1818.76 938.051L1817.37 934.663L1817.33 934.561L1815.93 931.138C1815.92 931.104 1815.91 931.07 1815.89 931.037L1814.5 927.579L1814.46 927.481L1813.07 923.987C1813.05 923.956 1813.04 923.924 1813.03 923.893L1811.64 920.364C1811.62 920.333 1811.61 920.302 1811.6 920.271L1810.21 916.708L1810.17 916.618L1808.78 913.021C1808.77 912.991 1808.75 912.962 1808.74 912.933L1807.35 909.302C1807.34 909.273 1807.33 909.244 1807.32 909.216L1805.92 905.552L1805.89 905.468L1804.5 901.771L1804.47 901.689L1803.07 897.959C1803.06 897.933 1803.05 897.906 1803.04 897.88L1801.65 894.117C1801.64 894.092 1801.63 894.066 1801.62 894.04L1800.23 890.245L1800.2 890.17L1798.81 886.345C1798.8 886.32 1798.79 886.296 1798.78 886.271L1797.39 882.414L1797.36 882.343L1795.97 878.455L1795.94 878.385L1794.55 874.467L1794.53 874.399L1793.13 870.451C1793.12 870.429 1793.12 870.407 1793.11 870.385L1791.72 866.407C1791.71 866.386 1791.7 866.364 1791.69 866.343L1790.3 862.336C1790.29 862.315 1790.28 862.294 1790.28 862.273L1788.88 858.238C1788.88 858.218 1788.87 858.197 1788.86 858.177L1787.47 854.113C1787.46 854.094 1787.46 854.073 1787.45 854.054L1786.05 849.962L1786.04 849.904L1784.64 845.785L1784.62 845.729L1783.23 841.582L1783.21 841.527L1781.82 837.354L1781.8 837.302L1780.41 833.103L1780.39 833.05L1779 828.825C1778.99 828.808 1778.98 828.791 1778.98 828.774L1777.59 824.524C1777.58 824.508 1777.57 824.492 1777.57 824.476L1776.18 820.2C1776.17 820.184 1776.16 820.168 1776.16 820.152L1774.77 815.853L1774.75 815.807L1773.36 811.482L1773.34 811.438L1771.95 807.09C1771.94 807.075 1771.94 807.06 1771.94 807.046L1770.54 802.676L1770.53 802.633L1769.14 798.239L1769.12 798.198L1767.73 793.783C1767.72 793.77 1767.72 793.756 1767.72 793.742L1767.48 793H1830.44L1830.46 793.076L1831.84 797.353L1833.22 801.604L1834.6 805.831L1835.98 810.03L1837.37 814.255L1838.73 818.349L1840.1 822.467L1841.48 826.557L1842.85 830.618L1844.22 834.65L1845.6 838.653L1846.97 842.626L1848.34 846.568L1849.71 850.48L1851.1 854.419L1852.45 858.209L1853.82 862.025L1855.18 865.81L1856.55 869.561L1857.92 873.277L1859.28 876.961L1860.64 880.61L1862.04 884.308H1862.04L1863.37 887.804L1864.72 891.347L1866.12 894.944L1867.44 898.324L1868.8 901.759L1870.19 905.252L1871.55 908.613L1872.86 911.833L1874.25 915.221L1875.55 918.357L1876.9 921.561L1878.25 924.724L1879.59 927.846L1880.93 930.928L1882.31 934.061L1883.6 936.968L1884.99 940.045L1886.27 942.839L1887.65 945.812L1888.93 948.539L1890.25 951.323L1891.64 954.213L1892.89 956.76L1894.25 959.492L1895.52 962.016L1896.86 964.648L1898.17 967.165L1899.46 969.62L1900.77 972.059L1902.05 974.42L1903.35 976.752L1904.62 979.017L1905.91 981.27L1907.15 983.38L1908.44 985.554L1909.7 987.629L1910.98 989.71L1912.19 991.619L1913.47 993.61L1914.7 995.483L1915.87 997.235L1917.17 999.126L1918.34 1000.79L1919.53 1002.45L1920.69 1004.03L1921.93 1005.68L1923.06 1007.13L1924.21 1008.58L1925.38 1010.01L1926.5 1011.35L1927.61 1012.64L1928.7 1013.86L1929.79 1015.05L1930.8 1016.13L1931.87 1017.21L1932.94 1018.27L1933.89 1019.18L1934.9 1020.11L1935.85 1020.95L1936.78 1021.75L1937.69 1022.49L1938.61 1023.2L1939.45 1023.84L1940.26 1024.41L1941.04 1024.94L1941.84 1025.45L1942.56 1025.89L1943.26 1026.29L1943.92 1026.64L1944.57 1026.97L1945.17 1027.25L1945.73 1027.49L1946.29 1027.71L1946.79 1027.89L1947.24 1028.03L1947.71 1028.17L1948.11 1028.27L1948.52 1028.36L1948.9 1028.43L1949.24 1028.48L1949.59 1028.52L1949.94 1028.54L1950.24 1028.55L1950.57 1028.56L1950.89 1028.54L1951.24 1028.52L1951.57 1028.49L1951.93 1028.44L1952.29 1028.37L1952.7 1028.29L1953.1 1028.19L1953.55 1028.06L1954.03 1027.91L1954.52 1027.74L1955.06 1027.52L1955.61 1027.29L1956.23 1027L1956.82 1026.71L1957.52 1026.34L1958.19 1025.96L1958.93 1025.52L1959.7 1025.03L1960.49 1024.5L1961.32 1023.91L1962.15 1023.3L1963.06 1022.59L1963.93 1021.89L1964.86 1021.1L1965.85 1020.23L1966.81 1019.35L1967.81 1018.4L1968.82 1017.41L1969.86 1016.35L1970.93 1015.22L1972.03 1014.03L1973.13 1012.8L1974.21 1011.55L1975.34 1010.21L1976.47 1008.83L1977.6 1007.41L1978.77 1005.9L1979.97 1004.32L1981.15 1002.72L1982.35 1001.06L1983.54 999.368L1984.78 997.564L1986.01 995.739L1987.25 993.854L1988.43 992.034L1989.68 990.047L1990.98 987.959L1992.24 985.88L1993.49 983.79L1994.79 981.57L1996.02 979.422L1997.36 977.065L1998.56 974.896L1999.92 972.412L2001.24 969.943L2002.5 967.568L2003.85 964.979L2005.11 962.516L2006.47 959.828L2007.71 957.325L2009.06 954.576L2010.4 951.788L2011.74 948.984L2013.07 946.163L2014.4 943.299L2015.73 940.391L2017.02 937.526L2018.4 934.448L2019.71 931.476L2021.08 928.339L2022.42 925.223L2023.72 922.178L2025.11 918.87L2026.46 915.634L2027.81 912.358L2029.16 909.044L2030.51 905.691L2031.84 902.359L2033.18 898.966L2034.54 895.499L2035.94 891.907L2037.3 888.369L2038.63 884.88L2040.02 881.188L2041.38 877.544L2042.72 873.943L2044.11 870.154L2045.48 866.408L2046.82 862.701L2048.21 858.818L2049.58 854.975L2050.95 851.1L2052.32 847.192L2053.69 843.255L2055.06 839.287L2056.44 835.289L2057.79 831.319L2059.18 827.204L2060.56 823.119L2061.93 819.006L2063.31 814.864L2064.68 810.696L2066.06 806.5L2067.44 802.278L2068.82 798.031L2070.19 793.758L2070.44 793H2133.4L2132.94 794.452ZM1266.13 794.295C1266.12 794.308 1266.12 794.322 1266.11 794.335L1264.72 798.748C1264.72 798.762 1264.71 798.776 1264.71 798.79L1263.31 803.18L1263.3 803.223L1261.91 807.591C1261.9 807.605 1261.9 807.62 1261.89 807.635L1260.5 811.979L1260.48 812.024L1259.09 816.345L1259.08 816.392L1257.68 820.688L1257.67 820.736L1256.27 825.009C1256.27 825.025 1256.26 825.041 1256.26 825.058L1254.86 829.305C1254.86 829.321 1254.85 829.339 1254.85 829.355L1253.45 833.577C1253.45 833.595 1253.44 833.612 1253.44 833.63L1252.04 837.825C1252.04 837.843 1252.03 837.861 1252.02 837.879L1250.63 842.049L1250.61 842.104L1249.22 846.247C1249.21 846.266 1249.21 846.284 1249.2 846.303L1247.81 850.419C1247.8 850.438 1247.79 850.458 1247.79 850.478L1246.39 854.565C1246.39 854.585 1246.38 854.605 1246.37 854.625L1244.98 858.686C1244.97 858.706 1244.96 858.726 1244.96 858.746L1243.56 862.778C1243.56 862.799 1243.55 862.82 1243.54 862.841L1242.15 866.845L1242.13 866.909L1240.73 870.883L1240.71 870.949L1239.32 874.894C1239.31 874.916 1239.3 874.939 1239.29 874.962L1237.9 878.876L1237.87 878.946L1236.48 882.83L1236.45 882.901L1235.06 886.755C1235.05 886.779 1235.04 886.805 1235.03 886.829L1233.64 890.65C1233.63 890.675 1233.62 890.701 1233.61 890.726L1232.22 894.517C1232.21 894.542 1232.2 894.568 1232.19 894.594L1230.8 898.353C1230.79 898.379 1230.78 898.406 1230.77 898.433L1229.37 902.158L1229.34 902.24L1227.95 905.934C1227.94 905.961 1227.93 905.989 1227.92 906.017L1226.52 909.678L1226.49 909.764L1225.1 913.391C1225.09 913.42 1225.07 913.449 1225.06 913.479L1223.67 917.071C1223.66 917.101 1223.65 917.132 1223.63 917.162L1222.24 920.722L1222.2 920.814L1220.81 924.339C1220.8 924.37 1220.79 924.402 1220.77 924.434L1219.38 927.923C1219.37 927.955 1219.35 927.989 1219.34 928.021L1217.95 931.476C1217.93 931.509 1217.92 931.542 1217.91 931.575L1216.51 934.994C1216.5 935.029 1216.48 935.063 1216.47 935.098L1215.08 938.479L1215.03 938.585L1213.64 941.932C1213.62 941.968 1213.61 942.005 1213.59 942.041L1212.2 945.351L1212.15 945.462L1210.76 948.734L1210.71 948.849L1209.32 952.084L1209.26 952.202L1207.87 955.399L1207.82 955.52L1206.43 958.68L1206.37 958.804L1204.98 961.925C1204.96 961.967 1204.94 962.009 1204.92 962.052L1203.53 965.135L1203.47 965.266L1202.07 968.31L1202.01 968.443L1200.62 971.448C1200.6 971.494 1200.57 971.541 1200.55 971.587L1199.16 974.551C1199.14 974.598 1199.11 974.646 1199.09 974.693L1197.7 977.618C1197.68 977.667 1197.65 977.715 1197.63 977.764L1196.23 980.648L1196.16 980.799L1194.77 983.643L1194.69 983.797L1193.3 986.601C1193.27 986.653 1193.25 986.706 1193.22 986.759L1191.83 989.521C1191.8 989.576 1191.77 989.63 1191.74 989.685L1190.35 992.405C1190.32 992.461 1190.29 992.517 1190.26 992.572L1188.87 995.252C1188.84 995.309 1188.81 995.367 1188.78 995.425L1187.39 998.062C1187.35 998.121 1187.32 998.18 1187.29 998.239L1185.9 1000.83C1185.87 1000.9 1185.83 1000.96 1185.8 1001.02L1184.41 1003.57L1184.3 1003.76L1182.91 1006.27C1182.87 1006.33 1182.84 1006.4 1182.8 1006.46L1181.41 1008.93L1181.29 1009.12L1179.9 1011.55C1179.86 1011.62 1179.82 1011.69 1179.78 1011.75L1178.39 1014.13L1178.27 1014.34L1176.87 1016.68L1176.74 1016.9L1175.35 1019.19C1175.3 1019.26 1175.26 1019.34 1175.21 1019.41L1173.82 1021.66L1173.68 1021.89L1172.28 1024.09C1172.23 1024.17 1172.18 1024.25 1172.13 1024.33L1170.74 1026.49C1170.69 1026.57 1170.64 1026.65 1170.58 1026.73L1169.19 1028.84L1169.02 1029.09L1167.63 1031.16C1167.57 1031.25 1167.52 1031.33 1167.46 1031.42L1166.06 1033.44L1165.88 1033.71L1164.49 1035.68C1164.42 1035.77 1164.36 1035.86 1164.3 1035.95L1162.9 1037.89C1162.84 1037.98 1162.77 1038.07 1162.7 1038.17L1161.31 1040.05C1161.24 1040.15 1161.17 1040.24 1161.09 1040.34L1159.7 1042.18C1159.63 1042.28 1159.55 1042.38 1159.48 1042.47L1158.08 1044.27C1158.01 1044.37 1157.93 1044.47 1157.85 1044.57L1156.45 1046.32L1156.21 1046.63L1154.81 1048.33C1154.73 1048.43 1154.64 1048.54 1154.55 1048.64L1153.16 1050.3L1152.88 1050.62L1151.49 1052.23C1151.39 1052.34 1151.29 1052.46 1151.19 1052.57L1149.8 1054.13C1149.7 1054.24 1149.6 1054.36 1149.49 1054.47L1148.1 1055.98C1147.99 1056.1 1147.88 1056.22 1147.77 1056.33L1146.38 1057.8C1146.27 1057.92 1146.15 1058.04 1146.04 1058.15L1144.64 1059.57L1144.28 1059.94L1142.89 1061.31C1142.76 1061.43 1142.63 1061.56 1142.51 1061.68L1141.11 1063L1140.71 1063.38L1139.32 1064.66C1139.17 1064.78 1139.03 1064.91 1138.89 1065.04L1137.5 1066.27L1137.05 1066.66L1135.65 1067.84L1135.18 1068.23L1133.78 1069.36C1133.62 1069.5 1133.45 1069.63 1133.28 1069.76L1131.89 1070.84L1131.36 1071.24L1129.97 1072.28C1129.78 1072.41 1129.6 1072.55 1129.41 1072.68L1128.02 1073.67L1127.43 1074.07L1126.04 1075.01C1125.83 1075.15 1125.63 1075.28 1125.42 1075.41L1124.03 1076.3L1123.38 1076.7L1121.99 1077.54L1121.31 1077.94L1119.92 1078.73C1119.68 1078.86 1119.44 1078.99 1119.2 1079.12L1117.81 1079.86L1117.06 1080.24L1115.67 1080.94L1114.89 1081.31L1113.5 1081.95C1113.23 1082.07 1112.96 1082.19 1112.69 1082.31L1111.29 1082.9C1111.01 1083.02 1110.73 1083.14 1110.45 1083.25L1109.06 1083.79C1108.77 1083.91 1108.47 1084.01 1108.18 1084.12L1106.79 1084.61C1106.64 1084.67 1106.48 1084.72 1106.33 1084.77L1105.88 1084.92L1104.49 1085.36C1104.18 1085.46 1103.86 1085.56 1103.55 1085.65L1102.16 1086.04C1101.84 1086.13 1101.51 1086.22 1101.19 1086.3L1099.8 1086.64C1099.63 1086.68 1099.47 1086.72 1099.3 1086.76L1098.81 1086.87L1097.41 1087.17C1097.08 1087.24 1096.74 1087.3 1096.41 1087.36L1095.01 1087.61C1094.67 1087.67 1094.33 1087.72 1093.98 1087.77L1092.59 1087.97C1092.41 1088 1092.24 1088.02 1092.06 1088.04L1091.54 1088.1L1090.15 1088.25C1089.97 1088.26 1089.79 1088.28 1089.62 1088.3L1089.09 1088.34L1087.69 1088.44C1087.52 1088.45 1087.34 1088.46 1087.16 1088.47L1086.63 1088.49L1085.23 1088.54C1084.88 1088.55 1084.52 1088.56 1084.16 1088.56L1082.77 1088.55C1082.41 1088.55 1082.06 1088.55 1081.7 1088.53L1080.31 1088.48C1080.13 1088.47 1079.95 1088.47 1079.78 1088.46L1079.24 1088.42L1077.85 1088.32C1077.5 1088.3 1077.14 1088.26 1076.79 1088.23L1075.4 1088.07C1075.22 1088.06 1075.05 1088.03 1074.87 1088.01L1074.35 1087.94L1072.96 1087.74C1072.61 1087.69 1072.27 1087.64 1071.93 1087.57L1070.54 1087.32C1070.2 1087.26 1069.86 1087.2 1069.53 1087.12L1068.13 1086.82C1067.97 1086.79 1067.8 1086.75 1067.64 1086.71L1067.15 1086.59L1065.75 1086.24C1065.43 1086.16 1065.11 1086.08 1064.79 1085.98L1063.4 1085.58C1063.24 1085.54 1063.09 1085.49 1062.93 1085.45L1062.47 1085.3L1061.07 1084.85C1060.92 1084.8 1060.77 1084.75 1060.62 1084.7L1060.17 1084.54L1058.77 1084.04L1057.9 1083.72L1056.51 1083.17C1056.22 1083.06 1055.94 1082.94 1055.66 1082.82L1054.27 1082.22C1054 1082.11 1053.73 1081.99 1053.46 1081.86L1052.07 1081.22L1051.29 1080.84L1049.9 1080.15C1049.65 1080.02 1049.4 1079.89 1049.16 1079.76L1047.76 1079.02L1047.05 1078.62L1045.66 1077.83C1045.43 1077.7 1045.21 1077.57 1044.98 1077.43L1043.59 1076.59C1043.37 1076.46 1043.16 1076.32 1042.95 1076.19L1041.55 1075.29C1041.35 1075.16 1041.14 1075.03 1040.94 1074.89L1039.55 1073.95L1038.96 1073.55L1037.57 1072.56L1037.02 1072.15L1035.62 1071.11L1035.1 1070.71L1033.7 1069.63L1033.2 1069.23L1031.81 1068.09L1031.34 1067.7L1029.94 1066.51L1029.5 1066.13L1028.1 1064.89L1027.68 1064.51L1026.29 1063.23C1026.15 1063.11 1026.02 1062.98 1025.88 1062.85L1024.49 1061.53C1024.36 1061.4 1024.24 1061.28 1024.11 1061.16L1022.72 1059.78L1022.36 1059.42L1020.96 1057.99L1020.62 1057.64L1019.23 1056.17L1018.9 1055.82L1017.51 1054.3C1017.41 1054.19 1017.31 1054.08 1017.2 1053.96L1015.81 1052.4L1015.52 1052.06L1014.13 1050.45L1013.85 1050.13L1012.46 1048.47C1012.37 1048.36 1012.28 1048.26 1012.2 1048.15L1010.8 1046.44C1010.72 1046.34 1010.64 1046.24 1010.56 1046.14L1009.16 1044.38C1009.08 1044.28 1009.01 1044.18 1008.93 1044.08L1007.53 1042.29C1007.46 1042.19 1007.38 1042.09 1007.31 1041.99L1005.92 1040.15C1005.85 1040.05 1005.78 1039.96 1005.71 1039.86L1004.31 1037.97C1004.24 1037.88 1004.18 1037.79 1004.11 1037.7L1002.72 1035.76C1002.65 1035.67 1002.59 1035.58 1002.53 1035.49L1001.13 1033.5L1000.95 1033.24L999.558 1031.21C999.5 1031.13 999.443 1031.04 999.386 1030.96L997.992 1028.88L997.827 1028.64L996.434 1026.52C996.382 1026.44 996.329 1026.36 996.278 1026.28L994.884 1024.11C994.834 1024.04 994.784 1023.96 994.735 1023.88L993.341 1021.67L993.199 1021.44L991.806 1019.19L991.67 1018.97L990.277 1016.67C990.234 1016.6 990.19 1016.53 990.148 1016.46L988.754 1014.12L988.631 1013.91L987.238 1011.52L987.12 1011.32L985.727 1008.89C985.689 1008.83 985.651 1008.76 985.614 1008.69L984.22 1006.22L984.114 1006.03L982.72 1003.52L982.616 1003.33L981.223 1000.77L981.125 1000.59L979.732 997.992L979.638 997.815L978.244 995.174L978.155 995.002L976.761 992.319L976.675 992.152L975.281 989.428L975.198 989.265L973.805 986.499L973.726 986.341L972.332 983.533C972.307 983.482 972.282 983.431 972.257 983.38L970.864 980.532L970.79 980.383L969.397 977.494C969.373 977.446 969.35 977.397 969.327 977.349L967.934 974.42C967.911 974.373 967.889 974.326 967.866 974.278L966.473 971.31L966.408 971.173L965.015 968.165L964.953 968.03L963.56 964.982C963.54 964.939 963.52 964.896 963.5 964.853L962.107 961.767L962.05 961.64L960.656 958.515C960.638 958.474 960.62 958.432 960.602 958.391L959.207 955.229L959.155 955.107L957.761 951.906L957.71 951.789L956.317 948.551L956.268 948.437L954.874 945.161L954.827 945.049L953.434 941.736L953.389 941.628L951.995 938.278L951.951 938.173L950.558 934.787L950.516 934.685L949.122 931.263C949.109 931.23 949.095 931.196 949.081 931.163L947.688 927.705C947.675 927.673 947.662 927.64 947.649 927.607L946.255 924.115L946.217 924.021L944.823 920.493L944.787 920.4L943.394 916.838L943.359 916.748L941.965 913.151L941.931 913.063L940.537 909.434C940.526 909.405 940.516 909.376 940.505 909.348L939.112 905.685C939.101 905.657 939.09 905.629 939.079 905.602L937.686 901.905C937.676 901.878 937.666 901.85 937.656 901.823L936.262 898.094C936.252 898.068 936.242 898.041 936.233 898.015L934.839 894.254C934.83 894.228 934.819 894.202 934.81 894.177L933.416 890.383C933.407 890.358 933.398 890.333 933.389 890.308L931.995 886.482C931.987 886.458 931.978 886.433 931.969 886.409L930.575 882.554C930.567 882.53 930.559 882.506 930.55 882.482L929.156 878.595L929.131 878.525L927.738 874.608C927.73 874.586 927.721 874.563 927.713 874.541L926.32 870.594L926.297 870.527L924.903 866.551C924.895 866.529 924.888 866.508 924.88 866.486L923.487 862.48C923.479 862.46 923.472 862.439 923.465 862.418L922.072 858.384C922.065 858.364 922.058 858.343 922.051 858.322L920.657 854.26C920.651 854.24 920.644 854.22 920.637 854.2L919.243 850.109C919.237 850.09 919.23 850.071 919.224 850.052L917.83 845.934L917.811 845.877L916.417 841.731C916.411 841.713 916.405 841.695 916.399 841.677L915.005 837.505L914.988 837.451L913.594 833.253C913.588 833.236 913.582 833.218 913.576 833.201L912.183 828.977C912.177 828.96 912.172 828.942 912.166 828.926L910.773 824.677C910.767 824.661 910.762 824.644 910.757 824.628L909.364 820.354C909.358 820.338 909.353 820.321 909.348 820.306L907.954 816.007L907.939 815.96L906.545 811.638C906.54 811.623 906.535 811.607 906.531 811.592L905.137 807.245C905.132 807.231 905.128 807.216 905.123 807.201L903.73 802.832C903.725 802.818 903.721 802.803 903.716 802.789L902.323 798.396L902.309 798.355L900.915 793.94C900.911 793.927 900.907 793.914 900.903 793.9L900.619 793H963.577L963.651 793.228H963.652L965.045 797.55H965.044L966.407 801.755L967.785 805.979L969.162 810.178L970.538 814.35L971.914 818.495L973.289 822.612L974.664 826.701L976.038 830.761L977.411 834.792L978.783 838.794L980.156 842.766L981.527 846.707L982.92 850.684L984.266 854.497H984.267L985.66 858.414H985.659L987.003 862.16L988.37 865.942L989.737 869.692L991.102 873.408L992.495 877.17H992.494L993.828 880.738L995.191 884.352L996.584 888.015H996.583L997.91 891.472H997.911L999.27 894.978L1000.64 898.487L1001.98 901.879L1003.34 905.274L1004.69 908.631L1006.04 911.95L1007.43 915.336L1008.79 918.58L1010.09 921.673L1011.48 924.945L1012.77 927.956L1014.12 931.049L1015.45 934.075L1016.85 937.2L1018.12 940.028H1018.12L1019.52 943.075H1019.52L1020.79 945.812L1022.16 948.729L1023.44 951.421L1024.8 954.256L1026.07 956.854L1027.42 959.568L1028.7 962.106L1030.03 964.714L1031.38 967.306L1032.7 969.813L1033.91 972.059L1035.2 974.429L1036.53 976.833L1037.83 979.132L1039.08 981.311L1040.36 983.511L1041.62 985.627L1042.9 987.736L1044.1 989.685L1045.38 991.699L1046.67 993.714L1047.86 995.524L1049.08 997.342L1050.31 999.135L1051.53 1000.87L1052.69 1002.48L1053.91 1004.14L1055.06 1005.66L1056.24 1007.19L1057.39 1008.63L1058.57 1010.08L1059.67 1011.39L1060.78 1012.67L1061.86 1013.89L1062.96 1015.09L1064.03 1016.22L1065.08 1017.29L1066.07 1018.27L1067.1 1019.25L1068.04 1020.11L1069.03 1020.99L1069.96 1021.78L1070.86 1022.52L1071.76 1023.22L1072.58 1023.83L1073.43 1024.43L1074.22 1024.97L1074.99 1025.46L1075.73 1025.91L1076.4 1026.29L1077.07 1026.65L1077.75 1026.99L1078.31 1027.25L1078.91 1027.51L1079.41 1027.7L1079.94 1027.89L1080.42 1028.05L1080.87 1028.17L1081.26 1028.28L1081.67 1028.36L1082.06 1028.43L1082.38 1028.48L1082.76 1028.52L1083.07 1028.54L1083.4 1028.55L1083.72 1028.56L1084.05 1028.54L1084.39 1028.52L1084.73 1028.48L1085.06 1028.44L1085.45 1028.37L1085.84 1028.29L1086.27 1028.18L1086.7 1028.06L1087.18 1027.9L1087.67 1027.73L1088.21 1027.52L1088.78 1027.28L1089.37 1027L1090.02 1026.68L1090.66 1026.34L1091.37 1025.94L1092.1 1025.5L1092.88 1025L1093.65 1024.48L1094.47 1023.9L1095.31 1023.28L1096.21 1022.58L1097.11 1021.85L1098.06 1021.04L1099.01 1020.21L1099.98 1019.32L1100.97 1018.37L1102.01 1017.35L1103.03 1016.32L1104.07 1015.22L1105.19 1014L1106.26 1012.8L1107.38 1011.51L1108.51 1010.17L1109.65 1008.78L1110.82 1007.3L1111.96 1005.84L1113.09 1004.34L1114.29 1002.72L1115.52 1001.02L1116.75 999.265L1117.93 997.553L1119.15 995.739L1120.43 993.794L1121.62 991.946L1122.91 989.902L1124.13 987.945L1125.4 985.842L1126.67 983.721L1127.97 981.487L1129.21 979.343L1130.56 976.954L1131.75 974.802L1133.13 972.271L1134.34 970.013L1135.73 967.396L1136.96 965.021L1138.34 962.335L1139.65 959.735L1140.93 957.149L1142.26 954.453L1143.53 951.811L1144.93 948.886L1146.25 946.062L1147.56 943.244L1148.91 940.287L1150.25 937.336L1151.54 934.448L1152.92 931.307L1154.26 928.229L1155.6 925.112L1156.9 922.065L1158.3 918.756L1159.6 915.624L1160.99 912.241L1162.34 908.926L1163.7 905.572L1165.05 902.181L1166.41 898.752L1167.76 895.285L1169.12 891.782L1170.48 888.243L1171.84 884.669L1173.21 881.06L1174.54 877.494L1175.93 873.735L1177.3 870.022L1178.66 866.275L1180 862.567L1181.4 858.684L1182.74 854.906L1184.14 850.962L1185.51 847.054L1186.88 843.115L1188.23 839.207L1189.62 835.147L1190.97 831.177L1192.37 827.061L1193.74 822.975L1195.12 818.859L1196.48 814.77L1197.87 810.548L1199.25 806.352L1200.63 802.129L1201.99 797.927L1203.38 793.606L1203.58 793H1266.53L1266.13 794.295ZM399.315 794.137L399.302 794.178L397.908 798.591C397.904 798.605 397.9 798.619 397.896 798.633L396.502 803.023L396.489 803.066L395.095 807.435L395.08 807.479L393.687 811.824L393.672 811.869L392.279 816.191L392.264 816.238L390.87 820.535L390.855 820.583L389.46 824.856C389.455 824.873 389.45 824.889 389.445 824.905L388.051 829.153C388.046 829.17 388.04 829.187 388.034 829.204L386.641 833.427C386.635 833.444 386.629 833.461 386.623 833.479L385.23 837.676C385.224 837.694 385.218 837.712 385.212 837.729L383.819 841.899L383.8 841.955L382.407 846.099C382.4 846.117 382.393 846.136 382.387 846.155L380.993 850.272C380.987 850.292 380.98 850.311 380.974 850.33L379.58 854.419L379.56 854.479L378.166 858.54C378.159 858.56 378.153 858.581 378.146 858.602L376.752 862.635C376.745 862.656 376.737 862.676 376.73 862.697L375.336 866.701L375.314 866.766L373.92 870.741C373.912 870.763 373.905 870.786 373.897 870.808L372.503 874.753L372.48 874.82L371.086 878.736L371.061 878.806L369.667 882.69C369.659 882.714 369.65 882.739 369.642 882.763L368.248 886.617L368.221 886.69L366.827 890.514L366.8 890.589L365.407 894.381L365.378 894.458L363.985 898.218L363.955 898.297L362.562 902.024L362.531 902.105L361.137 905.801C361.127 905.828 361.116 905.856 361.106 905.884L359.712 909.546L359.679 909.632L358.285 913.26L358.251 913.348L356.858 916.942C356.846 916.972 356.834 917.003 356.823 917.033L355.429 920.593C355.417 920.624 355.405 920.655 355.393 920.686L353.999 924.211C353.987 924.243 353.974 924.275 353.961 924.307L352.568 927.797L352.529 927.895L351.135 931.351C351.122 931.384 351.108 931.417 351.094 931.45L349.7 934.87C349.686 934.905 349.673 934.939 349.658 934.974L348.265 938.357L348.221 938.463L346.827 941.811C346.812 941.847 346.798 941.883 346.783 941.919L345.388 945.229C345.372 945.267 345.357 945.304 345.341 945.341L343.948 948.615C343.931 948.653 343.915 948.691 343.899 948.729L342.505 951.966C342.488 952.005 342.471 952.044 342.454 952.083L341.061 955.282C341.043 955.323 341.026 955.363 341.008 955.403L339.615 958.564C339.596 958.606 339.577 958.647 339.559 958.688L338.165 961.811C338.146 961.853 338.128 961.895 338.109 961.938L336.715 965.021L336.656 965.152L335.262 968.197L335.199 968.332L333.806 971.338C333.785 971.384 333.763 971.43 333.741 971.476L332.348 974.442C332.326 974.49 332.304 974.537 332.282 974.584L330.888 977.511L330.818 977.656L329.424 980.542C329.4 980.592 329.376 980.643 329.352 980.692L327.957 983.538L327.882 983.691L326.489 986.496L326.409 986.655L325.016 989.419L324.933 989.582L323.539 992.304C323.511 992.359 323.482 992.416 323.453 992.472L322.06 995.152L321.969 995.324L320.575 997.964L320.482 998.141L319.088 1000.74C319.056 1000.8 319.022 1000.86 318.99 1000.92L317.596 1003.47C317.562 1003.54 317.528 1003.6 317.493 1003.66L316.1 1006.17L315.992 1006.37L314.599 1008.83C314.562 1008.9 314.523 1008.97 314.486 1009.03L313.092 1011.46C313.053 1011.53 313.014 1011.59 312.975 1011.66L311.581 1014.04C311.54 1014.11 311.499 1014.18 311.457 1014.25L310.064 1016.59L309.935 1016.81L308.541 1019.1C308.496 1019.18 308.451 1019.25 308.406 1019.32L307.012 1021.57C306.965 1021.65 306.917 1021.73 306.869 1021.8L305.476 1024.01C305.426 1024.09 305.377 1024.16 305.326 1024.24L303.933 1026.4C303.881 1026.48 303.828 1026.56 303.776 1026.64L302.382 1028.76C302.328 1028.84 302.272 1028.93 302.217 1029.01L300.824 1031.08L300.651 1031.34L299.257 1033.36L299.075 1033.62L297.682 1035.61L297.491 1035.88L296.097 1037.81C296.03 1037.9 295.962 1038 295.895 1038.09L294.501 1039.98L294.289 1040.26L292.896 1042.11C292.822 1042.2 292.747 1042.3 292.672 1042.4L291.279 1044.19C291.201 1044.29 291.122 1044.39 291.043 1044.49L289.65 1046.25C289.568 1046.35 289.485 1046.45 289.402 1046.55L288.008 1048.26C287.922 1048.36 287.834 1048.47 287.746 1048.57L286.353 1050.23C286.262 1050.34 286.169 1050.45 286.076 1050.56L284.683 1052.17C284.587 1052.28 284.49 1052.39 284.392 1052.5L282.998 1054.06L282.692 1054.4L281.298 1055.92L280.973 1056.26L279.579 1057.73C279.466 1057.85 279.352 1057.97 279.238 1058.09L277.844 1059.51C277.725 1059.63 277.604 1059.75 277.483 1059.87L276.089 1061.25C275.963 1061.37 275.836 1061.5 275.707 1061.62L274.314 1062.94C274.181 1063.07 274.046 1063.2 273.91 1063.32L272.517 1064.6L272.092 1064.98L270.699 1066.21L270.248 1066.6L268.855 1067.78C268.699 1067.91 268.541 1068.04 268.382 1068.17L266.989 1069.31C266.823 1069.44 266.656 1069.57 266.489 1069.71L265.095 1070.79L264.567 1071.19L263.173 1072.23C262.99 1072.36 262.805 1072.5 262.618 1072.63L261.225 1073.62C261.032 1073.76 260.838 1073.89 260.642 1074.02L259.248 1074.96L258.632 1075.37L257.239 1076.26L256.593 1076.66L255.199 1077.5L254.52 1077.9L253.126 1078.69L252.416 1079.08L251.023 1079.82C250.776 1079.95 250.528 1080.08 250.278 1080.21L248.884 1080.9C248.628 1081.03 248.369 1081.15 248.109 1081.27L246.715 1081.92C246.446 1082.04 246.175 1082.16 245.903 1082.28L244.509 1082.87C244.23 1082.99 243.949 1083.11 243.667 1083.22L242.274 1083.76L241.397 1084.09L240.003 1084.59C239.704 1084.69 239.402 1084.79 239.1 1084.89L237.705 1085.34C237.55 1085.39 237.394 1085.44 237.239 1085.48L236.769 1085.62L235.375 1086.02C235.216 1086.06 235.055 1086.11 234.895 1086.15L234.413 1086.28L233.02 1086.62C232.692 1086.7 232.362 1086.78 232.032 1086.85L230.638 1087.15C230.303 1087.22 229.965 1087.29 229.627 1087.35L228.234 1087.6C227.892 1087.66 227.549 1087.71 227.205 1087.76L225.812 1087.96C225.638 1087.98 225.463 1088.01 225.289 1088.03L224.765 1088.09L223.371 1088.24C223.196 1088.26 223.019 1088.27 222.843 1088.29L222.314 1088.33L220.92 1088.43C220.565 1088.46 220.208 1088.48 219.852 1088.49L218.458 1088.54C218.281 1088.54 218.103 1088.55 217.925 1088.55L217.391 1088.56H215.996C215.64 1088.56 215.283 1088.55 214.927 1088.54L213.533 1088.49C213.356 1088.48 213.178 1088.47 213 1088.46L212.467 1088.43L211.074 1088.33C210.721 1088.3 210.368 1088.27 210.016 1088.23L208.622 1088.08C208.273 1088.05 207.924 1088 207.576 1087.95L206.183 1087.75C205.839 1087.7 205.495 1087.65 205.153 1087.59L203.759 1087.34C203.591 1087.31 203.422 1087.28 203.254 1087.24L202.751 1087.14L201.358 1086.84C201.027 1086.77 200.697 1086.7 200.369 1086.61L198.976 1086.26C198.654 1086.18 198.332 1086.1 198.013 1086.01L196.618 1085.61C196.462 1085.56 196.306 1085.52 196.151 1085.47L195.684 1085.33L194.29 1084.88C194.139 1084.83 193.987 1084.78 193.836 1084.73L193.385 1084.57L191.991 1084.07C191.699 1083.97 191.408 1083.86 191.118 1083.75L189.725 1083.2C189.442 1083.09 189.16 1082.97 188.881 1082.86L187.488 1082.26C187.216 1082.14 186.945 1082.02 186.677 1081.9L185.283 1081.25C185.023 1081.13 184.764 1081.01 184.507 1080.88L183.114 1080.19C182.865 1080.06 182.617 1079.93 182.371 1079.8L180.978 1079.06C180.739 1078.93 180.501 1078.8 180.266 1078.67L178.872 1077.87L178.195 1077.48L176.801 1076.63L176.157 1076.23L174.763 1075.34C174.556 1075.21 174.35 1075.08 174.147 1074.94L172.753 1074L172.17 1073.59L170.777 1072.61C170.59 1072.47 170.405 1072.34 170.222 1072.2L168.828 1071.17C168.652 1071.03 168.476 1070.9 168.302 1070.76L166.908 1069.68L166.409 1069.28L165.015 1068.15L164.541 1067.75L163.148 1066.57C162.997 1066.44 162.847 1066.31 162.699 1066.18L161.306 1064.95C161.163 1064.83 161.021 1064.7 160.881 1064.57L159.488 1063.29L159.085 1062.91L157.692 1061.59C157.564 1061.46 157.436 1061.34 157.31 1061.22L155.916 1059.84C155.795 1059.72 155.675 1059.6 155.556 1059.48L154.162 1058.06C154.047 1057.94 153.933 1057.82 153.82 1057.7L152.426 1056.23C152.317 1056.12 152.209 1056 152.102 1055.88L150.708 1054.37L150.402 1054.03L149.008 1052.46L148.717 1052.13L147.324 1050.52L147.048 1050.2L145.655 1048.54C145.567 1048.43 145.479 1048.33 145.393 1048.22L143.999 1046.52C143.916 1046.42 143.834 1046.31 143.752 1046.21L142.359 1044.46L142.122 1044.16L140.729 1042.36L140.506 1042.07L139.113 1040.22L138.901 1039.94L137.507 1038.05L137.306 1037.77L135.912 1035.84C135.848 1035.75 135.784 1035.66 135.721 1035.57L134.327 1033.58L134.145 1033.32L132.751 1031.29C132.693 1031.21 132.635 1031.13 132.578 1031.04L131.185 1028.97L131.021 1028.72L129.627 1026.6C129.575 1026.52 129.522 1026.44 129.47 1026.36L128.076 1024.2C128.026 1024.12 127.976 1024.04 127.927 1023.96L126.533 1021.76C126.486 1021.68 126.439 1021.61 126.392 1021.53L124.998 1019.28C124.953 1019.21 124.907 1019.13 124.863 1019.06L123.469 1016.76C123.426 1016.69 123.382 1016.62 123.339 1016.55L121.946 1014.21L121.823 1014L120.429 1011.62L120.311 1011.41L118.917 1008.99C118.88 1008.92 118.842 1008.85 118.805 1008.79L117.411 1006.32L117.304 1006.13L115.91 1003.61C115.876 1003.55 115.842 1003.49 115.808 1003.43L114.414 1000.87C114.382 1000.81 114.348 1000.75 114.316 1000.69L112.922 998.091C112.891 998.032 112.859 997.973 112.828 997.914L111.435 995.274C111.405 995.218 111.375 995.16 111.345 995.103L109.951 992.421L109.865 992.254L108.471 989.53L108.389 989.367L106.995 986.603C106.969 986.55 106.942 986.497 106.916 986.444L105.523 983.639L105.447 983.485L104.053 980.639C104.029 980.589 104.004 980.539 103.98 980.489L102.586 977.603C102.563 977.554 102.54 977.505 102.517 977.456L101.123 974.529C101.101 974.482 101.078 974.435 101.056 974.388L99.6624 971.421L99.5979 971.283L98.2044 968.276L98.1428 968.142L96.7493 965.096L96.6897 964.966L95.2962 961.881L95.2385 961.754L93.845 958.63C93.8268 958.589 93.8084 958.548 93.7903 958.507L92.3968 955.345L92.344 955.224L90.9505 952.024C90.9335 951.986 90.9165 951.946 90.8997 951.907L89.5061 948.67C89.4898 948.632 89.4735 948.594 89.4573 948.556L88.0637 945.281L88.0159 945.17L86.6223 941.858L86.5774 941.75L85.1839 938.401L85.1399 938.296L83.7464 934.911L83.7044 934.809L82.3108 931.388C82.2973 931.355 82.2832 931.321 82.2698 931.288L80.8762 927.832L80.8372 927.734L79.4436 924.242C79.4311 924.211 79.418 924.179 79.4055 924.147L78.012 920.621L77.9759 920.528L76.5823 916.968L76.5471 916.877L75.1536 913.282L75.1194 913.194L73.7259 909.565L73.6926 909.479L72.2991 905.817L72.2678 905.734L70.8743 902.039L70.844 901.957L69.4505 898.229L69.4202 898.15L68.0266 894.39C68.0172 894.364 68.0077 894.338 67.9983 894.312L66.6048 890.521L66.5774 890.445L65.1839 886.621L65.1575 886.548L63.7639 882.692L63.7376 882.621L62.344 878.735L62.3196 878.666L60.9261 874.75L60.9016 874.682L59.5081 870.735L59.4846 870.67L58.0911 866.694L58.0686 866.63L56.6751 862.625L56.6536 862.562L55.26 858.529L55.2386 858.468L53.845 854.405L53.8245 854.347L52.4309 850.257C52.4244 850.238 52.4179 850.218 52.4114 850.198L51.0178 846.081C51.0115 846.062 51.0046 846.043 50.9983 846.024L49.6048 841.881C49.5986 841.863 49.5933 841.843 49.5872 841.825L48.1936 837.654C48.1877 837.637 48.181 837.618 48.1751 837.601L46.7815 833.403L46.7649 833.352L45.3714 829.129C45.3659 829.112 45.3602 829.095 45.3548 829.078L43.9602 824.829L43.9446 824.78L42.5511 820.507C42.5459 820.491 42.5405 820.475 42.5354 820.459L41.1419 816.161C41.1369 816.146 41.1312 816.13 41.1262 816.114L39.7327 811.792C39.7279 811.777 39.7228 811.762 39.718 811.747L38.3245 807.401L38.3108 807.357L36.9173 802.988L36.9036 802.945L35.51 798.554L35.4964 798.513L34.1028 794.099L34.0901 794.058L33.7581 793H96.7171L96.8382 793.379L98.2317 797.701L99.594 801.904L100.971 806.128H100.972L102.349 810.326L103.742 814.549L105.101 818.641L106.476 822.757L107.85 826.845H107.851L109.225 830.904L110.598 834.935L111.97 838.935L113.342 842.906L114.713 846.846L116.107 850.821L117.453 854.634L118.847 858.55H118.846L120.189 862.294H120.19L121.557 866.076L122.95 869.899H122.949L124.287 873.539L125.652 877.221L127.015 880.867L128.401 884.542L129.738 888.055L131.121 891.658L132.455 895.101L133.813 898.568L135.206 902.095L136.523 905.394L137.875 908.749H137.876L139.251 912.125L140.577 915.346L141.971 918.693L143.272 921.785L144.616 924.945L145.983 928.12L147.324 931.198L148.662 934.235L149.975 937.178L151.309 940.132L152.641 943.043L153.988 945.949L155.349 948.849L156.691 951.664L158.011 954.399L159.259 956.948L160.597 959.643L161.954 962.335L163.192 964.754L164.519 967.309L165.819 969.771L167.143 972.24L168.381 974.512L169.73 976.943L170.949 979.104L172.326 981.504L173.528 983.559L174.86 985.795L176.039 987.738L177.366 989.883L178.574 991.795L179.772 993.655L181.044 995.59L182.297 997.454L183.475 999.168L184.696 1000.91L185.923 1002.61L187.051 1004.14L188.262 1005.74L189.418 1007.24L190.564 1008.68L191.736 1010.11L192.812 1011.39L193.952 1012.71L195.06 1013.96L196.153 1015.15L197.17 1016.22L198.218 1017.29L199.283 1018.34L200.263 1019.27L201.231 1020.16L202.207 1021.02L203.131 1021.81L204.057 1022.56L204.91 1023.23L205.783 1023.88L206.591 1024.45L207.384 1024.98L208.15 1025.47L208.893 1025.92L209.6 1026.32L210.258 1026.67L210.884 1026.99L211.5 1027.27L212.047 1027.51L212.6 1027.72L213.091 1027.9L213.564 1028.05L214.013 1028.18L214.421 1028.28L214.817 1028.36L215.197 1028.43L215.56 1028.48L215.888 1028.52L216.22 1028.54L216.549 1028.56H216.869L217.204 1028.54L217.531 1028.52L217.863 1028.49L218.239 1028.43L218.588 1028.37L218.996 1028.28L219.408 1028.18L219.855 1028.05L220.329 1027.9L220.842 1027.72L221.36 1027.51L221.938 1027.27L222.532 1026.99L223.162 1026.68L223.851 1026.31L224.513 1025.94L225.253 1025.49L226.025 1025L226.829 1024.45L227.636 1023.88L228.5 1023.24L229.367 1022.57L230.283 1021.82L231.219 1021.03L232.165 1020.19L233.153 1019.29L234.16 1018.33L235.172 1017.33L236.243 1016.24L237.255 1015.17L238.356 1013.97L239.466 1012.73L240.534 1011.49L241.677 1010.13L242.825 1008.73L243.98 1007.28L245.173 1005.74L246.286 1004.26L247.519 1002.59L248.715 1000.93L249.923 999.212L251.123 997.468L252.374 995.608L253.544 993.829L254.856 991.795L256.064 989.883L257.305 987.878L258.587 985.768L259.903 983.559L261.104 981.504L262.459 979.145L263.7 976.943L264.991 974.616L266.246 972.315L267.54 969.904L268.892 967.346L270.215 964.799L271.509 962.27L272.824 959.661L274.148 956.995L275.419 954.399L276.786 951.567L278.067 948.879L279.437 945.962L280.766 943.095L282.098 940.184L283.398 937.306L284.768 934.235L286.107 931.198L287.448 928.12L288.79 925.001L290.087 921.953L291.481 918.642L292.785 915.509L294.179 912.125L295.49 908.908L296.883 905.453L298.238 902.06L299.557 898.722L300.95 895.162L302.309 891.658L303.66 888.141L305.03 884.542L306.385 880.948L307.754 877.285L309.118 873.604L310.484 869.891L311.823 866.216L313.216 862.361L314.584 858.548L315.929 854.77L317.323 850.824L318.693 846.916L320.064 842.976L321.414 839.066L322.808 835.005L324.161 831.033L325.555 826.917L326.93 822.829L328.305 818.714L329.663 814.622L331.057 810.4L332.434 806.203L333.812 801.979L335.174 797.776L336.568 793.455L336.713 793H399.672L399.315 794.137ZM0.000270128 680.441L-0.947972 677.162L0.000270128 676.888V680.441ZM0.000270128 676.888L-0.947972 677.162C-2.87451 670.499 -2.38524 663.711 0.000270128 657.731V676.888ZM651.313 53.4473C651.491 53.4503 651.67 53.4547 651.848 53.4609L653.241 53.5098L653.775 53.5332C653.952 53.5425 654.13 53.5529 654.308 53.5654L655.701 53.6641L656.231 53.7061C656.407 53.7216 656.583 53.7382 656.759 53.7568L658.153 53.9053L658.676 53.9658C658.85 53.9874 659.025 54.0105 659.198 54.0352L660.592 54.2324L661.108 54.3105C661.279 54.3379 661.451 54.3661 661.622 54.3965L663.016 54.6445L663.522 54.7383C663.69 54.7712 663.859 54.806 664.027 54.8418L665.42 55.1387L665.915 55.248C666.08 55.286 666.245 55.3254 666.408 55.3662L667.802 55.7129L668.284 55.8379C668.445 55.8807 668.606 55.9243 668.766 55.9697L670.159 56.3662L670.628 56.5039C670.784 56.5509 670.94 56.5989 671.095 56.6484L672.489 57.0947L672.943 57.2441C673.094 57.2951 673.245 57.347 673.395 57.4004L674.788 57.8955L675.664 58.2227L677.058 58.7676L677.902 59.1123L679.295 59.7061L680.107 60.0664L681.5 60.71L682.278 61.083L683.671 61.7754L684.416 62.1582L685.81 62.9004L686.521 63.292L687.914 64.083L688.593 64.4805L689.987 65.3203L690.634 65.7217L692.028 66.6113L692.643 67.0146L694.036 67.9531L694.621 68.3564L696.015 69.3438L696.572 69.7471L697.965 70.7822L698.492 71.1836L699.886 72.2676L700.386 72.665L701.78 73.7979L702.254 74.1914L703.648 75.3721L704.097 75.7607L705.49 76.9902L705.916 77.373L707.31 78.6504L707.713 79.0273L709.107 80.3525L709.489 80.7217L710.882 82.0947L711.244 82.458L712.638 83.8789L712.981 84.2334L714.374 85.7021L714.698 86.0498L716.092 87.5654L716.4 87.9053L717.793 89.4678L718.084 89.7998L719.478 91.4102L719.754 91.7334L721.148 93.3906L721.409 93.7061L722.803 95.4102L723.052 95.7178L724.446 97.4688L724.681 97.7686L726.074 99.5654L726.298 99.8574L727.692 101.7L727.905 101.984L729.298 103.874L729.499 104.15L730.893 106.085L731.084 106.354L732.478 108.335L732.66 108.597L734.054 110.623L734.227 110.878L735.621 112.949L735.785 113.196L737.179 115.312L737.336 115.554L738.73 117.715L738.879 117.949L740.273 120.154L740.415 120.383L741.809 122.633L741.945 122.854L743.338 125.148L743.468 125.363L744.862 127.701L744.986 127.91L746.379 130.292L746.496 130.496L747.89 132.921L748.003 133.119L749.397 135.587L749.504 135.779L750.898 138.291L751 138.478L752.395 141.031L752.492 141.214L753.886 143.81L753.981 143.986L755.374 146.625L755.464 146.797L756.858 149.478L756.945 149.645L758.338 152.367L758.42 152.529L759.814 155.293L759.893 155.451L761.286 158.255L761.363 158.409L762.756 161.254L762.829 161.404L764.223 164.29L764.293 164.436L765.687 167.361L765.753 167.503L767.147 170.469L767.211 170.606L768.605 173.611L768.667 173.746L770.061 176.79L770.12 176.921L771.514 180.005L771.571 180.132L772.964 183.254L773.02 183.378L774.413 186.538L774.466 186.659L775.86 189.857L775.91 189.975L777.304 193.21L777.353 193.325L778.747 196.599L778.794 196.71L780.188 200.02L780.233 200.129L781.626 203.476L781.67 203.581L783.064 206.964L783.107 207.067L784.5 210.486L784.54 210.587L785.934 214.042L785.974 214.14L787.367 217.63L787.405 217.725L788.798 221.25L788.835 221.343L790.229 224.902L790.264 224.992L791.657 228.586L791.692 228.675L793.085 232.302L793.117 232.388L794.511 236.049L794.543 236.133L795.937 239.827L795.967 239.908L797.361 243.635L797.39 243.715L798.784 247.474L798.813 247.551L800.206 251.342L800.234 251.418L801.627 255.24L801.654 255.313L803.047 259.168L803.073 259.239L804.467 263.124L804.491 263.193L805.885 267.108L805.909 267.177L807.303 271.121L807.326 271.188L808.72 275.162L808.742 275.227L810.136 279.23L810.157 279.293L811.551 283.325L811.573 283.387L812.966 287.447L812.987 287.507L814.38 291.596L814.4 291.654L815.793 295.771L815.813 295.827L817.206 299.971L817.225 300.025L818.618 304.195L818.636 304.249L820.03 308.445L820.047 308.497L821.441 312.72L821.457 312.771L822.851 317.018L822.866 317.067L824.26 321.34L824.276 321.388L825.669 325.685L825.685 325.731L827.078 330.053L827.093 330.098L828.487 334.442L828.5 334.487L829.894 338.854L829.907 338.897L831.301 343.289L831.315 343.33L832.708 347.743L832.721 347.784L834.115 352.219L834.127 352.258L835.521 356.714L835.532 356.753L836.926 361.229L836.938 361.267L838.331 365.765L838.342 365.801L839.736 370.318L839.746 370.354L841.14 374.891L841.151 374.924L842.544 379.48L842.554 379.514L843.948 384.089L843.957 384.12L845.351 388.714L845.361 388.744L846.754 393.355L846.763 393.385L848.156 398.013L848.165 398.042L849.353 402H786.681L786.541 401.54V401.539L785.157 396.996V396.995L783.784 392.506V392.507L782.402 388.004L781.019 383.522L779.625 379.024V379.023L778.255 374.623L776.862 370.166V370.165L775.493 365.812L774.113 361.439L772.733 357.092L771.339 352.725V352.724L769.96 348.424V348.423L768.596 344.194L767.202 339.897V339.896L765.824 335.673V335.672L764.464 331.525L763.087 327.355L761.694 323.159V323.158L760.336 319.097V319.098L758.943 314.954V314.953L757.588 310.952L756.195 306.864V306.863L754.842 302.923V302.924L753.448 298.892V298.891L752.1 295.015L750.73 291.106L749.36 287.229V287.229L747.966 283.314V283.313L746.623 279.57V279.571L745.256 275.791L743.863 271.968V271.967L742.496 268.252V268.251L741.161 264.649L739.798 261.005L738.405 257.311V257.31L737.075 253.818L735.682 250.191V250.19L734.358 246.775L733 243.309L731.607 239.784V239.783L730.29 236.487L728.897 233.032V233.031L727.586 229.816L726.193 226.434V226.433L724.888 223.301L723.494 219.99V219.989L722.198 216.943L720.855 213.825L719.514 210.747L718.175 207.711L716.781 204.589H716.781L715.505 201.764L714.173 198.854L712.844 195.987L711.45 193.021H711.449L710.148 190.286L708.873 187.648L707.509 184.862L706.196 182.219L704.848 179.548V179.547L703.623 177.156L702.287 174.587L700.926 172.009H700.925L699.725 169.771L698.331 167.218H698.33L697.103 165.005L695.867 162.815L694.541 160.507L693.224 158.255L691.995 156.194L690.731 154.113L689.464 152.069L688.221 150.101L686.976 148.171L685.73 146.278L684.554 144.53L683.289 142.692L682.101 141.004L680.925 139.372L679.682 137.688L678.542 136.181L677.394 134.699L676.246 133.259L675.065 131.814L673.955 130.496L672.881 129.255L671.768 128.006L670.674 126.816L669.619 125.705L668.592 124.658L667.581 123.662L666.548 122.68L665.587 121.799L664.614 120.94L663.686 120.154L662.815 119.446L661.898 118.733L661.062 118.112L660.241 117.531L659.445 116.994L658.671 116.501L657.954 116.069L657.257 115.673L656.572 115.309L655.969 115.009L655.331 114.715L654.791 114.484L654.259 114.276L653.754 114.097L653.29 113.948L652.84 113.819L652.396 113.709L652.031 113.632L651.648 113.563L651.301 113.515L650.955 113.478L650.63 113.455L650.304 113.443H649.985L649.64 113.456L649.315 113.479L648.991 113.515L648.599 113.571L648.262 113.632L647.856 113.719L647.42 113.828L646.984 113.953L646.535 114.098L646.003 114.287L645.476 114.495L644.898 114.742L644.31 115.015L643.669 115.334L643.007 115.688L642.3 116.091L641.577 116.527L640.799 117.025L640.016 117.554L639.174 118.152L638.33 118.781L637.465 119.456L636.536 120.213L635.602 121.006L634.651 121.847L633.684 122.734L632.653 123.718L631.666 124.69L630.564 125.817L629.549 126.889L628.488 128.047L627.36 129.312L626.26 130.585L625.154 131.901L623.975 133.347L622.849 134.762L621.661 136.297L620.501 137.832L619.322 139.435L618.138 141.079L616.928 142.801L615.68 144.616L614.461 146.431L613.202 148.344L611.995 150.218L610.748 152.194L609.536 154.153L608.252 156.269L607.027 158.326L605.715 160.566L604.424 162.816L603.152 165.071L601.792 167.525L600.597 169.717L599.203 172.315L597.973 174.647L596.669 177.156L595.292 179.847L594.051 182.311L592.742 184.944L591.349 187.792L590.098 190.384L588.704 193.312L587.442 196L586.048 199.007L584.716 201.92L583.439 204.746L583.44 204.747L582.046 207.871L580.712 210.899L579.37 213.981L578.024 217.109L576.679 220.271L575.377 223.362L575.378 223.363L573.985 226.712L572.634 229.991L571.323 233.208L571.323 233.209L569.93 236.666L568.575 240.061L567.22 243.492L565.863 246.961L564.537 250.377L564.538 250.378L563.145 254.008L561.783 257.585L560.451 261.114L560.452 261.115L559.059 264.844L557.695 268.525L556.329 272.241L554.963 275.99L553.621 279.7L553.622 279.701L552.229 283.587L550.883 287.365L550.884 287.366L549.513 291.246L549.514 291.247L548.12 295.223L546.749 299.164L545.377 303.135L544.024 307.076L544.025 307.077L542.631 311.167L541.276 315.17L541.277 315.171L539.901 319.26L539.902 319.261L538.525 323.377L538.526 323.378L537.132 327.576L537.131 327.575L535.771 331.696L535.772 331.697L534.394 335.896L534.395 335.896L533.016 340.121L533.017 340.122L531.623 344.421L530.258 348.65L530.259 348.651L528.865 352.997L527.486 357.322L526.118 361.629L526.119 361.63L524.726 366.044L523.345 370.439L523.344 370.438L521.975 374.818L521.976 374.819L520.582 379.298L520.581 379.297L519.21 383.723L519.211 383.724L517.818 388.242L516.435 392.746L516.434 392.745L515.051 397.27L513.667 401.813L513.611 402H450.94L452.053 398.289L452.062 398.261L453.455 393.631L453.464 393.602L454.858 388.989L454.866 388.959L456.26 384.365L456.27 384.333L457.663 379.757L457.674 379.725L459.068 375.167L459.077 375.134L460.471 370.595L460.482 370.561L461.875 366.041L461.887 366.006L463.281 361.507L463.291 361.47L464.685 356.991L464.698 356.953L466.091 352.496L466.103 352.457L467.496 348.021L467.509 347.98L468.903 343.565L468.916 343.524L470.31 339.133L470.324 339.09L471.717 334.721L471.731 334.676L473.124 330.33L473.139 330.285L474.533 325.963L474.548 325.916L475.942 321.617L475.957 321.569L477.351 317.296L477.366 317.246L478.76 312.997L478.777 312.947L480.17 308.724L480.188 308.671L481.581 304.474L481.599 304.42L482.992 300.249L483.011 300.193L484.405 296.049L484.424 295.992L485.818 291.875L485.837 291.816L487.231 287.727L487.251 287.667L488.645 283.604L488.665 283.544L490.059 279.51L490.081 279.447L491.475 275.441L491.497 275.377L492.891 271.401L492.914 271.335L494.308 267.389L494.331 267.32L495.725 263.404L495.75 263.334L497.144 259.448L497.169 259.377L498.563 255.521L498.589 255.447L499.984 251.623L500.011 251.548L501.405 247.755L501.433 247.678L502.826 243.917L502.856 243.838L504.249 240.109L504.281 240.027L505.674 236.332L505.705 236.248L507.099 232.586L507.132 232.5L508.526 228.87L508.559 228.782L509.952 225.188L509.988 225.097L511.381 221.535L511.418 221.442L512.812 217.916L512.849 217.82L514.242 214.329L514.282 214.231L515.676 210.774L515.716 210.674L517.11 207.253L517.152 207.15L518.545 203.765L518.589 203.659L519.983 200.311L520.029 200.202L521.422 196.89L521.469 196.778L522.863 193.504L522.911 193.39L524.305 190.151L524.356 190.034L525.749 186.834L525.802 186.713L527.196 183.551L527.25 183.427L528.645 180.303L528.701 180.176L530.095 177.091L530.155 176.96L531.548 173.913L531.61 173.779L533.003 170.772L533.068 170.634L534.461 167.667L534.529 167.525L535.922 164.598L535.991 164.451L537.385 161.563L537.458 161.414L538.852 158.567L538.927 158.413L540.321 155.607L540.4 155.449L541.793 152.684L541.876 152.521L543.27 149.797L543.356 149.63L544.749 146.947L544.839 146.775L546.233 144.135L546.326 143.958L547.721 141.359L547.819 141.178L549.212 138.622L549.315 138.436L550.708 135.922L550.816 135.729L552.209 133.259L552.322 133.062L553.715 130.634L553.833 130.431L555.227 128.047L555.35 127.838L556.743 125.497L556.873 125.282L558.267 122.986L558.402 122.765L559.795 120.513L559.938 120.285L561.331 118.077L561.481 117.844L562.874 115.68L563.031 115.439L564.424 113.32L564.588 113.073L565.982 111L566.155 110.745L567.548 108.717L567.731 108.455L569.124 106.473L569.315 106.203L570.708 104.266L570.909 103.99L572.303 102.099L572.515 101.814L573.908 99.9688L574.132 99.6777L575.526 97.8779L575.76 97.5781L577.154 95.8262L577.402 95.5186L578.795 93.8125L579.056 93.4971L580.449 91.8369L580.725 91.5137L582.118 89.9014L582.409 89.5703L583.803 88.0049L584.11 87.665L585.503 86.1465L585.826 85.7998L587.22 84.3291L587.562 83.9746L588.955 82.5508L589.317 82.1885L590.71 80.8125L591.091 80.4434L592.485 79.1152L592.887 78.7393L594.281 77.46L594.704 77.0771L596.099 75.8457L596.546 75.457L597.94 74.2734L598.413 73.8799L599.807 72.7451L600.306 72.3477L601.699 71.2607L602.225 70.8604L603.618 69.8213L604.173 69.4189L605.567 68.4297L606.15 68.0254L607.543 67.085L608.157 66.6807L609.551 65.7891L610.197 65.3877L611.59 64.5449L612.267 64.1475L613.66 63.3535L614.37 62.9619L615.764 62.2178L616.507 61.834L617.901 61.1377L618.676 60.7646L620.07 60.1182L620.879 59.7578L622.273 59.1611L623.115 58.8154L624.508 58.2676L625.382 57.9404L626.776 57.4424L627.228 57.2852C627.378 57.234 627.53 57.1835 627.681 57.1348L629.074 56.6865L629.54 56.541C629.696 56.4937 629.853 56.4471 630.009 56.4023L631.403 56.0039L631.882 55.8711C632.042 55.8281 632.203 55.7864 632.365 55.7461L633.758 55.3965L634.25 55.2773C634.415 55.2391 634.58 55.2025 634.745 55.167L636.139 54.8672L636.643 54.7637C636.811 54.7305 636.98 54.6982 637.149 54.668L638.542 54.418L639.056 54.3311C639.227 54.3034 639.4 54.2766 639.572 54.252L640.965 54.0518L641.487 53.9814C641.661 53.9595 641.836 53.9388 642.01 53.9199L643.404 53.7695L643.932 53.7178C644.108 53.7019 644.285 53.6876 644.461 53.6748L645.855 53.5742L646.387 53.54C646.565 53.5304 646.743 53.5221 646.92 53.5156L648.314 53.4648L648.849 53.4502C649.027 53.4468 649.206 53.4445 649.384 53.4443L650.778 53.4434L651.313 53.4473ZM1518.09 53.4463C1518.27 53.4491 1518.45 53.453 1518.62 53.459L1520.02 53.5059L1520.55 53.5283C1520.73 53.5374 1520.91 53.5483 1521.08 53.5605L1522.48 53.6572L1523.01 53.6982C1523.18 53.7136 1523.36 53.7306 1523.53 53.749L1524.93 53.8955L1525.45 53.9551C1525.63 53.9764 1525.8 53.999 1525.97 54.0234L1527.37 54.2197L1527.88 54.2969C1528.06 54.324 1528.23 54.3527 1528.4 54.3828L1529.79 54.6279L1530.3 54.7217C1530.47 54.7543 1530.64 54.7887 1530.8 54.8242L1532.2 55.1191L1532.69 55.2285C1532.86 55.2663 1533.02 55.3061 1533.19 55.3467L1534.58 55.6914L1535.06 55.8154C1535.22 55.858 1535.38 55.9021 1535.54 55.9473L1536.94 56.3418L1537.41 56.4785C1537.56 56.5255 1537.72 56.5736 1537.88 56.623L1539.27 57.0674L1539.72 57.2168C1539.87 57.2676 1540.03 57.3199 1540.18 57.373L1541.57 57.8662L1542.45 58.1924L1543.84 58.7354L1544.68 59.0791L1546.08 59.6719L1546.89 60.0312L1548.28 60.6729L1549.06 61.0459L1550.46 61.7363L1551.2 62.1201L1552.6 62.8604L1553.31 63.251L1554.7 64.04L1555.38 64.4375L1556.78 65.2764L1557.42 65.6768L1558.82 66.5645L1559.43 66.9678L1560.83 67.9043L1561.41 68.3086L1562.81 69.2939L1563.36 69.6973L1564.76 70.7305L1565.29 71.1318L1566.68 72.2139L1567.18 72.6123L1568.58 73.7432L1569.05 74.1367L1570.44 75.3164L1570.89 75.7051L1572.29 76.9326L1572.71 77.3154L1574.11 78.5908L1574.51 78.9678L1575.91 80.291L1576.29 80.6611L1577.68 82.0332L1578.04 82.3955L1579.44 83.8145L1579.78 84.1699L1581.18 85.6367L1581.5 85.9844L1582.89 87.499L1583.2 87.8389L1584.59 89.4004L1584.89 89.7324L1586.28 91.3408L1586.56 91.6641L1587.95 93.3203L1588.21 93.6357L1589.61 95.3379L1589.86 95.6465L1591.25 97.3945L1591.49 97.6953L1592.88 99.4902L1593.1 99.7822L1594.5 101.624L1594.71 101.908L1596.1 103.796L1596.3 104.073L1597.7 106.006L1597.89 106.275L1599.28 108.255L1599.47 108.517L1600.86 110.541L1601.03 110.796L1602.43 112.866L1602.59 113.114L1603.99 115.229L1604.14 115.47L1605.54 117.629L1605.69 117.863L1607.08 120.067L1607.22 120.296L1608.62 122.544L1608.75 122.766L1610.15 125.059L1610.28 125.274L1611.67 127.61L1611.79 127.82L1613.19 130.2L1613.31 130.404L1614.7 132.827L1614.81 133.025L1616.21 135.492L1616.31 135.685L1617.71 138.194L1617.81 138.382L1619.2 140.935L1619.3 141.116L1620.7 143.711L1620.79 143.888L1622.18 146.525L1622.27 146.697L1623.67 149.376L1623.75 149.544L1625.15 152.264L1625.23 152.427L1626.62 155.188L1626.7 155.347L1628.1 158.15L1628.17 158.304L1629.57 161.147L1629.64 161.298L1631.03 164.182L1631.1 164.328L1632.5 167.252L1632.56 167.394L1633.96 170.358L1634.02 170.496L1635.42 173.5L1635.48 173.635L1636.87 176.678L1636.93 176.809L1638.32 179.891L1638.38 180.018L1639.78 183.139L1639.83 183.263L1641.22 186.422L1641.28 186.542L1642.67 189.739L1642.72 189.856L1644.12 193.092L1644.16 193.206L1645.56 196.478L1645.6 196.59L1647 199.898L1647.04 200.007L1648.44 203.353L1648.48 203.458L1649.88 206.841L1649.92 206.943L1651.31 210.361L1651.35 210.462L1652.75 213.915L1652.78 214.014L1654.18 217.502L1654.22 217.598L1655.61 221.121L1655.65 221.214L1657.04 224.772L1657.08 224.863L1658.47 228.456L1658.5 228.544L1659.9 232.17L1659.93 232.256L1661.32 235.916L1661.35 236L1662.75 239.692L1662.78 239.774L1664.17 243.5L1664.2 243.579L1665.6 247.338L1665.62 247.415L1667.02 251.205L1667.05 251.28L1668.44 255.102L1668.47 255.176L1669.86 259.028L1669.89 259.1L1671.28 262.983L1671.3 263.053L1672.7 266.967L1672.72 267.035L1674.12 270.979L1674.14 271.045L1675.53 275.019L1675.55 275.083L1676.95 279.086L1676.97 279.149L1678.36 283.181L1678.39 283.241L1679.78 287.302L1679.8 287.361L1681.19 291.449L1681.21 291.507L1682.61 295.622L1682.62 295.679L1684.02 299.821L1684.04 299.877L1685.43 304.046L1685.45 304.1L1686.84 308.295L1686.86 308.347L1688.25 312.568L1688.27 312.619L1689.66 316.865L1689.68 316.915L1691.07 321.187L1691.09 321.234L1692.48 325.531L1692.5 325.577L1693.89 329.897L1693.91 329.943L1695.3 334.287L1695.31 334.331L1696.71 338.698L1696.72 338.741L1698.11 343.132L1698.13 343.173L1699.52 347.586L1699.53 347.626L1700.93 352.061L1700.94 352.1L1702.33 356.555L1702.34 356.594L1703.74 361.07L1703.75 361.107L1705.14 365.604L1705.15 365.64L1706.55 370.157L1706.56 370.192L1707.95 374.729L1707.96 374.763L1709.36 379.318L1709.37 379.351L1710.76 383.926L1710.77 383.957L1712.16 388.55L1712.17 388.58L1713.57 393.19L1713.58 393.221L1714.97 397.848L1714.98 397.877L1716.22 402H1653.54L1653.36 401.411L1651.98 396.869L1650.59 392.313V392.312L1649.22 387.846L1647.83 383.364L1646.44 378.867V378.866L1645.07 374.466L1643.68 370.011V370.01L1642.29 365.616V365.615L1640.93 361.285V361.286L1639.55 356.938L1638.15 352.571V352.57L1636.77 348.272V348.271L1635.41 344.044L1634.02 339.748V339.747L1632.64 335.524V335.523L1631.28 331.378L1629.9 327.208V327.209L1628.51 323.014V323.013L1627.15 318.953L1625.76 314.811V314.81L1624.4 310.81L1623.01 306.722V306.721L1621.64 302.722V302.721L1620.26 298.751V298.75L1618.91 294.876L1617.54 290.969L1616.17 287.093L1614.78 283.179V283.178L1613.44 279.437L1612.04 275.584V275.583L1610.7 271.911L1609.34 268.199L1607.97 264.521L1606.58 260.795V260.794L1605.25 257.267L1603.86 253.607V253.606L1602.5 250.066V250.065L1601.17 246.652L1599.81 243.188L1598.46 239.759L1597.1 236.368L1595.71 232.914V232.913L1594.4 229.7L1593.01 226.318V226.317L1591.7 223.187L1590.31 219.878V219.877L1589.01 216.832L1587.67 213.715L1587.62 213.598H1587.62L1586.33 210.64L1584.93 207.48V207.479L1583.65 204.611L1582.32 201.66L1580.93 198.617H1580.93L1579.66 195.887L1578.27 192.923H1578.26L1577.01 190.286L1575.62 187.402V187.401L1574.33 184.784L1573.06 182.219L1571.7 179.523L1570.38 176.956L1569.14 174.56L1567.84 172.1L1566.48 169.566L1565.15 167.135H1565.15L1563.9 164.894L1562.57 162.538H1562.57L1561.33 160.387L1560.05 158.2L1558.79 156.076L1557.51 153.986L1556.32 152.055L1555.06 150.067L1553.81 148.128L1552.58 146.267L1551.34 144.414L1550.15 142.687L1548.94 140.972L1547.71 139.271L1546.53 137.665L1545.4 136.179L1544.21 134.646L1543.03 133.155L1541.93 131.814L1540.78 130.45L1539.68 129.188L1538.6 127.975L1537.51 126.79L1536.41 125.634L1535.43 124.633L1534.39 123.611L1533.42 122.688L1532.4 121.758L1531.46 120.923L1530.54 120.146L1529.62 119.398L1528.73 118.71L1527.9 118.095L1527.08 117.515L1526.26 116.965L1525.53 116.497L1524.8 116.057L1524.1 115.66L1523.42 115.299L1522.81 114.996L1522.2 114.716L1521.62 114.471L1521.1 114.27L1520.59 114.089L1520.11 113.936L1519.69 113.816L1519.27 113.713L1518.87 113.628L1518.5 113.562L1518.15 113.514L1517.8 113.477L1517.48 113.454L1517.14 113.443H1516.82L1516.49 113.456L1516.17 113.48L1515.83 113.518L1515.48 113.567L1515.09 113.639L1514.7 113.723L1514.28 113.828L1513.85 113.951L1513.34 114.117L1512.86 114.288L1512.33 114.499L1511.75 114.746L1511.13 115.033L1510.52 115.338L1509.84 115.707L1509.14 116.104L1508.42 116.539L1507.64 117.04L1506.85 117.575L1506 118.176L1505.16 118.805L1504.29 119.487L1503.38 120.228L1502.45 121.021L1501.47 121.883L1500.5 122.776L1499.49 123.74L1498.47 124.745L1497.43 125.819L1496.38 126.924L1495.28 128.122L1494.19 129.343L1493.09 130.624L1491.97 131.961L1490.8 133.394L1489.67 134.814L1488.51 136.312L1487.36 137.832L1486.1 139.545L1484.97 141.116L1483.71 142.912L1482.54 144.626L1481.28 146.488L1480.09 148.312L1478.85 150.231L1477.61 152.203L1476.29 154.328L1475.04 156.388L1473.77 158.52L1472.5 160.71L1471.24 162.902L1469.94 165.203L1468.66 167.514L1467.36 169.89L1466.11 172.226L1464.76 174.779L1463.49 177.234L1462.19 179.775L1462.19 179.776L1460.8 182.543L1459.56 185.039L1458.16 187.888L1456.91 190.481L1456.91 190.482L1455.52 193.411L1454.26 196.101L1452.86 199.109L1451.59 201.893L1450.2 204.979L1448.86 207.978L1447.52 211.018L1446.18 214.099L1444.84 217.221L1443.49 220.383L1442.19 223.476L1442.19 223.477L1440.84 226.721L1440.84 226.722L1439.45 230.107L1438.14 233.326L1438.14 233.327L1436.74 236.785L1435.39 240.181L1434.07 243.521L1434.07 243.521L1432.68 247.084L1432.68 247.083L1431.35 250.502L1431.35 250.503L1429.99 254.047L1429.99 254.048L1428.6 257.712L1427.24 261.325L1425.87 264.974L1424.51 268.656L1423.17 272.297L1423.17 272.298L1421.78 276.123L1420.41 279.906L1419.04 283.723L1417.7 287.502L1417.7 287.503L1416.33 291.384L1416.33 291.385L1414.93 295.361L1413.56 299.304L1412.19 303.276L1412.19 303.275L1410.84 307.218L1410.84 307.219L1409.44 311.31L1408.09 315.313L1408.09 315.314L1406.7 319.46L1406.7 319.459L1405.34 323.523L1405.34 323.524L1403.95 327.723L1402.57 331.896L1401.21 336.044L1401.21 336.045L1399.83 340.271L1399.83 340.272L1398.44 344.571L1397.07 348.802L1397.07 348.803L1395.68 353.149L1394.3 357.476L1392.93 361.782L1392.93 361.783L1391.55 366.157L1391.55 366.158L1390.16 370.595L1390.16 370.594L1388.78 375.014L1387.41 379.417L1387.41 379.418L1386.01 383.917L1384.63 388.401L1383.26 392.871L1383.26 392.872L1381.86 397.43L1380.49 401.941L1380.49 401.942L1380.47 402H1317.8L1318.87 398.454L1318.87 398.426L1320.27 393.796L1320.28 393.766L1321.67 389.153L1321.68 389.123L1323.07 384.528L1323.08 384.496L1324.48 379.92L1324.49 379.887L1325.88 375.329L1325.89 375.295L1327.28 370.756L1327.29 370.722L1328.69 366.202L1328.7 366.166L1330.09 361.667L1330.1 361.63L1331.5 357.15L1331.51 357.112L1332.9 352.654L1332.92 352.615L1334.31 348.179L1334.32 348.138L1335.72 343.723L1335.73 343.682L1337.12 339.289L1337.14 339.246L1338.53 334.876L1338.54 334.832L1339.94 330.485L1339.95 330.439L1341.34 326.116L1341.36 326.07L1342.75 321.771L1342.77 321.723L1344.16 317.448L1344.18 317.398L1345.57 313.149L1345.59 313.099L1346.98 308.874L1347 308.822L1348.39 304.623L1348.41 304.57L1349.8 300.397L1349.82 300.343L1351.22 296.197L1351.24 296.141L1352.63 292.021L1352.65 291.964L1354.04 287.873L1354.06 287.813L1355.46 283.75L1355.48 283.688L1356.87 279.654L1356.89 279.591L1358.29 275.585L1358.31 275.521L1359.7 271.543L1359.73 271.478L1361.12 267.529L1361.14 267.462L1362.54 263.544L1362.56 263.475L1363.96 259.587L1363.98 259.516L1365.38 255.659L1365.4 255.586L1366.8 251.761L1366.82 251.686L1368.22 247.892L1368.24 247.814L1369.64 244.052L1369.67 243.973L1371.06 240.243L1371.09 240.162L1372.49 236.465L1372.52 236.382L1373.91 232.718L1373.94 232.632L1375.34 229.001L1375.37 228.913L1376.76 225.316L1376.8 225.227L1378.19 221.664L1378.23 221.571L1379.62 218.043L1379.66 217.948L1381.05 214.455L1381.09 214.357L1382.49 210.899L1382.53 210.8L1383.92 207.377L1383.96 207.274L1385.36 203.888L1385.4 203.782L1386.79 200.433L1386.84 200.324L1388.23 197.011L1388.28 196.899L1389.67 193.623L1389.72 193.509L1391.12 190.27L1391.17 190.152L1392.56 186.95L1392.61 186.83L1394.01 183.666L1394.06 183.543L1395.46 180.417L1395.51 180.29L1396.91 177.203L1396.97 177.073L1398.36 174.025L1398.42 173.891L1399.81 170.883L1399.88 170.745L1401.27 167.775L1401.34 167.634L1402.73 164.705L1402.8 164.56L1404.2 161.671L1404.27 161.521L1405.66 158.673L1405.74 158.519L1407.13 155.711L1407.21 155.553L1408.6 152.786L1408.69 152.624L1410.08 149.898L1410.17 149.731L1411.56 147.047L1411.65 146.876L1413.04 144.233L1413.14 144.058L1414.53 141.457L1414.63 141.275L1416.02 138.718L1416.12 138.531L1417.52 136.017L1417.63 135.824L1419.02 133.353L1419.13 133.155L1420.52 130.727L1420.64 130.523L1422.04 128.138L1422.16 127.929L1423.55 125.587L1423.68 125.372L1425.07 123.074L1425.21 122.854L1426.6 120.6L1426.75 120.372L1428.14 118.162L1428.29 117.929L1429.68 115.764L1429.84 115.523L1431.23 113.403L1431.4 113.156L1432.79 111.081L1432.96 110.827L1434.35 108.797L1434.54 108.535L1435.93 106.551L1436.12 106.282L1437.51 104.344L1437.72 104.067L1439.11 102.174L1439.32 101.891L1440.71 100.044L1440.94 99.752L1442.33 97.9512L1442.56 97.6523L1443.96 95.8975L1444.21 95.5908L1445.6 93.8828L1445.86 93.5674L1447.25 91.9062L1447.53 91.583L1448.92 89.9688L1449.21 89.6377L1450.61 88.0703L1450.91 87.7314L1452.3 86.2119L1452.63 85.8652L1454.02 84.3926L1454.36 84.0381L1455.76 82.6133L1456.12 82.251L1457.51 80.874L1457.89 80.5049L1459.28 79.1748L1459.68 78.7988L1461.08 77.5176L1461.5 77.1348L1462.9 75.9014L1463.34 75.5137L1464.74 74.3281L1465.21 73.9355L1466.6 72.7988L1467.1 72.4014L1468.49 71.3125L1469.02 70.9121L1470.41 69.8721L1470.97 69.4688L1472.36 68.4775L1472.94 68.0732L1474.34 67.1309L1474.95 66.7275L1476.34 65.834L1476.99 65.4326L1478.38 64.5879L1479.05 64.1904L1480.45 63.3945L1481.16 63.0029L1482.55 62.2568L1483.29 61.8721L1484.69 61.1758L1485.46 60.8018L1486.85 60.1533L1487.66 59.792L1489.06 59.1934L1489.9 58.8477L1491.29 58.2988L1492.16 57.9697L1493.56 57.4707L1494.01 57.3125C1494.16 57.2612 1494.31 57.211 1494.46 57.1621L1495.85 56.7119L1496.32 56.5664C1496.48 56.519 1496.63 56.4726 1496.79 56.4277L1498.18 56.0264L1498.66 55.8936C1498.82 55.8504 1498.98 55.8081 1499.14 55.7676L1500.54 55.417L1501.03 55.2969C1501.19 55.2584 1501.36 55.2212 1501.52 55.1855L1502.92 54.8848L1503.42 54.7803C1503.59 54.747 1503.76 54.715 1503.93 54.6846L1505.32 54.4326L1505.83 54.3447C1506 54.3169 1506.18 54.2905 1506.35 54.2656L1507.74 54.0635L1508.26 53.9922C1508.44 53.9701 1508.61 53.9497 1508.79 53.9307L1510.18 53.7783L1510.71 53.7256C1510.88 53.7095 1511.06 53.6946 1511.24 53.6816L1512.63 53.5791L1513.16 53.5449C1513.34 53.535 1513.52 53.5263 1513.7 53.5195L1515.09 53.4668L1515.62 53.4512C1515.8 53.4476 1515.98 53.4457 1516.16 53.4453L1517.55 53.4424L1518.09 53.4463Z" fill="white"/>
<path d="M824.857 745.428C803.209 745.428 784.39 741.861 768.4 734.727C752.41 727.593 739.495 717.876 729.655 705.576L761.758 670.152C771.106 680.484 781.315 688.11 792.385 693.03C803.701 697.95 815.14 700.41 826.702 700.41C839.986 700.41 850.072 697.458 856.96 691.554C863.848 685.65 867.292 677.163 867.292 666.093C867.292 656.991 864.586 650.103 859.174 645.429C854.008 640.755 845.152 637.434 832.606 635.466L805.669 631.038C782.545 627.102 765.817 618.615 755.485 605.577C745.153 592.293 739.987 576.18 739.987 557.238C739.987 532.392 748.105 513.204 764.341 499.674C780.577 485.898 803.332 479.01 832.606 479.01C852.532 479.01 869.875 482.085 884.635 488.235C899.395 494.385 911.326 502.749 920.428 513.327L889.063 548.382C882.175 540.756 874.057 534.852 864.709 530.67C855.361 526.242 844.783 524.028 832.975 524.028C808.129 524.028 795.706 534.237 795.706 554.655C795.706 563.511 798.412 570.153 803.824 574.581C809.482 579.009 818.584 582.33 831.13 584.544L858.067 589.341C878.977 593.031 895.09 600.903 906.406 612.957C917.722 625.011 923.38 641.247 923.38 661.665C923.38 673.719 921.289 684.912 917.107 695.244C912.925 705.33 906.652 714.186 898.288 721.812C889.924 729.192 879.592 734.973 867.292 739.155C855.238 743.337 841.093 745.428 824.857 745.428ZM1004.42 741V483.438H1104.05C1116.59 483.438 1127.79 485.406 1137.63 489.342C1147.47 493.032 1155.71 498.444 1162.35 505.578C1169.24 512.712 1174.4 521.322 1177.85 531.408C1181.29 541.494 1183.01 552.81 1183.01 565.356C1183.01 577.902 1181.29 589.218 1177.85 599.304C1174.4 609.39 1169.24 618 1162.35 625.134C1155.71 632.268 1147.47 637.803 1137.63 641.739C1127.79 645.429 1116.59 647.274 1104.05 647.274H1060.14V741H1004.42ZM1060.14 602.625H1090.02C1103.06 602.625 1112.04 600.165 1116.96 595.245C1122.13 590.325 1124.71 582.207 1124.71 570.891V559.821C1124.71 548.505 1122.13 540.387 1116.96 535.467C1112.04 530.547 1103.06 528.087 1090.02 528.087H1060.14V602.625ZM1386.19 704.469H1382.87C1380.65 709.881 1377.95 715.047 1374.75 719.967C1371.55 724.887 1367.61 729.315 1362.94 733.251C1358.27 736.941 1352.73 739.893 1346.33 742.107C1340.18 744.321 1333.17 745.428 1325.3 745.428C1312.76 745.428 1301.56 742.476 1291.72 736.572C1282.13 730.668 1274.01 722.058 1267.37 710.742C1260.73 699.426 1255.68 685.65 1252.24 669.414C1249.04 653.178 1247.44 634.851 1247.44 614.433C1247.44 570.645 1255.44 537.189 1271.43 514.065C1287.42 490.695 1312.14 479.01 1345.6 479.01C1358.88 479.01 1370.57 480.855 1380.65 484.545C1390.74 487.989 1399.35 493.032 1406.48 499.674C1413.86 506.07 1419.89 513.819 1424.56 522.921C1429.24 532.023 1432.93 542.109 1435.63 553.179L1383.97 565.725C1382.5 560.313 1380.77 555.147 1378.81 550.227C1377.08 545.061 1374.75 540.51 1371.8 536.574C1368.84 532.638 1365.15 529.563 1360.73 527.349C1356.3 524.889 1350.89 523.659 1344.49 523.659C1330.47 523.659 1320.5 529.44 1314.6 541.002C1308.94 552.564 1306.11 568.8 1306.11 589.71V631.776C1306.11 652.686 1309.19 669.414 1315.34 681.96C1321.73 694.506 1332.93 700.779 1348.92 700.779C1361.46 700.779 1370.81 697.089 1376.96 689.709C1383.11 682.329 1386.19 672.858 1386.19 661.296V642.477H1342.28V603.363H1435.63V741H1386.19V704.469Z" fill="white"/>
</g>
<defs>
<clipPath id="clip0_8_25">
<rect width="2174" height="1120" fill="white" transform="translate(0 11)"/>
</clipPath>
</defs>
</svg>
