<svg width="174" height="85" viewBox="0 0 174 85" fill="none" xmlns="http://www.w3.org/2000/svg">
<path d="M30.8869 16.7452L31.2838 33.0546H29.8044C29.1068 28.9652 27.3869 25.6817 24.6446 23.204C21.9263 20.7023 18.9796 19.4514 15.8043 19.4514C13.3506 19.4514 11.4022 20.1129 9.95886 21.436C8.5396 22.7349 7.82997 24.2384 7.82997 25.9463C7.82997 27.0288 8.08255 27.991 8.58771 28.8329C9.28531 29.9635 10.4039 31.0821 11.9434 32.1886C13.074 32.9825 15.684 34.3897 19.7734 36.4103C25.4985 39.2248 29.3594 41.8829 31.356 44.3846C33.3285 46.8864 34.3148 49.7489 34.3148 52.9723C34.3148 57.0617 32.7151 60.5858 29.5157 63.5446C26.3405 66.4793 22.2992 67.9467 17.3919 67.9467C15.8524 67.9467 14.397 67.7903 13.0259 67.4776C11.6547 67.1649 9.9348 66.5756 7.86605 65.7096C6.7114 65.2285 5.76122 64.9879 5.01551 64.9879C4.39008 64.9879 3.72856 65.2285 3.03096 65.7096C2.33336 66.1907 1.76806 66.9244 1.33506 67.9106H0V49.4362H1.33506C2.39349 54.6321 4.42616 58.6013 7.43306 61.3436C10.464 64.0618 13.7235 65.4209 17.2115 65.4209C19.9057 65.4209 22.0466 64.6872 23.6342 63.2199C25.2459 61.7525 26.0518 60.0446 26.0518 58.0961C26.0518 56.9414 25.7391 55.8229 25.1136 54.7404C24.5123 53.6579 23.5861 52.6356 22.3353 51.6734C21.0844 50.6871 18.8713 49.4122 15.696 47.8486C11.2458 45.6596 8.04647 43.7953 6.098 42.2557C4.14952 40.7162 2.64607 38.9963 1.58764 37.0959C0.55327 35.1955 0.0360828 33.1027 0.0360828 30.8175C0.0360828 26.9205 1.46737 23.6009 4.32994 20.8586C7.19251 18.1163 10.8008 16.7452 15.1548 16.7452C16.7424 16.7452 18.282 16.9376 19.7734 17.3225C20.904 17.6112 22.2751 18.1524 23.8868 18.9462C25.5226 19.716 26.6652 20.1009 27.3147 20.1009C27.9401 20.1009 28.4333 19.9085 28.7941 19.5236C29.1549 19.1387 29.4917 18.2126 29.8044 16.7452H30.8869Z" fill="#2C5595"/>
<path d="M74.6109 44.6372V58.2043C74.6109 60.8504 74.7673 62.5223 75.08 63.2199C75.4168 63.8934 75.9941 64.4346 76.812 64.8436C77.6539 65.2525 79.1814 65.457 81.3945 65.457V66.7921H56.5334V65.457C58.7946 65.457 60.3221 65.2525 61.116 64.8436C61.9338 64.4106 62.4991 63.8573 62.8119 63.1838C63.1486 62.5102 63.317 60.8504 63.317 58.2043V26.4515C63.317 23.8054 63.1486 22.1456 62.8119 21.472C62.4991 20.7744 61.9338 20.2212 61.116 19.8122C60.2981 19.4033 58.7706 19.1988 56.5334 19.1988V17.8638H77.8584C84.8825 17.8638 89.9221 19.1146 92.9771 21.6164C96.0321 24.1181 97.5596 27.2453 97.5596 30.9979C97.5596 34.1732 96.5733 36.8914 94.6008 39.1526C92.6283 41.4138 89.91 42.9533 86.4461 43.7712C84.1127 44.3485 80.1677 44.6372 74.6109 44.6372ZM74.6109 20.6782V41.8227C75.4048 41.8709 76.0061 41.8949 76.4151 41.8949C79.3498 41.8949 81.611 41.0289 83.1986 39.297C84.7863 37.5409 85.5801 34.8347 85.5801 31.1783C85.5801 27.546 84.7863 24.8879 83.1986 23.204C81.611 21.5202 79.2416 20.6782 76.0903 20.6782H74.6109Z" fill="#2C5595"/>
<path d="M167.052 16.7452V33.9928H165.717C164.106 29.278 161.688 25.6937 158.465 23.2401C155.241 20.7865 151.717 19.5597 147.892 19.5597C144.236 19.5597 141.193 20.594 138.763 22.6628C136.334 24.7075 134.614 27.57 133.604 31.2505C132.593 34.9309 132.088 38.7076 132.088 42.5805C132.088 47.2713 132.641 51.3847 133.748 54.9208C134.854 58.4569 136.634 61.0549 139.088 62.7147C141.566 64.3745 144.501 65.2044 147.892 65.2044C149.071 65.2044 150.274 65.0841 151.501 64.8436C152.751 64.579 154.026 64.2061 155.325 63.725V53.5497C155.325 51.6252 155.193 50.3864 154.928 49.8331C154.664 49.2558 154.111 48.7386 153.269 48.2816C152.451 47.8245 151.453 47.596 150.274 47.596H149.011V46.2609H172.789V47.596C170.985 47.7163 169.722 47.9689 169.001 48.3537C168.303 48.7146 167.762 49.328 167.377 50.194C167.161 50.651 167.052 51.7696 167.052 53.5497V63.725C163.925 65.1202 160.666 66.1666 157.274 66.8642C153.906 67.5859 150.406 67.9467 146.774 67.9467C142.131 67.9467 138.27 67.3213 135.191 66.0704C132.136 64.7955 129.43 63.1357 127.073 61.091C124.739 59.0222 122.911 56.7009 121.588 54.127C119.904 50.8074 119.062 47.0908 119.062 42.9774C119.062 35.6165 121.648 29.3982 126.82 24.3226C131.992 19.2469 138.499 16.7091 146.341 16.7091C148.77 16.7091 150.959 16.9016 152.908 17.2864C153.966 17.4789 155.674 18.0321 158.032 18.9462C160.413 19.8363 161.82 20.2813 162.253 20.2813C162.927 20.2813 163.552 20.0408 164.13 19.5597C164.707 19.0545 165.236 18.1163 165.717 16.7452H167.052Z" fill="#2C5595"/>
<rect width="173.375" height="14.2111" fill="#2C5595"/>
<rect y="70.7889" width="173.375" height="14.2111" fill="#2C5595"/>
</svg>
