<svg width="174" height="85" viewBox="0 0 174 85" fill="none" xmlns="http://www.w3.org/2000/svg">
<g clip-path="url(#clip0_8_43)">
<path d="M173.375 0H0V14.2111H173.375V0Z" fill="white"/>
<path d="M173.375 70.7888H0V84.9999H173.375V70.7888Z" fill="white"/>
<path d="M20.7735 67.768C17.0188 67.768 13.7548 67.1493 10.9815 65.912C8.20816 64.6747 5.96816 62.9893 4.2615 60.856L9.8295 54.712C11.4508 56.504 13.2215 57.8267 15.1415 58.68C17.1042 59.5333 19.0882 59.96 21.0935 59.96C23.3975 59.96 25.1468 59.448 26.3415 58.424C27.5362 57.4 28.1335 55.928 28.1335 54.008C28.1335 52.4293 27.6642 51.2347 26.7255 50.424C25.8295 49.6133 24.2935 49.0373 22.1175 48.696L17.4455 47.928C13.4348 47.2453 10.5335 45.7733 8.7415 43.512C6.9495 41.208 6.0535 38.4133 6.0535 35.128C6.0535 30.8187 7.4615 27.4907 10.2775 25.144C13.0935 22.7547 17.0402 21.56 22.1175 21.56C25.5735 21.56 28.5815 22.0933 31.1415 23.16C33.7015 24.2267 35.7708 25.6773 37.3495 27.512L31.9095 33.592C30.7148 32.2693 29.3068 31.2453 27.6855 30.52C26.0642 29.752 24.2295 29.368 22.1815 29.368C17.8722 29.368 15.7175 31.1387 15.7175 34.68C15.7175 36.216 16.1868 37.368 17.1255 38.136C18.1068 38.904 19.6855 39.48 21.8615 39.864L26.5335 40.696C30.1602 41.336 32.9548 42.7013 34.9175 44.792C36.8802 46.8827 37.8615 49.6987 37.8615 53.24C37.8615 55.3307 37.4988 57.272 36.7735 59.064C36.0482 60.8133 34.9602 62.3493 33.5095 63.672C32.0588 64.952 30.2668 65.9547 28.1335 66.68C26.0428 67.4053 23.5895 67.768 20.7735 67.768ZM73.6765 67V22.328H90.9565C93.1325 22.328 95.0738 22.6693 96.7805 23.352C98.4872 23.992 99.9165 24.9307 101.069 26.168C102.263 27.4053 103.159 28.8987 103.757 30.648C104.354 32.3973 104.653 34.36 104.653 36.536C104.653 38.712 104.354 40.6747 103.757 42.424C103.159 44.1733 102.263 45.6667 101.069 46.904C99.9165 48.1413 98.4872 49.1013 96.7805 49.784C95.0738 50.424 93.1325 50.744 90.9565 50.744H83.3405V67H73.6765ZM83.3405 43H88.5245C90.7858 43 92.3432 42.5733 93.1965 41.72C94.0925 40.8667 94.5405 39.4587 94.5405 37.496V35.576C94.5405 33.6133 94.0925 32.2053 93.1965 31.352C92.3432 30.4987 90.7858 30.072 88.5245 30.072H83.3405V43ZM161.652 60.664H161.076C160.692 61.6027 160.222 62.4987 159.668 63.352C159.113 64.2053 158.43 64.9733 157.62 65.656C156.809 66.296 155.849 66.808 154.74 67.192C153.673 67.576 152.457 67.768 151.092 67.768C148.916 67.768 146.974 67.256 145.268 66.232C143.604 65.208 142.196 63.7147 141.044 61.752C139.892 59.7893 139.017 57.4 138.42 54.584C137.865 51.768 137.588 48.5893 137.588 45.048C137.588 37.4533 138.974 31.6507 141.748 27.64C144.521 23.5867 148.809 21.56 154.612 21.56C156.916 21.56 158.942 21.88 160.692 22.52C162.441 23.1173 163.934 23.992 165.172 25.144C166.452 26.2533 167.497 27.5973 168.308 29.176C169.118 30.7547 169.758 32.504 170.228 34.424L161.268 36.6C161.012 35.6613 160.713 34.7653 160.372 33.912C160.073 33.016 159.668 32.2267 159.156 31.544C158.644 30.8613 158.004 30.328 157.236 29.944C156.468 29.5173 155.529 29.304 154.42 29.304C151.988 29.304 150.26 30.3067 149.236 32.312C148.254 34.3173 147.764 37.1333 147.764 40.76V48.056C147.764 51.6827 148.297 54.584 149.364 56.76C150.473 58.936 152.414 60.024 155.188 60.024C157.364 60.024 158.985 59.384 160.052 58.104C161.118 56.824 161.652 55.1813 161.652 53.176V49.912H154.036V43.128H170.228V67H161.652V60.664Z" fill="white"/>
</g>
<defs>
<clipPath id="clip0_8_43">
<rect width="174" height="85" fill="white"/>
</clipPath>
</defs>
</svg>
