<svg width="20" height="20" viewBox="0 0 20 20" fill="none" xmlns="http://www.w3.org/2000/svg">
<path d="M17.5 5.04464V16.8304C17.5 17.718 16.7805 18.4375 15.8929 18.4375H4.10714C3.21953 18.4375 2.5 17.718 2.5 16.8304V5.04464C2.5 4.15703 3.21953 3.4375 4.10714 3.4375H15.8929C16.7805 3.4375 17.5 4.15703 17.5 5.04464ZM12.6786 12.2768C12.191 12.2768 11.747 12.463 11.4135 12.768L9.13814 11.4028C9.21585 11.0974 9.21585 10.7775 9.13814 10.4722L11.4135 9.10696C11.747 9.41202 12.191 9.59821 12.6786 9.59821C13.7141 9.59821 14.5536 8.75875 14.5536 7.72321C14.5536 6.68768 13.7141 5.84821 12.6786 5.84821C11.643 5.84821 10.8036 6.68768 10.8036 7.72321C10.8036 7.88383 10.8238 8.03972 10.8618 8.18852L8.58645 9.55375C8.253 9.24869 7.809 9.0625 7.32143 9.0625C6.28589 9.0625 5.44643 9.90196 5.44643 10.9375C5.44643 11.973 6.28589 12.8125 7.32143 12.8125C7.809 12.8125 8.253 12.6263 8.58648 12.3213L10.8619 13.6865C10.8231 13.8386 10.8035 13.9949 10.8036 14.1518C10.8036 15.1874 11.6431 16.0268 12.6786 16.0268C13.7141 16.0268 14.5536 15.1874 14.5536 14.1518C14.5536 13.1163 13.7141 12.2768 12.6786 12.2768Z" fill="#2C5595"/>
</svg>
