<svg width="20" height="20" viewBox="0 0 20 20" fill="none" xmlns="http://www.w3.org/2000/svg">
<path d="M17.0725 14.2835L13.685 11.2035C13.5249 11.0579 13.3144 10.9803 13.0982 10.987C12.8819 10.9937 12.6767 11.0841 12.5258 11.2393L10.5317 13.2901C10.0517 13.1985 9.08666 12.8976 8.09332 11.9068C7.09999 10.9126 6.79916 9.94512 6.70999 9.46845L8.75916 7.47345C8.9145 7.32272 9.0051 7.11747 9.01179 6.90112C9.01848 6.68478 8.94073 6.47432 8.79499 6.31428L5.71582 2.92762C5.57003 2.76708 5.36739 2.6697 5.15095 2.65617C4.93451 2.64263 4.72132 2.714 4.55666 2.85512L2.74832 4.40595C2.60425 4.55055 2.51826 4.74299 2.50666 4.94678C2.49416 5.15512 2.25582 10.0901 6.08249 13.9185C9.42082 17.256 13.6025 17.5001 14.7542 17.5001C14.9225 17.5001 15.0258 17.4951 15.0533 17.4935C15.2571 17.482 15.4494 17.3957 15.5933 17.251L17.1433 15.4418C17.285 15.2776 17.3569 15.0646 17.3437 14.8482C17.3304 14.6318 17.2331 14.4291 17.0725 14.2835Z" fill="#2C5595"/>
</svg>
