<svg width="150" height="150" viewBox="0 0 150 150" fill="none" xmlns="http://www.w3.org/2000/svg">
<path d="M36.25 100.312H88.75V97.0312C88.75 92.2396 86.4062 88.4635 81.7188 85.7031C77.0312 82.9427 70.625 81.5625 62.5 81.5625C54.375 81.5625 47.9688 82.9427 43.2812 85.7031C38.5938 88.4635 36.25 92.2396 36.25 97.0312V100.312ZM62.5 72.9688C66.1458 72.9688 69.1406 71.7969 71.4844 69.4531C73.8281 67.1094 75 64.1146 75 60.4688C75 56.8229 73.8281 53.8281 71.4844 51.4844C69.1406 49.1406 66.1458 47.9688 62.5 47.9688C58.8542 47.9688 55.8594 49.1406 53.5156 51.4844C51.1719 53.8281 50 56.8229 50 60.4688C50 64.1146 51.1719 67.1094 53.5156 69.4531C55.8594 71.7969 58.8542 72.9688 62.5 72.9688ZM21.875 125C19.375 125 17.1875 124.062 15.3125 122.188C13.4375 120.312 12.5 118.125 12.5 115.625V34.375C12.5 31.875 13.4375 29.6875 15.3125 27.8125C17.1875 25.9375 19.375 25 21.875 25H103.125C105.625 25 107.812 25.9375 109.688 27.8125C111.562 29.6875 112.5 31.875 112.5 34.375V67.9688L137.5 42.9688V107.031L112.5 82.0312V115.625C112.5 118.125 111.562 120.312 109.688 122.188C107.812 124.062 105.625 125 103.125 125H21.875ZM21.875 115.625H103.125V34.375H21.875V115.625Z" fill="white"/>
</svg>
